<svg version="1.1" xmlns="http://www.w3.org/2000/svg" xmlns:xlink="http://www.w3.org/1999/xlink" x="0px" y="0px" viewBox="0 0 200 24" enable-background="new 0 0 200 24" xml:space="preserve" fill="currentColor">
  <path d="M15.504,19.363H6.458l-1.344,4.016H0L8.456,0.522h5.081l8.424,22.857h-5.114L15.504,19.363z M13.997,14.857l-3.016-8.849l-2.982,8.849H13.997z M34.546,11.984c0,4.735,3.31,7.281,7.538,7.281c2.098,0,4.622-0.62,7.179-2.481v4.963C46.772,23.478,43.887,24,41.626,24c-6.655,0-11.964-4.539-11.964-12.016S34.972,0,41.659,0c2.196,0,5.113,0.49,7.604,2.22v4.996c-2.557-1.861-5.081-2.482-7.145-2.482C37.889,4.735,34.546,7.249,34.546,11.984z M72.796,19.363H63.75l-1.344,4.016h-5.114l8.456-22.857h5.081l8.424,22.857H74.14L72.796,19.363z M71.288,14.857l-3.015-8.849l-2.982,8.849H71.288z M108.85,11.755c0,6.726-4.655,11.624-11.44,11.624h-8.161V0.522h8.161C104.195,0.522,108.85,4.996,108.85,11.755z M103.965,11.755c0-4.114-2.655-6.694-6.686-6.694h-3.246v13.779h3.246C101.31,18.841,103.965,15.869,103.965,11.755z M119.337,23.379V0.522h15.569v4.539H124.09v4.473h8.523v4.539h-8.523v4.767h11.341v4.539H119.337z M169.387,23.379h-4.49V9.567l-5.113,13.812h-4.753l-5.114-13.812v13.812h-4.49V0.522h5.899l6.065,17.175l6.096-17.175h5.899V23.379z M200,0.522L191.936,14.4v8.98h-4.818V14.4l-8.064-13.877h5.604l4.884,9.11l4.85-9.11H200z"/>
</svg>
