<svg viewBox="0 0 142 22" fill="currentColor" xmlns="http://www.w3.org/2000/svg">
  <path d="M10.2906 18.3616H3.42916L2.16595 21.8026H0L5.68602 6.4165H8.05572L13.7198 21.8026H11.5538L10.2906 18.3616ZM9.70447 16.7181L6.86146 8.9048L4.01845 16.7181H9.70447Z" fill="currentColor"/>
  <path d="M25.1823 10.7579C26.1164 11.6521 26.5803 12.9441 26.5803 14.6307V21.8026H24.5492V14.9205C24.5492 13.7057 24.242 12.7776 23.6245 12.1331C23.007 11.4887 22.1638 11.168 21.098 11.168C20.0135 11.168 19.1546 11.501 18.5152 12.167C17.8758 12.8331 17.556 13.8012 17.556 15.0747V21.8026H15.5029V9.63558H17.556V11.3684C17.9635 10.7456 18.5152 10.2646 19.2142 9.92542C19.9132 9.58624 20.6843 9.41357 21.5275 9.41357C23.032 9.41357 24.2514 9.86067 25.1823 10.7579Z" fill="#currentColor"/>
  <path d="M31.6931 11.3007V18.4727C31.6931 19.0647 31.8217 19.484 32.0756 19.7276C32.3326 19.9712 32.7745 20.0946 33.4077 20.0946H34.9186V21.8028H33.0692C31.9251 21.8028 31.0694 21.5438 30.4958 21.0257C29.9221 20.5077 29.6369 19.6567 29.6369 18.4727V11.3007H28.0352V9.63569H29.6369V6.5708H31.69V9.63569H34.9186V11.3007H31.6931Z" fill="currentColor"/>
  <path d="M36.7678 7.26147C36.4983 6.9963 36.3604 6.66946 36.3604 6.28404C36.3604 5.89861 36.4951 5.57486 36.7678 5.3066C37.0374 5.04143 37.3697 4.90576 37.7615 4.90576C38.1376 4.90576 38.4573 5.03835 38.7206 5.3066C38.9839 5.57177 39.1156 5.89861 39.1156 6.28404C39.1156 6.66946 38.9839 6.99322 38.7206 7.26147C38.4573 7.52664 38.1376 7.66231 37.7615 7.66231C37.3697 7.65923 37.0405 7.52664 36.7678 7.26147ZM38.7551 9.63569V21.8027H36.702V9.63569H38.7551Z" fill="#currentColor"/>
  <path d="M52.9423 16.4746H43.056C43.1312 17.6741 43.5481 18.6083 44.3098 19.2836C45.0683 19.9558 45.9899 20.2949 47.0744 20.2949C47.9615 20.2949 48.7044 20.0914 49.2968 19.6844C49.8924 19.2774 50.3093 18.7347 50.5506 18.0533H52.7636C52.4313 19.2219 51.7699 20.1747 50.7763 20.9055C49.7827 21.6362 48.5508 22.0031 47.0744 22.0031C45.9021 22.0031 44.8521 21.7441 43.9274 21.2261C43.0027 20.7081 42.2755 19.9712 41.7489 19.0184C41.2223 18.0626 40.959 16.9587 40.959 15.7007C40.959 14.4427 41.216 13.3388 41.7269 12.3922C42.2379 11.4456 42.9557 10.7148 43.8835 10.2061C44.8082 9.69424 45.8739 9.44141 47.0776 9.44141C48.2499 9.44141 49.2905 9.69424 50.1933 10.1968C51.096 10.6994 51.7919 11.3932 52.2809 12.272C52.7699 13.1538 53.0143 14.1467 53.0143 15.2567C53.0112 15.6359 52.9893 16.0429 52.9423 16.4746ZM50.3719 12.8424C50.0271 12.2874 49.557 11.865 48.9614 11.5782C48.3659 11.2884 47.7076 11.1465 46.9867 11.1465C45.9491 11.1465 45.0652 11.4734 44.3349 12.124C43.6045 12.7746 43.1876 13.678 43.0811 14.8312H50.8891C50.8891 14.0603 50.7167 13.3974 50.3719 12.8424Z" fill="#currentColor"/>
  <path d="M57.0201 21.5252C56.2678 21.2076 55.6723 20.7636 55.2366 20.1932C54.8009 19.6227 54.5595 18.9691 54.5156 18.229H56.6377C56.6973 18.8365 56.9888 19.3329 57.506 19.7152C58.0263 20.1007 58.7065 20.2918 59.5497 20.2918C60.3333 20.2918 60.9477 20.1222 61.399 19.78C61.8504 19.4408 62.0761 19.0091 62.0761 18.4911C62.0761 17.9577 61.8347 17.563 61.3551 17.304C60.8724 17.045 60.1295 16.7891 59.1202 16.5393C58.2018 16.3019 57.4527 16.0614 56.8759 15.8178C56.296 15.5742 55.8008 15.2104 55.387 14.7294C54.9733 14.2484 54.7664 13.6163 54.7664 12.83C54.7664 12.2072 54.9545 11.6398 55.3306 11.1218C55.7067 10.6038 56.2396 10.1937 56.9323 9.88847C57.6251 9.5863 58.415 9.43213 59.302 9.43213C60.6718 9.43213 61.7783 9.7713 62.6184 10.4527C63.4615 11.1342 63.9129 12.0653 63.9725 13.2494H61.9194C61.8755 12.6142 61.6153 12.1023 61.142 11.7169C60.6687 11.3315 60.0324 11.1403 59.2362 11.1403C58.4996 11.1403 57.9134 11.2945 57.4746 11.6059C57.0389 11.9173 56.8195 12.3243 56.8195 12.8269C56.8195 13.2278 56.9511 13.5546 57.2144 13.8136C57.4777 14.0726 57.81 14.2792 58.2081 14.4365C58.6062 14.5906 59.161 14.7664 59.8663 14.9576C60.7533 15.195 61.4774 15.4262 62.0322 15.6575C62.5901 15.8888 63.0666 16.231 63.4647 16.6904C63.8628 17.1499 64.0696 17.748 64.0853 18.4881C64.0853 19.1541 63.8972 19.7522 63.5211 20.2857C63.145 20.8191 62.6152 21.2354 61.9288 21.5406C61.2423 21.8428 60.4587 21.9969 59.5716 21.9969C58.6218 22 57.7724 21.8428 57.0201 21.5252Z" fill="#currentColor"/>
  <path d="M68.8845 11.3007V18.4727C68.8845 19.0647 69.0131 19.484 69.267 19.7276C69.524 19.9712 69.966 20.0946 70.5991 20.0946H72.11V21.8028H70.2606C69.1165 21.8028 68.2608 21.5438 67.6872 21.0257C67.1135 20.5077 66.8283 19.6567 66.8283 18.4727V11.3007H65.2266V9.63569H66.8283V6.5708H68.8814V9.63569H72.11V11.3007H68.8845Z" fill="currentColor"/>
  <path d="M73.6078 12.3982C74.1187 11.4577 74.824 10.7301 75.7173 10.2121C76.6138 9.69404 77.6106 9.43504 78.7077 9.43504C79.7922 9.43504 80.7326 9.66321 81.5287 10.1226C82.3249 10.5821 82.9205 11.1587 83.3123 11.8555V9.63546H85.3873V21.8025H83.3123V19.5393C82.9048 20.2485 82.2998 20.8374 81.4942 21.303C80.6887 21.7686 79.7515 22.0029 78.6857 22.0029C77.5886 22.0029 76.595 21.7378 75.7079 21.2043C74.8209 20.6709 74.1219 19.9247 73.6078 18.9627C73.0969 18.0007 72.8398 16.9061 72.8398 15.6758C72.8398 14.4301 73.0969 13.3386 73.6078 12.3982ZM82.7481 13.2985C82.3719 12.6171 81.8641 12.096 81.2247 11.7322C80.5852 11.3683 79.8831 11.1895 79.1151 11.1895C78.3472 11.1895 77.6482 11.3683 77.015 11.7229C76.3818 12.0775 75.8803 12.5955 75.5042 13.2769C75.128 13.9584 74.94 14.757 74.94 15.6758C74.94 16.607 75.128 17.4179 75.5042 18.1055C75.8803 18.7931 76.385 19.3204 77.015 19.6811C77.6482 20.045 78.3472 20.2238 79.1151 20.2238C79.8831 20.2238 80.5852 20.0419 81.2247 19.6811C81.8641 19.3173 82.3719 18.7931 82.7481 18.1055C83.1242 17.4179 83.3123 16.6132 83.3123 15.6974C83.3123 14.7786 83.1242 13.98 82.7481 13.2985ZM81.7105 6.19439L76.9022 8.72586V7.21499L81.7105 4.43994V6.19439Z" fill="#currentColor"/>
  <path d="M90.7537 11.3007V18.4727C90.7537 19.0647 90.8822 19.484 91.1361 19.7276C91.3931 19.9712 91.8351 20.0946 92.4683 20.0946H93.9791V21.8028H92.1298C90.9857 21.8028 90.1299 21.5438 89.5563 21.0257C88.9827 20.5077 88.6974 19.6567 88.6974 18.4727V11.3007H87.0957V9.63569H88.6974V6.5708H90.7506V9.63569H93.9791V11.3007H90.7537Z" fill="currentColor"/>
  <path d="M95.8284 7.26147C95.5588 6.9963 95.4209 6.66946 95.4209 6.28404C95.4209 5.89861 95.5557 5.57486 95.8284 5.3066C96.098 5.04143 96.4302 4.90576 96.822 4.90576C97.1982 4.90576 97.5179 5.03835 97.7812 5.3066C98.0445 5.57177 98.1761 5.89861 98.1761 6.28404C98.1761 6.66946 98.0445 6.99322 97.7812 7.26147C97.5179 7.52664 97.1982 7.66231 96.822 7.66231C96.4302 7.65923 96.1011 7.52664 95.8284 7.26147ZM97.8157 9.63569V21.8027H95.7626V9.63569H97.8157Z" fill="#currentColor"/>
  <path d="M100.787 12.3982C101.298 11.4578 102.01 10.7301 102.919 10.2121C103.828 9.69406 104.872 9.43506 106.044 9.43506C107.564 9.43506 108.815 9.7989 109.802 10.5235C110.787 11.2481 111.439 12.2564 111.755 13.5421H109.542C109.332 12.8021 108.922 12.2194 108.313 11.7877C107.705 11.3591 106.947 11.1433 106.044 11.1433C104.872 11.1433 103.922 11.5379 103.201 12.3304C102.48 13.1228 102.117 14.2421 102.117 15.6943C102.117 17.159 102.477 18.2906 103.201 19.0922C103.922 19.8908 104.872 20.2917 106.044 20.2917C106.947 20.2917 107.699 20.0851 108.301 19.6688C108.903 19.2557 109.317 18.6637 109.542 17.8928H111.755C111.423 19.1354 110.762 20.1313 109.768 20.8775C108.774 21.6237 107.533 21.9999 106.044 21.9999C104.872 21.9999 103.828 21.7409 102.919 21.2229C102.01 20.7049 101.298 19.971 100.787 19.0244C100.277 18.0778 100.02 16.9678 100.02 15.6943C100.02 14.4394 100.277 13.3386 100.787 12.3982Z" fill="#currentColor"/>
  <path d="M116.178 21.2227C115.237 20.7047 114.501 19.9678 113.965 19.015C113.432 18.0592 113.162 16.9553 113.162 15.6973C113.162 14.4547 113.438 13.3539 113.986 12.4011C114.535 11.4453 115.284 10.7145 116.231 10.2027C117.177 9.69083 118.24 9.43799 119.412 9.43799C120.585 9.43799 121.647 9.69391 122.594 10.2027C123.541 10.7145 124.29 11.4422 124.838 12.3888C125.387 13.3354 125.663 14.4392 125.663 15.6973C125.663 16.9553 125.38 18.0622 124.816 19.015C124.252 19.9709 123.487 20.7047 122.525 21.2227C121.563 21.7407 120.494 21.9997 119.321 21.9997C118.168 21.9997 117.118 21.7407 116.178 21.2227ZM121.403 19.7149C122.048 19.3758 122.572 18.8639 122.97 18.1825C123.368 17.5011 123.569 16.6716 123.569 15.6973C123.569 14.7229 123.374 13.8904 122.983 13.2121C122.591 12.5306 122.08 12.025 121.447 11.6919C120.813 11.3589 120.13 11.1924 119.394 11.1924C118.641 11.1924 117.952 11.3589 117.328 11.6919C116.704 12.025 116.203 12.5306 115.826 13.2121C115.45 13.8935 115.262 14.7229 115.262 15.6973C115.262 16.6901 115.447 17.5257 115.814 18.2072C116.184 18.8886 116.676 19.3943 117.293 19.7273C117.911 20.0603 118.588 20.2268 119.325 20.2268C120.064 20.2237 120.757 20.0541 121.403 19.7149Z" fill="#currentColor"/>
  <path d="M124.525 8.14907C124.19 7.24872 124.023 6.28362 124.023 5.25377C124.023 4.19925 124.199 3.20948 124.55 2.27829C124.901 1.35019 125.412 0.591677 126.083 -0.00341797H127.409V0.116834C126.719 0.764347 126.193 1.54136 125.835 2.44788C125.475 3.3544 125.293 4.28866 125.293 5.25068C125.293 6.18803 125.462 7.09455 125.807 7.96715C126.149 8.83975 126.634 9.59518 127.271 10.2396V10.3691H125.945C125.334 9.78943 124.86 9.04942 124.525 8.14907Z" fill="#currentColor"/>
  <path d="M131.678 6.69995H129.064L128.631 7.93023H127.249L129.609 1.46436H131.142L133.502 7.93023H132.111L131.678 6.69995ZM131.321 5.66394L130.371 2.96288L129.421 5.66394H131.321Z" fill="currentColor"/>
  <path d="M138.922 5.75623H135.114C135.145 6.12623 135.277 6.41607 135.509 6.62574C135.741 6.83541 136.026 6.94025 136.364 6.94025C136.853 6.94025 137.201 6.73366 137.408 6.32049H138.828C138.678 6.81383 138.389 7.22084 137.963 7.53843C137.537 7.85602 137.013 8.01327 136.393 8.01327C135.891 8.01327 135.44 7.90535 135.042 7.68643C134.643 7.46751 134.333 7.15917 134.111 6.75524C133.888 6.3544 133.778 5.89189 133.778 5.36772C133.778 4.83737 133.888 4.37178 134.107 3.97094C134.327 3.5701 134.634 3.26176 135.029 3.04592C135.424 2.83009 135.878 2.72217 136.393 2.72217C136.888 2.72217 137.33 2.827 137.725 3.03667C138.116 3.24634 138.421 3.54543 138.637 3.93086C138.853 4.31628 138.963 4.76029 138.963 5.2598C138.96 5.44172 138.947 5.60822 138.922 5.75623ZM137.596 4.88671C137.59 4.5537 137.468 4.28853 137.229 4.08811C136.991 3.88769 136.7 3.78594 136.355 3.78594C136.029 3.78594 135.753 3.88152 135.534 4.07578C135.314 4.27003 135.173 4.54137 135.123 4.88363H137.596V4.88671Z" fill="#currentColor"/>
  <path d="M138.755 10.369V10.2395C139.388 9.59811 139.874 8.8396 140.216 7.967C140.558 7.0944 140.73 6.19096 140.73 5.25053C140.73 4.28851 140.548 3.35424 140.188 2.44772C139.827 1.54121 139.301 0.764193 138.614 0.116681V-0.000488281H139.94C140.611 0.591523 141.122 1.35312 141.473 2.28122C141.824 3.20932 142 4.20217 142 5.25669C142 6.28655 141.83 7.25165 141.498 8.152C141.166 9.05235 140.689 9.79236 140.084 10.372H138.755V10.369Z" fill="#currentColor"/>
</svg>
