<?xml version="1.0" encoding="UTF-8"?>
<svg version="1.1" xmlns="http://www.w3.org/2000/svg" width="711" height="165">
<path d="M0 0 C13.4475 -0.04125 26.895 -0.0825 40.75 -0.125 C44.97393555 -0.14320801 49.19787109 -0.16141602 53.54980469 -0.18017578 C58.76416016 -0.18920898 58.76416016 -0.18920898 61.21612549 -0.19088745 C62.90477558 -0.19393025 64.59342171 -0.20090449 66.28204346 -0.21115112 C82.96506128 -0.30719936 99.64539586 0.23951016 113.25390625 11.2734375 C121.24990574 19.17999628 124.46029807 28.61771985 125.05859375 39.62890625 C124.89596137 48.98568937 121.91154093 57.71113097 116 65 C112.8277691 67.91143464 109.51343178 70.5142123 106 73 C106.6290625 73.3403125 107.258125 73.680625 107.90625 74.03125 C118.74562382 80.16920867 125.77899449 87.28639177 129.74609375 99.25 C132.81807231 111.11419307 131.29282778 123.64868627 125.25 134.3125 C117.77786199 145.70295429 107.77287616 151.10461308 94.66796875 154.45703125 C88.53012454 155.70616792 82.6392253 156.14262589 76.40258789 156.11352539 C75.55920836 156.11364593 74.71582884 156.11376646 73.84689236 156.11389065 C71.13878606 156.11314908 68.4307501 156.10555556 65.72265625 156.09765625 C64.04195183 156.09618449 62.36124696 156.09516522 60.68054199 156.09460449 C54.47452097 156.08937879 48.26850978 156.07541752 42.0625 156.0625 C21.2415625 156.0315625 21.2415625 156.0315625 0 156 C0 104.52 0 53.04 0 0 Z M37 30 C37 40.89 37 51.78 37 63 C41.96269402 63.06924689 46.92368062 63.12886389 51.88647461 63.16479492 C53.57110302 63.17978874 55.25569303 63.20019073 56.94018555 63.22631836 C69.79994067 63.58513452 69.79994067 63.58513452 82 60 C86.23001019 55.87845161 87.84183051 51.96130163 88.3125 46.125 C88.17639637 41.88176918 87.14062276 38.71041279 85 35 C79.09944611 30.32872817 74.47405697 29.85737148 67.17578125 29.90234375 C65.88367989 29.90446617 65.88367989 29.90446617 64.56547546 29.90663147 C61.81444831 29.9122286 59.06350256 29.92478054 56.3125 29.9375 C54.4472668 29.94251537 52.58203233 29.94707821 50.71679688 29.95117188 C46.14447466 29.96134616 41.57232845 29.98092213 37 30 Z M37 91 C37 102.55 37 114.1 37 126 C42.85371884 126.0690478 48.70601216 126.12872861 54.55981445 126.16479492 C56.5491211 126.17983724 58.53839483 126.20027623 60.52758789 126.22631836 C63.39477689 126.26290246 66.26152559 126.27977218 69.12890625 126.29296875 C70.01147598 126.30845261 70.89404572 126.32393646 71.80335999 126.33988953 C78.70303847 126.34174998 83.40778945 125.1889778 88.8125 120.625 C92.61135092 116.06637889 93.4739625 112.1802942 93.30859375 106.34375 C92.69362117 101.67307217 91.0476203 97.64379727 87.31640625 94.6484375 C82.87683473 91.99424205 78.88597661 90.87072229 73.78222656 90.88647461 C72.96167786 90.88655014 72.14112915 90.88662567 71.29571533 90.88670349 C69.98144562 90.89444542 69.98144562 90.89444542 68.640625 90.90234375 C67.73624695 90.9037587 66.8318689 90.90517365 65.90008545 90.90663147 C63.01668973 90.91222089 60.13337218 90.92477147 57.25 90.9375 C55.29296987 90.94251637 53.33593853 90.94707904 51.37890625 90.95117188 C46.58588329 90.9613352 41.79302896 90.98091272 37 91 Z " fill="#020202" transform="translate(4,4)"/>
<path d="M0 0 C11.22 0 22.44 0 34 0 C34.03738281 5.16527344 34.07476562 10.33054688 34.11328125 15.65234375 C34.14358202 18.93818346 34.17474358 22.22397037 34.20898438 25.50976562 C34.26316872 30.71717567 34.31428382 35.92448131 34.34643555 41.13208008 C34.37257764 45.33385075 34.41305581 49.53526781 34.46318626 53.73681831 C34.47978162 55.3342096 34.49134131 56.93166195 34.49761391 58.52912712 C34.51219478 70.56688212 34.51219478 70.56688212 38 82 C40.43562001 83.61006032 40.43562001 83.61006032 43 84 C43.99 84.495 43.99 84.495 45 85 C52.24524092 85.71836666 58.43951346 85.91992986 64.41796875 81.4140625 C70.11607854 76.3209372 71.73340227 71.17158821 72.21124268 63.69458008 C72.32720756 59.64981954 72.3818083 55.60858838 72.4140625 51.5625 C72.43279923 50.07176675 72.45237447 48.58104382 72.4727478 47.09033203 C72.52381073 43.1909599 72.56357365 39.29155348 72.60089111 35.39202881 C72.64817819 30.70031298 72.709664 26.00876383 72.76873779 21.31718445 C72.85663463 14.21152454 72.92662395 7.10589146 73 0 C84.22 0 95.44 0 107 0 C107 37.29 107 74.58 107 113 C96.11 113 85.22 113 74 113 C73.67 109.04 73.34 105.08 73 101 C72.34 101 71.68 101 71 101 C70.00510749 102.00680739 69.05412531 103.05719928 68.125 104.125 C61.33123787 111.08825308 51.68999512 115.32227713 42 116 C31.60515431 116.0909549 20.99886117 114.16377101 12.625 107.6015625 C2.42094325 97.54467964 0.01498969 85.9029147 -0.10594082 72.05450249 C-0.11950223 68.05578453 -0.11034405 64.05730183 -0.09765625 60.05859375 C-0.09578838 58.32267803 -0.09436622 56.58676178 -0.09336853 54.85084534 C-0.08957241 50.30860915 -0.0797673 45.76640555 -0.06866455 41.22418213 C-0.05657689 35.75996321 -0.05203435 30.29573332 -0.04621124 24.83150482 C-0.03655369 16.55431397 -0.0173769 8.27719445 0 0 Z " fill="#030303" transform="translate(424,47)"/>
<path d="M0 0 C1.03125 0.5775 2.0625 1.155 3.125 1.75 C10.51084726 7.53022829 14.78253492 13.83209328 17 23 C17.495 27.455 17.495 27.455 18 32 C7.44 32 -3.12 32 -14 32 C-14.99 29.03 -15.98 26.06 -17 23 C-20.79073172 18.65180773 -25.42640656 17.52150582 -31 17 C-40.55865967 16.98482576 -40.55865967 16.98482576 -49 21 C-50.54586876 24.09173752 -50.29359521 26.59429552 -50 30 C-47.0546551 34.61010506 -42.0277471 35.63475601 -37 37 C-32.93492575 37.78165185 -28.84828371 38.35924689 -24.75 38.9375 C5.99705849 43.61275298 5.99705849 43.61275298 15.8203125 56.2109375 C21.23759828 64.42655633 22.03355756 73.8759885 20.375 83.375 C17.98188553 92.94745786 12.38174314 99.96066977 4 105 C-14.78138548 114.64726904 -40.7695208 115.42396995 -60.8203125 109.2578125 C-70.05185321 105.60602367 -77.77786485 100.52285896 -82.28125 91.40625 C-83.29016026 88.95603938 -84.20098386 86.52592201 -85 84 C-85.19851562 83.38640625 -85.39703125 82.7728125 -85.6015625 82.140625 C-86.15963522 79.14235195 -86 76.04976826 -86 73 C-75.11 73 -64.22 73 -53 73 C-51.68 76.3 -50.36 79.6 -49 83 C-41.89099505 89.07227506 -33.9747472 88.57093816 -25 88 C-20.48141402 87.02500749 -17.64897611 85.97346416 -15 82 C-14.64834183 80.0495927 -14.64834183 80.0495927 -14.6875 78 C-14.66236328 76.9790625 -14.66236328 76.9790625 -14.63671875 75.9375 C-15.11044588 73.41095528 -16.08452069 72.67607907 -18 71 C-24.9405184 67.79793413 -32.12177811 66.82627315 -39.625 65.625 C-70.46227918 60.3558795 -70.46227918 60.3558795 -80.4375 46.625 C-85.76051506 37.827239 -85.59763753 29.0026002 -84 19 C-81.0463278 8.93996796 -75.22500089 3.53330823 -66.2578125 -1.45703125 C-61.30469209 -3.8029336 -56.38060418 -5.05537146 -51 -6 C-50.2884375 -6.13019531 -49.576875 -6.26039062 -48.84375 -6.39453125 C-33.02796456 -8.67565415 -14.18463915 -7.97885952 0 0 Z " fill="#050505" transform="translate(276,51)"/>
<path d="M0 0 C15.84838671 -0.46216438 30.32942887 3.05234877 42.52734375 13.46875 C50.15154293 20.79971075 54.8448446 28.75893031 57.15234375 39.15625 C57.15234375 41.46625 57.15234375 43.77625 57.15234375 46.15625 C46.26234375 46.15625 35.37234375 46.15625 24.15234375 46.15625 C22.83234375 43.18625 21.51234375 40.21625 20.15234375 37.15625 C16.24932584 31.87569636 11.45620465 30.1916225 5.15234375 29.15625 C-1.0722523 28.92468021 -7.14384094 29.81242056 -11.84765625 34.15625 C-18.94578676 43.40647327 -19.71014559 54.89081229 -18.84765625 66.15625 C-17.50183023 74.41785352 -15.70679727 81.24220474 -8.78515625 86.46875 C-2.71218653 89.95747728 3.30395667 89.73099643 10.15234375 89.15625 C14.73559884 87.89908755 17.41481683 86.03330904 20.46484375 82.40625 C22.33690579 78.80079719 23.72590477 74.96008728 25.15234375 71.15625 C36.04234375 71.15625 46.93234375 71.15625 58.15234375 71.15625 C56.60141118 86.66557572 51.9476932 97.89692532 39.83984375 107.96875 C25.68558918 118.19929115 8.25303364 120.76108085 -8.78515625 118.46875 C-23.0226319 115.80152265 -35.34308575 108.5675094 -44.0625 96.9296875 C-51.74725051 84.99057839 -54.20251634 73.81410854 -54.16015625 59.84375 C-54.17626953 58.79251953 -54.19238281 57.74128906 -54.20898438 56.65820312 C-54.2192966 39.88021464 -48.49910381 25.65628494 -36.69921875 13.7890625 C-26.51960417 4.39034986 -13.59145888 0.74575906 0 0 Z " fill="#050505" transform="translate(355.84765625,43.84375)"/>
<path d="M0 0 C0.71353638 0.00202423 1.42707275 0.00404846 2.16223145 0.00613403 C2.89091431 0.00517731 3.61959717 0.00422058 4.37036133 0.00323486 C5.91377855 0.00255318 7.45719861 0.00440666 9.00061035 0.00857544 C11.37095544 0.01392391 13.74111104 0.00863011 16.1114502 0.00222778 C17.60754437 0.00288857 19.10363842 0.00416973 20.59973145 0.00613403 C21.31326782 0.0041098 22.0268042 0.00208557 22.76196289 0 C27.76602953 0.02399462 27.76602953 0.02399462 28.88098145 1.13894653 C28.96941938 3.5872508 28.99626896 6.00715252 28.9786377 8.45535278 C28.97722275 9.18640732 28.9758078 9.91746185 28.97434998 10.67066956 C28.96873553 13.01430286 28.95618066 15.35784193 28.94348145 17.70144653 C28.9384683 19.28673162 28.93390507 20.87201819 28.92980957 22.45730591 C28.91961065 26.35125196 28.90003831 30.2449933 28.88098145 34.13894653 C35.81098145 34.13894653 42.74098145 34.13894653 49.88098145 34.13894653 C49.88098145 42.38894653 49.88098145 50.63894653 49.88098145 59.13894653 C42.95098145 59.13894653 36.02098145 59.13894653 28.88098145 59.13894653 C28.92129265 66.64968932 28.97833628 74.15994672 29.06488419 81.67029285 C29.1044021 85.15766602 29.13656884 88.64478509 29.15197754 92.13235474 C29.17001195 96.14147628 29.21994273 100.14964758 29.27160645 104.15847778 C29.27283508 105.41167313 29.27406372 106.66486847 29.27532959 107.95603943 C29.29504822 109.11701645 29.31476685 110.27799347 29.33508301 111.47415161 C29.34396545 112.49785355 29.3528479 113.52155548 29.36199951 114.57627869 C29.6600206 117.24550256 29.6600206 117.24550256 31.67193604 118.96101379 C35.0139913 120.74310315 38.4271648 120.71102909 42.13098145 120.82644653 C44.68848145 120.92957153 47.24598145 121.03269653 49.88098145 121.13894653 C49.88098145 129.71894653 49.88098145 138.29894653 49.88098145 147.13894653 C36.01084951 149.12039395 16.43350596 150.40496688 4.42004395 141.51394653 C-1.45834424 136.26218856 -4.76098692 130.6947486 -5.37863159 122.83547974 C-5.46591593 118.78717076 -5.45689627 114.74993699 -5.4119873 110.70144653 C-5.40638326 109.21072824 -5.40211699 107.72000438 -5.39912415 106.22927856 C-5.38773884 102.32968553 -5.35832724 98.43043445 -5.32501221 94.53097534 C-5.29417409 90.54227319 -5.28058962 86.55351511 -5.26550293 82.56472778 C-5.23345038 74.75596103 -5.18073535 66.9475455 -5.11901855 59.13894653 C-10.72901855 59.13894653 -16.33901855 59.13894653 -22.11901855 59.13894653 C-22.11901855 50.88894653 -22.11901855 42.63894653 -22.11901855 34.13894653 C-14.19901855 33.64394653 -14.19901855 33.64394653 -6.11901855 33.13894653 C-6.13062012 30.8405481 -6.14222168 28.54214966 -6.1541748 26.17410278 C-6.16196564 23.95673765 -6.16804225 21.73937402 -6.1739502 19.52200317 C-6.17898995 17.97674888 -6.18582175 16.43149937 -6.19445801 14.88626099 C-6.20653932 12.66969625 -6.21225028 10.45319435 -6.2166748 8.23660278 C-6.22183609 7.54180313 -6.22699738 6.84700348 -6.23231506 6.13114929 C-6.23251132 4.46665323 -6.18090984 2.80229155 -6.11901855 1.13894653 C-4.41408974 -0.56598228 -2.27367595 0.01090233 0 0 Z " fill="#040404" transform="translate(613.1190185546875,12.861053466796875)"/>
<path d="M0 0 C10.89 0 21.78 0 33 0 C34 1 34 1 34.12304783 2.87219334 C34.12166514 4.10970042 34.12166514 4.10970042 34.12025452 5.37220764 C34.12162918 6.31596756 34.12300385 7.25972748 34.12442017 8.23208618 C34.11902725 9.79761734 34.11902725 9.79761734 34.11352539 11.39477539 C34.11367142 12.48732132 34.11381744 13.57986725 34.1139679 14.70552063 C34.11326822 18.33625233 34.10547329 21.96693346 34.09765625 25.59765625 C34.09579226 28.10729443 34.09436827 30.61693298 34.09336853 33.12657166 C34.08993348 39.06934593 34.08204273 45.01210384 34.07201904 50.95486969 C34.05976253 58.38201925 34.05437792 65.80917105 34.04882812 73.23632812 C34.03808811 86.49089655 34.02049008 99.74544306 34 113 C22.78 113 11.56 113 0 113 C0 75.71 0 38.42 0 0 Z " fill="#050505" transform="translate(146,47)"/>
<path d="M0 0 C11.22 0 22.44 0 34 0 C35.12504289 9.00034314 35.12504289 9.00034314 35.12698364 12.8588562 C35.12980347 13.73362106 35.13262329 14.60838593 35.13552856 15.50965881 C35.13350433 16.44088058 35.1314801 17.37210236 35.12939453 18.33154297 C35.13114685 19.33411636 35.13289917 20.33668976 35.13470459 21.36964417 C35.13908147 24.6605099 35.13620117 27.95132129 35.1328125 31.2421875 C35.13348642 33.53524791 35.13445718 35.82830824 35.13571167 38.12136841 C35.13718272 42.91425256 35.13505193 47.70711802 35.13037109 52.5 C35.1246548 58.65389417 35.12796854 64.8077449 35.13394356 70.9616375 C35.13754868 75.69009736 35.13641114 80.41854683 35.13381577 85.14700699 C35.13314736 87.41729869 35.13397191 89.68759132 35.13629532 91.95788193 C35.13882311 95.12022168 35.1349803 98.28248983 35.12939453 101.44482422 C35.13141876 102.38819138 35.13344299 103.33155853 35.13552856 104.30351257 C35.13270874 105.16135849 35.12988892 106.01920441 35.12698364 106.90304565 C35.12660662 107.65036894 35.12622959 108.39769222 35.12584114 109.16766167 C35 111 35 111 34 113 C23.11 113 12.22 113 1 113 C-0.18778147 110.62443706 -0.12324578 109.19575841 -0.12025452 106.54550171 C-0.12162918 105.60878128 -0.12300385 104.67206085 -0.12442017 103.70695496 C-0.12082489 102.67621353 -0.11722961 101.64547211 -0.11352539 100.58349609 C-0.11367142 99.50055771 -0.11381744 98.41761932 -0.1139679 97.30186462 C-0.11326915 93.70903547 -0.10547852 90.11625764 -0.09765625 86.5234375 C-0.09579193 84.03764881 -0.0943681 81.55185975 -0.09336853 79.06607056 C-0.08993565 73.18353603 -0.08204773 67.30102057 -0.07201904 61.41849387 C-0.05975492 54.06545754 -0.05437626 46.71241893 -0.04882812 39.359375 C-0.03809268 26.23957207 -0.02049672 13.11979132 0 0 Z " fill="#060606" transform="translate(547,47)"/>
<path d="M0 0 C5.39346988 -0.02464849 10.78690725 -0.04283531 16.18041992 -0.05493164 C18.01668875 -0.05997231 19.85295354 -0.06680477 21.68920898 -0.07543945 C24.32276401 -0.08751672 26.95626616 -0.09323081 29.58984375 -0.09765625 C30.41588608 -0.10281754 31.24192841 -0.10797882 32.09300232 -0.11329651 C34.06236368 -0.11349205 36.03161614 -0.06204152 38 0 C39.75604008 1.75604008 39.12832585 4.05932323 39.13894653 6.39830017 C39.1369223 7.15244705 39.13489807 7.90659393 39.1328125 8.68359375 C39.13376923 9.45429703 39.13472595 10.22500031 39.13571167 11.01905823 C39.13639349 12.65243613 39.13453909 14.28581673 39.13037109 15.91918945 C39.12503007 18.42340172 39.13031224 20.92743403 39.13671875 23.43164062 C39.13605783 25.0156254 39.13477637 26.59961006 39.1328125 28.18359375 C39.13483673 28.9357164 39.13686096 29.68783905 39.13894653 30.4627533 C39.11495624 35.77008751 39.11495624 35.77008751 38 38 C25.79 38 13.58 38 1 38 C-0.58645357 34.82709287 -0.12078213 31.41174616 -0.09765625 27.9296875 C-0.0962413 27.13345978 -0.09482635 26.33723206 -0.09336853 25.51687622 C-0.08776345 22.9695462 -0.07521014 20.42230353 -0.0625 17.875 C-0.05748565 16.14974085 -0.05292263 14.42448033 -0.04882812 12.69921875 C-0.03779237 8.46611209 -0.02052436 4.23307086 0 0 Z " fill="#080808" transform="translate(672,122)"/>
<path d="M0 0 C0.66 0.33 1.32 0.66 2 1 C-0.97 3.97 -3.94 6.94 -7 10 C-7 6.04435836 -5.59478606 4.89133304 -3 2 C-2.01 1.34 -1.02 0.68 0 0 Z " fill="#313130" transform="translate(204,53)"/>
</svg>
