<svg version="1.1" xmlns="http://www.w3.org/2000/svg" width="142" height="25.528" viewBox="0 0 142 25.528" fill="none">
  <path d="m52.925 1.062 0.082 -0.001a31.131 31.131 0 0 1 0.272 0l0.195 -0.001c0.177 -0.001 0.354 -0.001 0.531 0 0.148 0 0.295 0 0.443 0q0.522 -0.001 1.045 0c0.359 0 0.719 0 1.078 -0.001q0.463 -0.001 0.926 -0.001 0.276 0 0.553 -0.001 0.26 -0.001 0.52 0 0.095 0 0.191 0c0.087 0 0.174 0 0.26 0.001h0.147c0.147 0.022 0.207 0.064 0.312 0.167 0.059 0.087 0.059 0.087 0.109 0.185l0.058 0.109 0.06 0.117q0.065 0.122 0.129 0.244l0.065 0.122c0.083 0.154 0.17 0.306 0.258 0.457l0.1 0.171 0.053 0.091c0.115 0.199 0.229 0.398 0.343 0.598l0.231 0.404q0.173 0.303 0.346 0.606l0.113 0.197q0.166 0.29 0.332 0.58a215.096 215.096 0 0 1 0.628 1.105 197.36 197.36 0 0 0 0.57 1.002q0.139 0.243 0.278 0.486l0.738 1.292 0.037 0.064 0.267 0.467a820.98 820.98 0 0 1 0.445 0.779l0.053 0.093a143.224 143.224 0 0 0 0.378 0.656c0.195 0.338 0.389 0.676 0.578 1.019 0.147 0.267 0.302 0.529 0.456 0.792 0.188 0.322 0.371 0.647 0.551 0.973 0.1 0.181 0.201 0.357 0.32 0.527 0.073 -0.001 0.073 -0.001 0.148 -0.037 0.065 -0.16 0.093 -0.319 0.118 -0.49l0.011 -0.079q0.019 -0.13 0.037 -0.259l0.027 -0.185q0.028 -0.198 0.057 -0.396c0.03 -0.209 0.06 -0.418 0.089 -0.627q0.046 -0.321 0.092 -0.642a524.958 524.958 0 0 1 0.203 -1.407l0.058 -0.402q0.186 -1.279 0.368 -2.559c0.104 -0.734 0.212 -1.467 0.321 -2.201 0.085 -0.573 0.168 -1.145 0.248 -1.719q0.02 -0.145 0.04 -0.29a78.736 78.736 0 0 0 0.112 -0.823c0.015 -0.119 0.031 -0.237 0.048 -0.356q0.011 -0.082 0.021 -0.165c0.009 -0.075 0.019 -0.149 0.03 -0.224l0.016 -0.126c0.046 -0.147 0.094 -0.207 0.22 -0.297 0.111 -0.025 0.218 -0.022 0.332 -0.019l0.103 0c0.115 0.001 0.23 0.003 0.345 0.005q0.124 0.001 0.248 0.002c0.21 0.002 0.42 0.005 0.629 0.008 0.283 0.004 0.567 0.007 0.851 0.01 0.668 0.007 1.335 0.016 2.003 0.027 0.215 0.003 0.43 0.006 0.646 0.009 0.149 0.002 0.299 0.004 0.448 0.007q0.098 0.002 0.196 0.003c0.087 0.001 0.174 0.003 0.26 0.004l0.142 0.002L75.545 1.15c0.08 0.119 0.083 0.128 0.064 0.26l-0.013 0.094 -0.016 0.104c-0.005 0.037 -0.01 0.075 -0.016 0.113q-0.018 0.127 -0.036 0.254c-0.022 0.148 -0.043 0.296 -0.063 0.445 -0.047 0.331 -0.094 0.662 -0.142 0.994q-0.037 0.261 -0.075 0.522 -0.065 0.453 -0.13 0.905a9547.32 9547.32 0 0 0 -0.387 2.702 4077.593 4077.593 0 0 0 -0.607 4.264q-0.165 1.164 -0.33 2.327a5488.317 5488.317 0 0 1 -0.219 1.543 451.157 451.157 0 0 1 -0.475 3.263 108.272 108.272 0 0 0 -0.167 1.172c-0.029 0.212 -0.059 0.423 -0.089 0.635l-0.019 0.138a954.669 954.669 0 0 1 -0.238 1.691q-0.034 0.24 -0.068 0.48 -0.032 0.227 -0.064 0.454 -0.012 0.084 -0.023 0.167c-0.131 0.939 -0.131 0.939 -0.264 1.072 -0.107 0.009 -0.107 0.009 -0.247 0.009l-0.078 0c-0.086 0 -0.173 0 -0.259 -0.001h-0.185c-0.168 0 -0.336 0 -0.504 -0.001 -0.176 0 -0.351 -0.001 -0.527 -0.001q-0.499 0 -0.998 -0.002c-0.379 -0.001 -0.757 -0.001 -1.136 -0.002q-1.168 -0.001 -2.337 -0.004l-0.214 -0.375 -0.061 -0.107a143.447 143.447 0 0 1 -0.409 -0.719l-0.122 -0.216 -0.061 -0.108a338.767 338.767 0 0 0 -0.18 -0.319 236.172 236.172 0 0 1 -0.625 -1.111 99.663 99.663 0 0 0 -0.545 -0.962c-0.116 -0.203 -0.23 -0.406 -0.343 -0.611a53.654 53.654 0 0 0 -0.401 -0.712c-0.35 -0.612 -0.696 -1.226 -1.04 -1.841 -0.155 -0.276 -0.311 -0.551 -0.468 -0.825 -0.167 -0.291 -0.331 -0.585 -0.495 -0.878A76.918 76.918 0 0 0 60.518 15.232c-0.184 -0.321 -0.366 -0.644 -0.546 -0.967 -0.165 -0.294 -0.33 -0.588 -0.496 -0.882a126.268 126.268 0 0 1 -0.382 -0.68c-0.181 -0.324 -0.364 -0.647 -0.554 -0.966 -0.127 -0.214 -0.246 -0.433 -0.364 -0.652 -0.238 -0.453 -0.238 -0.453 -0.515 -0.881h-0.074c-0.217 1.449 -0.426 2.9 -0.633 4.351l-0.02 0.139c-0.158 1.107 -0.316 2.215 -0.47 3.323 -0.108 0.773 -0.218 1.545 -0.329 2.317l-0.012 0.082 -0.012 0.082 -0.012 0.082 -0.024 0.165a826.546 826.546 0 0 0 -0.174 1.221q-0.038 0.267 -0.076 0.534 -0.03 0.212 -0.06 0.425c-0.225 1.591 -0.225 1.591 -0.331 1.751 -0.104 0.014 -0.104 0.014 -0.241 0.014l-0.076 0.001c-0.084 0.001 -0.168 0 -0.252 0l-0.18 0.001c-0.164 0.001 -0.327 0.001 -0.491 0 -0.136 0 -0.273 0 -0.409 0q-0.483 0.001 -0.966 0c-0.332 0 -0.665 0 -0.997 0.001q-0.428 0.001 -0.855 0.001 -0.256 0 -0.511 0.001 -0.24 0.001 -0.481 0 -0.088 0 -0.177 0c-0.08 0 -0.16 0 -0.241 -0.001h-0.136C49.312 24.675 49.312 24.675 49.242 24.604c-0.127 -0.24 -0.021 -0.597 0.017 -0.852l0.03 -0.212q0.011 -0.079 0.022 -0.158c0.05 -0.347 0.097 -0.693 0.144 -1.04l0.067 -0.491a1152.957 1152.957 0 0 0 0.135 -0.988c0.109 -0.797 0.219 -1.594 0.333 -2.39 0.107 -0.742 0.209 -1.485 0.311 -2.229a950.958 950.958 0 0 1 0.41 -2.973l0.014 -0.099c0.133 -0.95 0.266 -1.9 0.399 -2.85 0.252 -1.798 0.252 -1.798 0.503 -3.595l0.043 -0.309a406.297 406.297 0 0 0 0.263 -1.921q0.062 -0.459 0.124 -0.918 0.053 -0.388 0.104 -0.776c0.022 -0.161 0.043 -0.322 0.065 -0.484q0.015 -0.113 0.03 -0.227c0.014 -0.104 0.028 -0.208 0.042 -0.313l0.012 -0.092c0.06 -0.43 0.06 -0.43 0.234 -0.565 0.133 -0.062 0.232 -0.063 0.379 -0.064" fill="currentColor"/>
  <path d="m33.992 1.03 0.093 0c0.103 0 0.205 0 0.308 0q0.11 0 0.221 0c0.2 0 0.4 0 0.599 0 0.209 0 0.418 0 0.627 0q0.527 0 1.053 0 0.609 0.001 1.218 0 0.523 0 1.045 0 0.312 0 0.624 0 0.294 0 0.587 0 0.108 0 0.216 0c0.098 0 0.196 0 0.294 0l0.086 0c0.19 0.001 0.373 0.01 0.513 0.15 0.053 0.097 0.077 0.184 0.101 0.293l0.029 0.131 0.031 0.144 0.034 0.154c0.106 0.484 0.207 0.968 0.307 1.453 0.115 0.554 0.233 1.107 0.352 1.661q0.226 1.052 0.448 2.106c0.163 0.777 0.327 1.554 0.492 2.331l0.017 0.079a331.754 331.754 0 0 0 0.451 2.095c0.138 0.629 0.27 1.259 0.402 1.89a284.519 284.519 0 0 0 0.45 2.102c0.144 0.66 0.286 1.321 0.423 1.982 0.118 0.567 0.239 1.134 0.361 1.7q0.244 1.135 0.482 2.272c0.102 0.487 0.205 0.974 0.311 1.46l0.029 0.133a208.232 208.232 0 0 0 0.138 0.628q0.024 0.112 0.049 0.223l0.023 0.102c0.035 0.162 0.067 0.315 0.051 0.482 -0.097 0.097 -0.141 0.085 -0.276 0.089l-0.128 0.004 -0.14 0.003 -0.146 0.004c-0.541 0.015 -1.082 0.018 -1.623 0.019l-0.159 0q-0.372 0.001 -0.744 0.002 -0.426 0.001 -0.852 0.003 -0.333 0.002 -0.665 0.002c-0.132 0 -0.263 0 -0.395 0.001 -0.146 0.001 -0.291 0.001 -0.437 0.001l-0.131 0.001 -0.12 -0.001 -0.104 0c-0.12 -0.024 -0.164 -0.073 -0.24 -0.167 -0.04 -0.11 -0.04 -0.11 -0.07 -0.239l-0.017 -0.072c-0.019 -0.079 -0.037 -0.158 -0.055 -0.237q-0.02 -0.084 -0.04 -0.168c-0.035 -0.148 -0.069 -0.296 -0.104 -0.445 -0.034 -0.146 -0.068 -0.292 -0.102 -0.438q-0.061 -0.259 -0.122 -0.519a82.781 82.781 0 0 0 -0.208 -0.874l-0.021 -0.086a141.221 141.221 0 0 0 -0.1 -0.408l-0.036 -0.145 -0.031 -0.127C39.368 20.704 39.368 20.704 39.368 20.593a2470.028 2470.028 0 0 0 -3.541 0.01l-0.075 0c-0.402 0.001 -0.804 0.002 -1.205 0.003q-0.618 0.001 -1.237 0.004 -0.347 0.001 -0.695 0.002 -0.327 0 -0.654 0.002 -0.12 0.001 -0.24 0c-0.109 0 -0.218 0.001 -0.327 0.001l-0.096 -0.001c-0.173 0.002 -0.286 0.015 -0.427 0.127 -0.225 0.279 -0.354 0.649 -0.499 0.974q-0.07 0.158 -0.141 0.316l-0.035 0.078c-0.095 0.21 -0.197 0.416 -0.301 0.621 -0.104 0.209 -0.202 0.421 -0.299 0.633l-0.063 0.135a156.656 156.656 0 0 0 -0.285 0.617l-0.089 0.191 -0.04 0.088c-0.06 0.13 -0.094 0.198 -0.215 0.279a3.265 3.265 0 0 1 -0.273 0.011l-0.085 0.001c-0.094 0.001 -0.188 0.001 -0.283 0.001q-0.101 0.001 -0.202 0.001c-0.183 0.001 -0.367 0.002 -0.55 0.003 -0.192 0.001 -0.383 0.002 -0.575 0.003q-0.483 0.003 -0.966 0.005 -0.559 0.003 -1.117 0.006 -0.479 0.003 -0.958 0.005 -0.286 0.001 -0.573 0.003 -0.269 0.002 -0.538 0.003 -0.099 0 -0.198 0.001c-0.09 0.001 -0.18 0.001 -0.27 0.001l-0.079 0.001c-0.134 0 -0.232 -0.01 -0.347 -0.083 0.019 -0.222 0.087 -0.39 0.186 -0.589 0.015 -0.031 0.03 -0.061 0.045 -0.093 0.125 -0.257 0.259 -0.51 0.394 -0.762 0.162 -0.303 0.314 -0.61 0.461 -0.92 0.366 -0.771 0.75 -1.533 1.131 -2.295q0.15 -0.299 0.299 -0.598 0.283 -0.565 0.566 -1.131a6673.518 6673.518 0 0 0 0.641 -1.282q0.549 -1.097 1.097 -2.193a2967.269 2967.269 0 0 0 0.864 -1.727c0.088 -0.176 0.176 -0.352 0.265 -0.528A27.643 27.643 0 0 0 28.2 11.781c0.178 -0.381 0.363 -0.757 0.562 -1.128a17.847 17.847 0 0 0 0.406 -0.807c0.207 -0.434 0.42 -0.865 0.635 -1.295l0.119 -0.239q0.16 -0.319 0.319 -0.639l0.2 -0.4 0.034 -0.068 0.068 -0.136q0.316 -0.632 0.632 -1.265 0.271 -0.542 0.542 -1.084a4762.955 4762.955 0 0 1 0.733 -1.466l0.233 -0.466q0.156 -0.313 0.313 -0.626 0.057 -0.115 0.115 -0.23 0.078 -0.156 0.157 -0.313l0.046 -0.092c0.197 -0.392 0.197 -0.392 0.292 -0.465 0.128 -0.039 0.254 -0.036 0.387 -0.036M36.511 7.903c-0.202 0.393 -0.388 0.792 -0.564 1.197 -0.057 0.132 -0.115 0.264 -0.173 0.396l-0.091 0.208a231.534 231.534 0 0 1 -0.487 1.106A4351.537 4351.537 0 0 0 34.656 12.034c-0.509 1.153 -0.509 1.153 -0.758 1.713l-0.052 0.117a77.215 77.215 0 0 1 -0.248 0.554q-0.063 0.14 -0.126 0.28c-0.03 0.066 -0.06 0.131 -0.09 0.197l-0.054 0.12 -0.048 0.106c-0.042 0.1 -0.042 0.1 -0.034 0.241 0.22 0.047 0.44 0.044 0.665 0.045l0.134 0.001q0.182 0.002 0.363 0.003 0.152 0.001 0.303 0.003 0.358 0.003 0.716 0.006 0.369 0.003 0.738 0.006 0.317 0.003 0.634 0.005 0.189 0.001 0.379 0.003 0.211 0.002 0.422 0.003l0.127 0.001 0.116 0.001 0.101 0.001c0.084 -0.004 0.156 -0.017 0.237 -0.041 -0.02 -0.317 -0.087 -0.621 -0.157 -0.929l-0.038 -0.169a192.351 192.351 0 0 0 -0.082 -0.365 341.587 341.587 0 0 1 -0.131 -0.586l-0.023 -0.102 -0.047 -0.208 -0.072 -0.323a537.685 537.685 0 0 1 -0.387 -1.743l-0.059 -0.266q-0.116 -0.524 -0.231 -1.048 -0.068 -0.309 -0.136 -0.618l-0.05 -0.229a277.358 277.358 0 0 0 -0.069 -0.315l-0.02 -0.092A7.347 7.347 0 0 0 36.548 7.903z" fill="currentColor"/>
  <path d="m87.572 1.034 0.089 0c0.098 0 0.195 0 0.293 0l0.211 0q0.285 0 0.571 0c0.199 0 0.398 0 0.598 0q0.502 0 1.003 0 0.58 0 1.16 0 0.498 0 0.996 0 0.297 0 0.595 0 0.28 0 0.559 0 0.103 0 0.205 0 0.14 0 0.28 0l0.082 0c0.436 0.002 0.436 0.002 0.566 0.123 0.066 0.112 0.095 0.201 0.122 0.328 0.01 0.047 0.02 0.095 0.03 0.143l0.033 0.162q0.018 0.089 0.037 0.177c0.037 0.179 0.074 0.359 0.111 0.538a247.415 247.415 0 0 0 0.086 0.419l0.016 0.077 0.033 0.158q0.115 0.558 0.229 1.116 0.233 1.14 0.472 2.278a977.785 977.785 0 0 1 0.57 2.743 1169.32 1169.32 0 0 0 0.719 3.456c0.224 1.07 0.447 2.141 0.668 3.211q0.31 1.5 0.624 2.998a1209.876 1209.876 0 0 1 0.721 3.461q0.035 0.169 0.07 0.337 0.055 0.265 0.109 0.53l0.04 0.193q0.053 0.258 0.105 0.516c0.017 0.084 0.035 0.169 0.053 0.253q0.017 0.081 0.033 0.162l0.03 0.144C99.701 24.675 99.701 24.675 99.626 24.786c-0.103 0.015 -0.103 0.015 -0.237 0.016l-0.075 0.001c-0.083 0.001 -0.166 0.001 -0.249 0.002q-0.089 0.001 -0.178 0.002c-0.161 0.002 -0.323 0.003 -0.484 0.004 -0.135 0.001 -0.269 0.002 -0.404 0.003 -0.318 0.003 -0.635 0.005 -0.953 0.006 -0.328 0.002 -0.656 0.005 -0.983 0.008q-0.422 0.004 -0.844 0.007c-0.168 0.001 -0.336 0.002 -0.504 0.004q-0.237 0.003 -0.474 0.003 -0.087 0 -0.174 0.002c-0.079 0.001 -0.158 0.001 -0.238 0.001l-0.134 0.001c-0.152 -0.029 -0.206 -0.09 -0.303 -0.208 -0.04 -0.103 -0.04 -0.103 -0.064 -0.217l-0.029 -0.131 -0.029 -0.141q-0.016 -0.074 -0.032 -0.148c-0.028 -0.131 -0.056 -0.263 -0.083 -0.395 -0.028 -0.136 -0.057 -0.271 -0.086 -0.407q-0.068 -0.321 -0.136 -0.642a178.363 178.363 0 0 0 -0.22 -1.032c-0.018 -0.084 -0.036 -0.167 -0.053 -0.251l-0.032 -0.149 -0.026 -0.126c-0.025 -0.109 -0.025 -0.109 -0.068 -0.21C92.502 20.704 92.502 20.704 92.502 20.593c-0.215 -0.061 -0.405 -0.085 -0.629 -0.084 -0.032 0 -0.064 0 -0.097 0 -0.107 0 -0.214 0 -0.321 0l-0.231 -0.001c-0.208 -0.001 -0.417 -0.001 -0.625 0q-0.261 0 -0.522 0 -0.615 -0.001 -1.231 0c-0.423 0 -0.847 0 -1.27 -0.001q-0.545 -0.001 -1.09 -0.001c-0.217 0 -0.434 0 -0.651 -0.001q-0.306 -0.001 -0.612 0 -0.112 0 -0.225 0c-0.102 0 -0.204 0 -0.306 0l-0.09 -0.001c-0.169 0.002 -0.28 0.02 -0.413 0.126a2.004 2.004 0 0 0 -0.13 0.241l-0.037 0.078q-0.042 0.088 -0.083 0.176a25.491 25.491 0 0 1 -0.155 0.321c-0.235 0.482 -0.46 0.967 -0.679 1.456 -0.141 0.315 -0.287 0.626 -0.444 0.933 -0.097 0.191 -0.18 0.389 -0.264 0.587l-0.035 0.081 -0.03 0.072c-0.043 0.08 -0.073 0.121 -0.146 0.176a2.152 2.152 0 0 1 -0.274 0.016l-0.085 0.001c-0.095 0.001 -0.189 0.001 -0.284 0.001q-0.102 0.001 -0.203 0.002c-0.184 0.002 -0.369 0.002 -0.553 0.003 -0.193 0.001 -0.385 0.002 -0.578 0.003q-0.485 0.003 -0.971 0.005 -0.562 0.002 -1.123 0.006 -0.482 0.003 -0.963 0.005c-0.192 0.001 -0.384 0.002 -0.576 0.003q-0.271 0.002 -0.541 0.002a33.357 33.357 0 0 0 -0.199 0.001c-0.09 0.001 -0.181 0.001 -0.271 0.001l-0.08 0.001c-0.151 -0.001 -0.238 -0.019 -0.348 -0.125 0.073 -0.243 0.169 -0.465 0.285 -0.691 0.016 -0.032 0.033 -0.065 0.05 -0.098 0.119 -0.234 0.242 -0.466 0.366 -0.697 0.074 -0.138 0.144 -0.277 0.214 -0.418l0.079 -0.158 0.041 -0.082q0.102 -0.205 0.204 -0.409l0.087 -0.174 2.913 -5.826 0.129 -0.257q0.103 -0.205 0.205 -0.411l0.041 -0.082 0.076 -0.151c0.105 -0.21 0.214 -0.417 0.324 -0.624a23.895 23.895 0 0 0 0.277 -0.54l0.039 -0.078q0.041 -0.083 0.083 -0.165l0.163 -0.327 0.128 -0.257q0.546 -1.093 1.092 -2.186 0.302 -0.604 0.604 -1.209 0.265 -0.53 0.53 -1.06 0.14 -0.28 0.279 -0.559 0.131 -0.263 0.263 -0.526 0.048 -0.096 0.096 -0.191c0.169 -0.339 0.341 -0.677 0.52 -1.011a20.519 20.519 0 0 0 0.517 -1.035c0.115 -0.247 0.235 -0.49 0.363 -0.731 0.18 -0.339 0.352 -0.682 0.522 -1.026q0.075 -0.152 0.151 -0.304c0.143 -0.287 0.285 -0.574 0.428 -0.862q0.132 -0.266 0.264 -0.531 0.05 -0.101 0.1 -0.201c0.046 -0.093 0.092 -0.186 0.139 -0.28l0.041 -0.083c0.133 -0.264 0.133 -0.264 0.262 -0.357 0.187 -0.035 0.371 -0.042 0.561 -0.042M89.868 7.792c-0.153 0.297 -0.293 0.599 -0.425 0.906 -0.056 0.13 -0.112 0.259 -0.169 0.389l-0.036 0.083c-0.141 0.323 -0.285 0.644 -0.429 0.965 -0.187 0.416 -0.372 0.833 -0.552 1.252 -0.189 0.44 -0.385 0.878 -0.582 1.315 -0.233 0.517 -0.466 1.035 -0.693 1.555 -0.047 0.108 -0.095 0.215 -0.142 0.323l-0.093 0.211 -0.043 0.095c-0.075 0.172 -0.126 0.324 -0.138 0.512 0.059 0.059 0.12 0.042 0.202 0.042l0.108 0 0.12 0 0.125 0q0.207 0 0.414 0 0.144 0 0.288 0 0.302 0 0.605 0 0.348 0 0.695 0 0.336 0 0.671 0 0.142 0 0.284 0c0.488 0 0.973 -0.001 1.459 -0.042 -0.025 -0.225 -0.065 -0.444 -0.113 -0.665l-0.023 -0.108q-0.038 -0.177 -0.077 -0.355l-0.054 -0.252q-0.072 -0.334 -0.144 -0.667 -0.071 -0.328 -0.142 -0.657a3315.127 3315.127 0 0 0 -0.309 -1.433 5396.668 5396.668 0 0 1 -0.299 -1.386 323.368 323.368 0 0 1 -0.405 -1.906c-0.021 -0.108 -0.021 -0.108 -0.103 -0.179" fill="currentColor"/>
  <path d="M126.719 0.547c0.027 0 0.055 0 0.083 0 0.092 0 0.183 0 0.275 0q0.098 0 0.197 -0.001c0.178 -0.001 0.357 -0.001 0.535 0q0.223 0 0.446 0 0.527 -0.001 1.053 0c0.363 0 0.725 0 1.088 -0.001q0.466 -0.001 0.933 -0.001c0.186 0 0.372 0 0.557 -0.001q0.262 -0.001 0.524 0 0.096 0 0.193 0c0.087 0 0.175 0 0.262 0l0.078 -0.001c0.097 0.001 0.173 0.007 0.26 0.052 0.066 0.122 0.055 0.25 0.053 0.385l0 0.097c0 0.108 0 0.216 -0.001 0.324v0.231c0 0.21 -0.001 0.42 -0.001 0.629 -0.001 0.219 -0.001 0.438 -0.001 0.657 0 0.415 -0.001 0.83 -0.002 1.245 -0.001 0.473 -0.002 0.945 -0.002 1.418q-0.002 1.458 -0.006 2.917l0.133 0a3831.477 3831.477 0 0 1 3.52 -0.004l0.078 0q0.622 -0.001 1.244 -0.002 0.638 -0.001 1.276 -0.001 0.358 0 0.717 -0.001 0.337 -0.001 0.674 -0.001 0.124 0 0.248 0c0.113 0 0.225 0 0.338 0l0.1 -0.001 0.091 0 0.079 0c0.088 0.011 0.147 0.037 0.222 0.083 0.055 0.111 0.042 0.211 0.043 0.334l0 0.082q0.001 0.137 0.001 0.273l0.001 0.195q0.001 0.266 0.001 0.532 0 0.166 0.001 0.332 0.001 0.519 0.002 1.039 0.001 0.6 0.003 1.2 0.002 0.463 0.002 0.927c0 0.185 0 0.369 0.001 0.554q0.001 0.261 0.001 0.521 0 0.096 0.001 0.191c0.001 0.087 0 0.174 0 0.261l0 0.148c-0.022 0.154 -0.046 0.213 -0.167 0.312 -0.112 0.027 -0.221 0.025 -0.335 0.023l-0.104 0.001c-0.115 0.001 -0.23 0 -0.345 -0.001q-0.124 0 -0.247 0.001 -0.266 0.001 -0.533 0c-0.281 -0.001 -0.561 0 -0.842 0.001q-0.59 0.001 -1.18 0.001a897.75 897.75 0 0 0 -1.29 0q-0.623 0.001 -1.246 0.002 -0.419 0.001 -0.837 0 -0.26 0 -0.52 0 -0.121 0 -0.242 0c-0.11 0 -0.22 0 -0.329 0l-0.097 -0.001 -0.089 0 -0.077 0c-0.088 0.011 -0.146 0.035 -0.22 0.083 -0.034 0.101 -0.042 0.16 -0.042 0.264l0 0.094 0 0.104 0 0.11q-0.001 0.184 -0.001 0.367l-0.001 0.263q-0.001 0.283 -0.001 0.567 -0.001 0.41 -0.002 0.819 -0.002 0.665 -0.004 1.33l0 0.08q-0.001 0.565 -0.003 1.13l0 0.08 0 0.08q-0.001 0.662 -0.004 1.325 -0.001 0.445 -0.002 0.891 -0.001 0.277 -0.002 0.553 0 0.129 0 0.257a72.243 72.243 0 0 1 -0.001 0.35l0 0.104 -0.001 0.094 0 0.082C133.243 24.6 133.243 24.6 133.169 24.712c-0.091 0.011 -0.173 0.015 -0.265 0.014l-0.084 0c-0.093 0 -0.186 0 -0.279 -0.001q-0.1 0 -0.199 0c-0.181 0 -0.362 0 -0.542 0 -0.189 0 -0.378 0 -0.567 0q-0.476 0 -0.952 -0.001c-0.367 -0.001 -0.734 -0.001 -1.101 -0.001q-0.529 0 -1.058 0 -0.225 0 -0.451 0 -0.265 0 -0.531 -0.001a48.681 48.681 0 0 0 -0.195 0c-0.089 0 -0.177 0 -0.266 -0.001l-0.079 0c-0.178 -0.002 -0.178 -0.002 -0.26 -0.084 -0.009 -0.067 -0.009 -0.067 -0.009 -0.149l-0.001 -0.095 0.001 -0.105 0 -0.111c0 -0.124 0 -0.247 0 -0.371l0 -0.265q0 -0.286 0 -0.571c0 -0.275 0 -0.551 -0.001 -0.826q-0.001 -0.671 -0.002 -1.341l0 -0.081q-0.001 -0.57 -0.001 -1.14v-0.162q0 -0.668 -0.002 -1.336c-0.001 -0.25 -0.001 -0.5 -0.001 -0.75q0 -0.353 -0.001 -0.706 0 -0.13 0 -0.259c0 -0.118 0 -0.236 -0.001 -0.353l0.001 -0.104c-0.002 -0.137 -0.005 -0.228 -0.074 -0.349 -0.145 -0.081 -0.277 -0.074 -0.441 -0.072l-0.107 -0.001c-0.119 -0.001 -0.238 0 -0.357 0q-0.128 -0.001 -0.256 -0.001c-0.232 -0.001 -0.463 -0.001 -0.695 -0.001 -0.242 0 -0.484 -0.001 -0.726 -0.002q-0.609 -0.002 -1.218 -0.003a720.723 720.723 0 0 1 -1.333 -0.003q-0.194 -0.001 -0.388 -0.001A1964.03 1964.03 0 0 0 117.511 15.473c-0.088 -0.138 -0.084 -0.257 -0.084 -0.418l0 -0.082c0 -0.091 0 -0.182 0 -0.273q0 -0.098 0 -0.196c0 -0.177 0 -0.355 0 -0.532 0 -0.185 0 -0.371 0 -0.556q0 -0.467 0 -0.934 0.001 -0.54 0 -1.081 -0.001 -0.464 0 -0.927 0 -0.277 0 -0.554 0 -0.26 0 -0.521 0 -0.096 0 -0.191a39.517 39.517 0 0 1 0 -0.261l0 -0.148C117.437 8.683 117.437 8.683 117.511 8.571c0.068 -0.019 0.068 -0.019 0.149 -0.025l0.091 -0.007c0.152 -0.007 0.303 -0.01 0.455 -0.009l0.106 0q0.174 0 0.348 0l0.25 0q0.339 0 0.677 0 0.354 0 0.709 0 0.594 0 1.189 0.001 0.612 0.001 1.224 0.001h0.076l0.379 0q1.57 0.001 3.141 0.002l0 -0.123q0.003 -1.482 0.008 -2.964 0.003 -0.717 0.004 -1.434 0.001 -0.624 0.004 -1.249 0.001 -0.331 0.002 -0.662 0 -0.311 0.002 -0.622 0.001 -0.115 0 -0.229c0 -0.104 0.001 -0.208 0.001 -0.311l-0.001 -0.093c0.001 -0.084 0.001 -0.084 0.015 -0.216 0.132 -0.088 0.225 -0.085 0.378 -0.084" fill="currentColor"/>
  <path d="m15.341 0.069 0.138 0 0.143 0 0.143 0 0.138 0 0.125 0c0.104 0.004 0.197 0.02 0.299 0.042 0.069 0.003 0.138 0.005 0.206 0.007 2.333 0.063 5.106 0.697 7.005 2.1a5.454 5.454 0 0 0 0.165 0.115c0.081 0.06 0.136 0.107 0.193 0.189 0.005 0.08 0.005 0.08 -0.007 0.169l-0.013 0.1c-0.028 0.168 -0.062 0.335 -0.099 0.501 -0.104 0.485 -0.197 0.971 -0.289 1.459q-0.043 0.228 -0.087 0.456c-0.084 0.439 -0.167 0.879 -0.248 1.319q-0.045 0.242 -0.09 0.485 -0.021 0.112 -0.041 0.223a45.082 45.082 0 0 1 -0.057 0.307l-0.016 0.089c-0.037 0.191 -0.1 0.331 -0.205 0.495 -0.276 -0.015 -0.489 -0.187 -0.709 -0.34C20.821 6.939 19.441 6.5 17.996 6.234l-0.108 -0.02c-1.025 -0.183 -2.181 -0.186 -3.195 0.057l-0.11 0.025c-0.458 0.107 -0.905 0.234 -1.337 0.42l-0.082 0.035C12.493 7.043 11.9 7.417 11.354 7.903l-0.098 0.077c-0.079 0.064 -0.142 0.128 -0.208 0.206 -0.072 0.084 -0.144 0.167 -0.22 0.248 -1.055 1.129 -1.584 2.816 -1.598 4.343l-0.001 0.096c-0.009 0.993 -0.009 0.993 0.158 1.968l0.024 0.096c0.264 1.027 0.77 1.916 1.497 2.687l0.069 0.075c1.22 1.28 3.066 1.753 4.777 1.815 1.647 0.038 3.225 -0.458 4.731 -1.077l0.071 -0.029q0.097 -0.04 0.194 -0.079C20.853 18.293 20.853 18.293 20.964 18.293c0.097 0.243 0.059 0.434 0.012 0.687l-0.023 0.131a57.624 57.624 0 0 1 -0.065 0.357c-0.023 0.127 -0.046 0.254 -0.069 0.381q-0.044 0.247 -0.089 0.495a163.929 163.929 0 0 0 -0.226 1.276q-0.056 0.319 -0.112 0.639 -0.046 0.262 -0.091 0.525 -0.043 0.249 -0.087 0.498 -0.016 0.092 -0.032 0.184c-0.132 0.769 -0.132 0.769 -0.322 0.933 -0.183 0.127 -0.397 0.2 -0.606 0.274l-0.108 0.038c-1.192 0.416 -2.478 0.659 -3.74 0.699 -0.119 0.001 -0.119 0.001 -0.229 0.044 -0.107 0.004 -0.214 0.005 -0.321 0.005l-0.096 0q-0.1 0 -0.2 0c-0.102 0 -0.204 0 -0.305 0q-0.097 0 -0.195 0l-0.092 0c-0.147 -0.001 -0.281 -0.009 -0.424 -0.042a4.49 4.49 0 0 0 -0.155 -0.015C11.819 25.272 10.254 24.917 8.831 24.229l-0.08 -0.038C8.057 23.857 7.401 23.475 6.79 23.005l-0.084 -0.063C6.053 22.444 5.436 21.876 4.935 21.224a31.242 31.242 0 0 0 -0.096 -0.118C2.77 18.56 2.074 15.046 2.397 11.836 2.544 10.438 2.89 9.047 3.451 7.755l0.038 -0.089c0.493 -1.136 1.105 -2.287 1.957 -3.198a8.534 8.534 0 0 0 0.203 -0.229c0.142 -0.163 0.292 -0.318 0.445 -0.471l0.084 -0.084C6.385 3.48 6.598 3.295 6.827 3.117q0.095 -0.08 0.19 -0.16C7.412 2.634 7.838 2.34 8.274 2.078l0.076 -0.046C10.31 0.858 12.499 0.189 14.787 0.118c0.123 -0.003 0.123 -0.003 0.215 -0.025 0.115 -0.021 0.222 -0.023 0.338 -0.023" fill="currentColor"/>
  <path d="m106.11 1.034 0.077 0q0.129 0 0.257 0l0.184 0q0.25 -0.001 0.501 0 0.209 0 0.418 0 0.493 0 0.986 0 0.509 0 1.017 -0.001 0.437 -0.001 0.873 -0.001 0.261 0 0.522 0 0.245 -0.001 0.491 0 0.09 0 0.18 0c0.082 0 0.164 0 0.246 0l0.139 0c0.141 0.01 0.255 0.04 0.389 0.083 -0.026 0.413 -0.086 0.822 -0.143 1.232l-0.032 0.233q-0.043 0.311 -0.086 0.621 -0.045 0.323 -0.089 0.645 -0.087 0.635 -0.175 1.27l-0.086 0.622a2544.46 2544.46 0 0 1 -0.248 1.792q-0.04 0.289 -0.08 0.578c-0.072 0.522 -0.145 1.044 -0.219 1.567l-0.011 0.08 -0.047 0.331 -0.048 0.343a1035.075 1035.075 0 0 0 -0.411 2.947l-0.01 0.075 -0.021 0.15a1048.544 1048.544 0 0 1 -0.167 1.206 2079.092 2079.092 0 0 0 -0.244 1.76l-0.056 0.408q-0.06 0.431 -0.119 0.862a203.112 203.112 0 0 1 -0.05 0.359q-0.027 0.196 -0.054 0.391l-0.016 0.115c-0.027 0.201 -0.041 0.393 -0.036 0.596 0.111 0.055 0.224 0.043 0.346 0.043l0.086 0q0.143 0.001 0.286 0.001l0.205 0.001q0.221 0.001 0.442 0.002 0.349 0.001 0.698 0.003 0.741 0.003 1.481 0.006c0.533 0.002 1.066 0.004 1.599 0.007q0.347 0.002 0.694 0.003 0.216 0.001 0.431 0.002 0.1 0 0.201 0.001 0.136 0 0.273 0.001h0.081c0.182 0.001 0.182 0.001 0.265 0.043 0.055 0.254 0.022 0.486 -0.014 0.741l-0.018 0.132q-0.024 0.179 -0.049 0.357c-0.017 0.125 -0.034 0.25 -0.051 0.376q-0.032 0.235 -0.063 0.47a186.6 186.6 0 0 0 -0.149 1.122l-0.02 0.156q-0.039 0.3 -0.078 0.6 -0.027 0.207 -0.054 0.414l-0.016 0.122q-0.022 0.167 -0.046 0.334l-0.016 0.115 -0.018 0.111 -0.015 0.098c-0.03 0.1 -0.053 0.133 -0.136 0.195 -0.101 0.014 -0.101 0.014 -0.226 0.014l-0.144 0.001 -0.16 -0.001q-0.084 0 -0.169 0.001c-0.155 0 -0.31 0 -0.465 0 -0.167 0 -0.334 0 -0.501 0 -0.327 0 -0.655 0 -0.982 0a570.226 570.226 0 0 0 -0.913 0l-0.23 0c-0.721 0 -1.442 0 -2.163 -0.001q-0.928 -0.001 -1.857 0a1650.718 1650.718 0 0 1 -2.384 0l-0.114 0q-0.399 0 -0.797 0 -0.486 0 -0.972 0 -0.248 0 -0.496 0 -0.227 0 -0.454 0a22.819 22.819 0 0 0 -0.164 0c-0.074 0 -0.149 0 -0.223 -0.001l-0.125 0c-0.133 -0.016 -0.223 -0.056 -0.338 -0.125 -0.101 -0.242 -0.021 -0.566 0.018 -0.816l0.019 -0.129c0.02 -0.136 0.04 -0.271 0.061 -0.407q0.019 -0.131 0.039 -0.262 0.04 -0.273 0.081 -0.546c0.044 -0.294 0.086 -0.588 0.128 -0.881a867.992 867.992 0 0 1 0.274 -1.906l0.076 -0.524c0.178 -1.231 0.355 -2.462 0.531 -3.693q0.15 -1.05 0.303 -2.1c0.139 -0.955 0.277 -1.91 0.415 -2.865l0.119 -0.824 0.017 -0.116q0.107 -0.741 0.215 -1.483l0.012 -0.082 0.058 -0.397q0.183 -1.261 0.363 -2.522a3129.269 3129.269 0 0 1 0.161 -1.125l0.011 -0.08 0.07 -0.491a640.503 640.503 0 0 1 0.117 -0.816q0.027 -0.19 0.054 -0.381 0.03 -0.208 0.06 -0.417l0.017 -0.123c0.058 -0.401 0.058 -0.401 0.124 -0.574 0.128 -0.043 0.226 -0.042 0.361 -0.042" fill="currentColor"/>
</svg>
