<?xml version="1.0" encoding="UTF-8"?>
<svg version="1.1" xmlns="http://www.w3.org/2000/svg" width="318" height="137">
<path d="M0 0 C0.76441406 -0.00515625 1.52882812 -0.0103125 2.31640625 -0.015625 C4.4375 0.25 4.4375 0.25 7.4375 2.25 C7.1075 3.57 6.7775 4.89 6.4375 6.25 C5.138125 6.270625 3.83875 6.29125 2.5 6.3125 C-6.08914468 7.29527047 -12.15639317 14.25476534 -17.52734375 20.5546875 C-30.7437784 38.05821899 -44.07590116 64.19382935 -43.75 86.5625 C-43.74355469 87.54863281 -43.73710938 88.53476563 -43.73046875 89.55078125 C-43.5823429 91.93112918 -43.23893839 93.9717555 -42.5625 96.25 C-37.52824726 97.01608194 -34.96163381 96.20009728 -30.75 93.3125 C-10.12847759 77.72972062 5.53064189 60.00374639 10.4375 34.25 C10.83215573 32.29142901 11.22783257 30.3330632 11.625 28.375 C11.89686489 27.00020359 12.16814586 25.62529053 12.4375 24.25 C14.8125 23.625 14.8125 23.625 17.4375 23.25 C19.4375 25.25 19.4375 25.25 19.75 28.9375 C19.61333253 35.90754099 18.57407892 44.97684215 15.4375 51.25 C15.20250385 53.36496536 14.97057376 55.48033853 14.7578125 57.59765625 C14.29983737 61.38991376 13.57124387 65.11942925 12.83984375 68.8671875 C12.35425218 71.34026407 12.35425218 71.34026407 12.4375 74.25 C13.30375 73.610625 14.17 72.97125 15.0625 72.3125 C18.47628505 70.22629802 20.47703001 69.41853064 24.4375 69.25 C28.46750389 70.30547721 30.67527051 72.18085612 33.4375 75.25 C34.7575 73.27 36.0775 71.29 37.4375 69.25 C40.52720393 69.55549882 41.41764895 70.22804967 43.54296875 72.578125 C44.57357422 74.02445313 44.57357422 74.02445313 45.625 75.5 C46.31980469 76.45390625 47.01460938 77.4078125 47.73046875 78.390625 C49.36920292 81.13559848 50.05316514 83.10648505 50.4375 86.25 C47.4375 87.25 47.4375 87.25 44.875 86.1875 C41.88226659 83.80866062 41.33116408 81.90589852 40.4375 78.25 C39.7775 78.25 39.1175 78.25 38.4375 78.25 C38.26734375 78.88808594 38.0971875 79.52617188 37.921875 80.18359375 C37.67953125 81.00988281 37.4371875 81.83617188 37.1875 82.6875 C36.95546875 83.51121094 36.7234375 84.33492188 36.484375 85.18359375 C35.4375 87.25 35.4375 87.25 33.328125 88.03515625 C32.70421875 88.10605469 32.0803125 88.17695312 31.4375 88.25 C31.07398437 87.6003125 30.71046875 86.950625 30.3359375 86.28125 C29.83320312 85.4459375 29.33046875 84.610625 28.8125 83.75 C28.32523437 82.9146875 27.83796875 82.079375 27.3359375 81.21875 C25.54553436 78.99172704 25.54553436 78.99172704 22.57421875 78.65625 C18.39892684 79.44659168 16.82085939 81.23290361 13.875 84.25 C9.09833967 89.1282914 9.09833967 89.1282914 5.72265625 89.75 C3.4375 89.25 3.4375 89.25 1.4375 86.25 C1.83700573 80.45716697 3.09282098 74.8898188 4.4375 69.25 C4.1075 69.91 3.7775 70.57 3.4375 71.25 C2.7775 71.25 2.1175 71.25 1.4375 71.25 C1.24414062 71.92160156 1.05078125 72.59320313 0.8515625 73.28515625 C-1.13097187 77.44190649 -4.03315604 80.37114047 -7.1875 83.6875 C-7.77917969 84.33009766 -8.37085938 84.97269531 -8.98046875 85.63476562 C-13.0940567 90.01045043 -17.43894294 94.06947739 -22.5625 97.25 C-23.2225 97.25 -23.8825 97.25 -24.5625 97.25 C-24.8925 98.24 -25.2225 99.23 -25.5625 100.25 C-26.2225 100.25 -26.8825 100.25 -27.5625 100.25 C-27.76875 100.848125 -27.975 101.44625 -28.1875 102.0625 C-30.16718364 105.2119967 -32.09357742 105.96521386 -35.5625 107.25 C-39.91369158 107.96942012 -42.81456845 107.60958248 -46.8125 105.6875 C-51.68134257 101.371935 -53.63423357 97.46803489 -54.4375 91.125 C-54.94596537 82.5520374 -53.37315152 74.31860037 -50.5625 66.25 C-50.30210938 65.37601562 -50.04171875 64.50203125 -49.7734375 63.6015625 C-43.78946684 44.08375167 -32.56562151 26.9599253 -18.9375 11.9375 C-18.25445801 11.18158569 -18.25445801 11.18158569 -17.55761719 10.41040039 C-12.55662997 4.98420234 -7.71286851 -0.05220216 0 0 Z " fill="#474746" transform="translate(54.5625,9.75)"/>
<path d="M0 0 C2.92656611 1.42576297 3.11211829 2.17294839 4.25 5.125 C4.95766828 7.27928299 5.4375 8.91889821 5.4375 11.1875 C10.26694851 13.68549061 13.94057101 14.6489421 19.4375 14.1875 C22.82245286 12.48631737 22.82245286 12.48631737 26 10.1875 C30.3735181 7.16331462 33.04878691 5.47462615 38.4375 6.1875 C41.1573713 8.26319125 42.25329922 9.92111965 42.75 13.3359375 C42.90040963 19.44632869 42.18301878 25.55208384 41.5625 31.625 C41.44527588 32.79712036 41.44527588 32.79712036 41.32568359 33.99291992 C40.89060783 37.83165248 40.222993 40.78541198 38.4375 44.1875 C38.7675 45.1775 39.0975 46.1675 39.4375 47.1875 C39.18553258 49.25826675 38.86171391 51.32055955 38.5 53.375 C37.25817356 61.35102618 37.24922856 69.13366629 37.4375 77.1875 C40.9110921 75.7681828 42.39036927 74.21811784 44.375 71.0625 C44.88933594 70.26585938 45.40367187 69.46921875 45.93359375 68.6484375 C46.89806296 67.07021516 47.83109566 65.47208905 48.72265625 63.8515625 C51.73889407 58.4785858 51.73889407 58.4785858 55.4375 56.9375 C61.00897121 57.40178927 63.59169911 61.31780464 67.0625 65.3125 C67.63226563 65.99570313 68.20203125 66.67890625 68.7890625 67.3828125 C70.50382331 69.40522256 70.50382331 69.40522256 73.4375 71.1875 C79.21667114 70.96522419 82.61849269 69.06036974 87.4375 66.1875 C88.4275 66.1875 89.4175 66.1875 90.4375 66.1875 C89.4475 68.1675 89.4475 68.1675 88.4375 70.1875 C87.7775 70.1875 87.1175 70.1875 86.4375 70.1875 C86.4375 70.8475 86.4375 71.5075 86.4375 72.1875 C78.02745533 77.07784791 78.02745533 77.07784791 72.8125 77.4375 C67.44173091 75.44832626 63.74581326 71.67068548 59.890625 67.5234375 C58.3616074 65.9348294 58.3616074 65.9348294 55.4375 65.1875 C55.23125 65.991875 55.025 66.79625 54.8125 67.625 C53.03042361 72.24219793 50.57578288 76.34992583 47.4375 80.1875 C46.7775 80.1875 46.1175 80.1875 45.4375 80.1875 C45.251875 80.785625 45.06625 81.38375 44.875 82 C42.6812103 85.33837564 40.1847837 86.0442609 36.4375 87.1875 C33.625 86.625 33.625 86.625 31.4375 85.1875 C23.69126841 72.5607341 30.24169874 48.62078912 32.375 34.75 C32.51405762 33.84576294 32.65311523 32.94152588 32.79638672 32.0098877 C33.19897427 29.42325091 33.61007186 26.83821218 34.02734375 24.25390625 C34.15346542 23.46852982 34.2795871 22.68315338 34.40953064 21.87397766 C35.31573001 16.43103998 35.31573001 16.43103998 36.4375 14.1875 C35.08205078 15.03634766 35.08205078 15.03634766 33.69921875 15.90234375 C32.50791365 16.6433918 31.31650181 17.38426827 30.125 18.125 C29.23264648 18.68477539 29.23264648 18.68477539 28.32226562 19.25585938 C22.545855 22.83787937 18.14950802 23.97534241 11.4375 23.1875 C7.9868289 22.08999488 4.71574799 20.7205429 1.4375 19.1875 C1.59976074 19.94023193 1.76202148 20.69296387 1.92919922 21.46850586 C2.62424435 26.55381925 2.58005046 31.56470906 2.5703125 36.69140625 C2.57126923 37.80627914 2.57222595 38.92115204 2.57321167 40.06980896 C2.5738911 42.42748064 2.57205335 44.7851542 2.56787109 47.14282227 C2.56255495 50.71309736 2.56780583 54.28324461 2.57421875 57.85351562 C2.57355724 60.15364611 2.57227457 62.45377651 2.5703125 64.75390625 C2.57233673 65.80542374 2.57436096 66.85694122 2.57644653 67.94032288 C2.55342827 75.39408532 2.09786079 82.76392452 1.4375 90.1875 C-1.0375 90.6825 -1.0375 90.6825 -3.5625 91.1875 C-4.70511852 79.1289919 -4.8819644 67.0736641 -5.11474609 54.97119141 C-5.29857582 45.63972463 -5.53601825 36.36480798 -6.33544922 27.06152344 C-6.70402867 22.39602102 -6.82355156 17.74087809 -6.875 13.0625 C-6.90400391 12.1446875 -6.93300781 11.226875 -6.96289062 10.28125 C-7.02550285 3.71178264 -7.02550285 3.71178264 -4.703125 1.08203125 C-2.5625 0.1875 -2.5625 0.1875 0 0 Z " fill="#535352" transform="translate(224.5625,14.8125)"/>
<path d="M0 0 C0.66 0.66 1.32 1.32 2 2 C1.9174375 6.37581254 1.53673023 8.40822052 -1.4375 11.6875 C-2.283125 12.450625 -3.12875 13.21375 -4 14 C-4.5259375 15.11375 -4.5259375 15.11375 -5.0625 16.25 C-6 18 -6 18 -8.125 18.75 C-9.053125 18.87375 -9.053125 18.87375 -10 19 C-9.46884894 14.48521602 -7.63379708 11.65333143 -5 8 C-7.44480079 8.18828772 -7.44480079 8.18828772 -10 9 C-10.30035156 9.60070313 -10.60070312 10.20140625 -10.91015625 10.8203125 C-12.22683554 13.45367109 -13.7993929 14.76029832 -16.0625 16.625 C-18.97875712 18.95485552 -18.97875712 18.95485552 -21 22 C-21.66 22 -22.32 22 -23 22 C-23.33 22.99 -23.66 23.98 -24 25 C-24.66 25 -25.32 25 -26 25 C-26.268125 25.57234375 -26.53625 26.1446875 -26.8125 26.734375 C-28.04132636 29.07884634 -29.42522176 31.12404938 -31 33.25 C-31.515625 33.95640625 -32.03125 34.6628125 -32.5625 35.390625 C-33.036875 35.92171875 -33.51125 36.4528125 -34 37 C-34.66 37 -35.32 37 -36 37 C-36.0825 37.969375 -36.165 38.93875 -36.25 39.9375 C-36.67234402 43.08301741 -37.62470689 45.43029974 -39.0625 48.25 C-41.55785047 53.46591307 -41.38197834 58.32337748 -41 64 C-40.26394531 63.36191406 -39.52789062 62.72382812 -38.76953125 62.06640625 C-37.79371094 61.24011719 -36.81789062 60.41382813 -35.8125 59.5625 C-34.84957031 58.73878906 -33.88664062 57.91507813 -32.89453125 57.06640625 C-30.07774967 55.0555055 -28.41739498 54.23672896 -25 54 C-24 55 -24 55 -23.61328125 57.24609375 C-24.17454902 61.24300057 -26.16363666 62.47803556 -29.1875 65.0625 C-30.15042969 65.89910156 -31.11335938 66.73570313 -32.10546875 67.59765625 C-33.95848544 69.13558508 -35.83452936 70.64643287 -37.73828125 72.12109375 C-40.19039644 73.97624254 -40.19039644 73.97624254 -42 77 C-42.0230866 78.92561958 -42.0230866 78.92561958 -41.625 81 C-41.1258683 84.66230364 -40.8659468 88.23995352 -40.8125 91.9375 C-40.79832031 92.85402344 -40.78414062 93.77054687 -40.76953125 94.71484375 C-41 97 -41 97 -43 99 C-45.5 99.25 -45.5 99.25 -48 99 C-51.23019934 95.76980066 -50.79645711 91.15604696 -51.2109375 86.765625 C-51.53964399 82.42720433 -51.53964399 82.42720433 -54 79 C-53.54545455 73.54545455 -53.54545455 73.54545455 -51 71 C-50.62845192 68.52891036 -50.35020464 66.10940495 -50.125 63.625 C-47.66299429 41.00294548 -34.46396033 20.74392713 -16.92578125 6.50390625 C-7.50832073 -0.40223147 -7.50832073 -0.40223147 0 0 Z " fill="#4C4C4B" transform="translate(174,0)"/>
<path d="M0 0 C0.44601563 0.50917969 0.89203125 1.01835938 1.3515625 1.54296875 C2.92551827 3.25765523 2.92551827 3.25765523 5.33984375 3.00390625 C6.62568359 2.78541016 6.62568359 2.78541016 7.9375 2.5625 C10.70755471 2.09873518 12.5346542 1.86542264 15.2421875 2.6484375 C17.69440486 4.53392018 17.74934419 6.04746748 18.1875 9.0625 C18.45274003 12.3327893 18.45274003 12.3327893 20 15 C21.32 13.35 22.64 11.7 24 10 C26.3125 10.1875 26.3125 10.1875 29 11 C30.03013277 12.64821244 31.03114628 14.31503702 32 16 C34.8300204 17.18678275 36.83999335 17 40 17 C38.84826645 19.46800047 37.95216435 21.04783565 36 23 C33.125 23.375 33.125 23.375 30 23 C27.625 21 27.625 21 26 19 C25.60167969 19.83144531 25.60167969 19.83144531 25.1953125 20.6796875 C24.66550781 21.76636719 24.66550781 21.76636719 24.125 22.875 C23.60292969 23.95394531 23.60292969 23.95394531 23.0703125 25.0546875 C22 27 22 27 20 29 C16.875 29.125 16.875 29.125 14 29 C12.34502644 25.69005287 12.89915665 22.00877 12.9375 18.375 C12.94201172 17.57320312 12.94652344 16.77140625 12.95117188 15.9453125 C12.96296832 13.96350994 12.98090395 11.98174567 13 10 C10.01630716 10.53841693 10.01630716 10.53841693 7 12 C5.62235784 14.78890694 5.62235784 14.78890694 5 18.125 C3.39878986 24.07517597 1.66946672 28.81971551 -3 33 C-6.5625 34.6875 -6.5625 34.6875 -10 35 C-13.60944467 33.47601225 -14.81083265 32.28375102 -17 29 C-18.46152174 19.73803083 -15.25575671 11.83604048 -9.875 4.4375 C-6.88812287 0.59170224 -4.96930788 -0.48481053 0 0 Z M-3 7 C-6.87889774 10.32476949 -9.50861944 14.11679393 -11 19 C-11.03356678 22.09293918 -10.64333618 24.97911706 -10 28 C-6.90589467 27.06916831 -5.32823029 26.45790152 -3.41796875 23.79296875 C-3.01191406 22.93316406 -2.60585937 22.07335937 -2.1875 21.1875 C-1.76855469 20.33542969 -1.34960938 19.48335937 -0.91796875 18.60546875 C0.05486931 15.84426454 0.28835613 13.90311086 0 11 C-1.39957197 8.71515694 -1.39957197 8.71515694 -3 7 Z " fill="#555554" transform="translate(161,70)"/>
<path d="M0 0 C1.125 3.75 1.125 3.75 0 6 C-0.23499615 8.11496536 -0.46692624 10.23033853 -0.6796875 12.34765625 C-1.13766263 16.13991376 -1.86625613 19.86942925 -2.59765625 23.6171875 C-3.08324782 26.09026407 -3.08324782 26.09026407 -3 29 C-2.13375 28.360625 -1.2675 27.72125 -0.375 27.0625 C3.03878505 24.97629802 5.03953001 24.16853064 9 24 C13.03000389 25.05547721 15.23777051 26.93085612 18 30 C19.32 28.02 20.64 26.04 22 24 C25.08970393 24.30549882 25.98014895 24.97804967 28.10546875 27.328125 C28.79253906 28.29234375 29.47960937 29.2565625 30.1875 30.25 C30.88230469 31.20390625 31.57710937 32.1578125 32.29296875 33.140625 C33.93170292 35.88559848 34.61566514 37.85648505 35 41 C32 42 32 42 29.4375 40.9375 C26.44476659 38.55866062 25.89366408 36.65589852 25 33 C24.34 33 23.68 33 23 33 C22.82984375 33.63808594 22.6596875 34.27617188 22.484375 34.93359375 C22.24203125 35.75988281 21.9996875 36.58617187 21.75 37.4375 C21.51796875 38.26121094 21.2859375 39.08492187 21.046875 39.93359375 C20 42 20 42 17.890625 42.78515625 C16.95476562 42.89150391 16.95476562 42.89150391 16 43 C15.63648437 42.3503125 15.27296875 41.700625 14.8984375 41.03125 C14.14433594 39.77828125 14.14433594 39.77828125 13.375 38.5 C12.64410156 37.24703125 12.64410156 37.24703125 11.8984375 35.96875 C10.10803436 33.74172704 10.10803436 33.74172704 7.13671875 33.40625 C2.96142684 34.19659168 1.38335939 35.98290361 -1.5625 39 C-6.33916033 43.8782914 -6.33916033 43.8782914 -9.71484375 44.5 C-12 44 -12 44 -14 41 C-13.64560155 35.86122243 -12.61458587 30.97986142 -11.40234375 25.98046875 C-10.90045554 23.84683008 -10.90045554 23.84683008 -11 21 C-10.37400383 19.31763529 -9.71247732 17.6476038 -9 16 C-6 17 -6 17 -5 19 C-2.92340475 14.84680949 -2.6246516 10.95997228 -2.34375 6.40234375 C-1.98489259 3.89441982 -1.25172565 2.18547261 0 0 Z " fill="#5C5C5B" transform="translate(70,55)"/>
<path d="M0 0 C0.66 0.66 1.32 1.32 2 2 C1.9174375 6.37581254 1.53673023 8.40822052 -1.4375 11.6875 C-2.283125 12.450625 -3.12875 13.21375 -4 14 C-4.5259375 15.11375 -4.5259375 15.11375 -5.0625 16.25 C-6 18 -6 18 -8.125 18.75 C-9.053125 18.87375 -9.053125 18.87375 -10 19 C-9.46884894 14.48521602 -7.63379708 11.65333143 -5 8 C-7.44480079 8.18828772 -7.44480079 8.18828772 -10 9 C-10.30035156 9.60070313 -10.60070312 10.20140625 -10.91015625 10.8203125 C-12.22683554 13.45367109 -13.7993929 14.76029832 -16.0625 16.625 C-18.97875712 18.95485552 -18.97875712 18.95485552 -21 22 C-21.66 22 -22.32 22 -23 22 C-23.33 22.99 -23.66 23.98 -24 25 C-24.66 25 -25.32 25 -26 25 C-26.268125 25.57234375 -26.53625 26.1446875 -26.8125 26.734375 C-28.04132636 29.07884634 -29.42522176 31.12404938 -31 33.25 C-31.515625 33.95640625 -32.03125 34.6628125 -32.5625 35.390625 C-33.036875 35.92171875 -33.51125 36.4528125 -34 37 C-34.66 37 -35.32 37 -36 37 C-36.185625 38.7015625 -36.185625 38.7015625 -36.375 40.4375 C-36.58125 41.613125 -36.7875 42.78875 -37 44 C-37.99 44.495 -37.99 44.495 -39 45 C-39 42.36 -39 39.72 -39 37 C-39.66 37 -40.32 37 -41 37 C-35.78053098 22.48416328 -16.57861721 -0.88814021 0 0 Z " fill="#575756" transform="translate(174,0)"/>
<path d="M0 0 C0.99 0.66 1.98 1.32 3 2 C2.67 3.32 2.34 4.64 2 6 C0.700625 6.020625 -0.59875 6.04125 -1.9375 6.0625 C-10.52465107 7.04504236 -16.55799264 13.9923722 -21.94921875 20.26953125 C-27.46627448 27.61509688 -31.98397721 35.75258412 -36 44 C-36.33 42.68 -36.66 41.36 -37 40 C-38.98 40 -40.96 40 -43 40 C-37.69758834 25.834986 -24.77004348 9.58415974 -12.125 1.0625 C-8.06574142 -0.31764792 -4.25121138 -0.623511 0 0 Z " fill="#5F5F5F" transform="translate(59,10)"/>
<path d="M0 0 C0.33 0.66 0.66 1.32 1 2 C0.34 2 -0.32 2 -1 2 C-1.33 2.99 -1.66 3.98 -2 5 C-2.66 5 -3.32 5 -4 5 C-4.268125 5.57234375 -4.53625 6.1446875 -4.8125 6.734375 C-6.04132636 9.07884634 -7.42522176 11.12404938 -9 13.25 C-9.515625 13.95640625 -10.03125 14.6628125 -10.5625 15.390625 C-11.036875 15.92171875 -11.51125 16.4528125 -12 17 C-12.66 17 -13.32 17 -14 17 C-14.12375 18.134375 -14.2475 19.26875 -14.375 20.4375 C-14.58125 21.613125 -14.7875 22.78875 -15 24 C-15.66 24.33 -16.32 24.66 -17 25 C-17 22.36 -17 19.72 -17 17 C-17.66 17 -18.32 17 -19 17 C-17.83620352 13.68765616 -16.88761214 11.1101781 -14 9 C-12.68 9 -11.36 9 -10 9 C-9.34 8.01 -8.68 7.02 -8 6 C-7.01 6 -6.02 6 -5 6 C-4.67 4.35 -4.34 2.7 -4 1 C-2.68 0.67 -1.36 0.34 0 0 Z " fill="#6D6D6C" transform="translate(152,20)"/>
<path d="M0 0 C6.39075249 -0.36174071 6.39075249 -0.36174071 9 1.1875 C10.40932122 3.74189471 9.67732028 5.22298684 9 8 C9.36856864 10.23167185 9.36856864 10.23167185 10 12 C8.68 12 7.36 12 6 12 C5.34 11.01 4.68 10.02 4 9 C3.67 9.99 3.34 10.98 3 12 C2.01 12 1.02 12 0 12 C0 8.04 0 4.08 0 0 Z " fill="#818181" transform="translate(70,122)"/>
<path d="M0 0 C2 2 2 2 2.3125 4.9375 C2 8 2 8 0.875 9.875 C-1.88090884 11.52854531 -3.85075452 11.39365568 -7 11 C-8.875 9.875 -8.875 9.875 -10 8 C-10.4375 5 -10.4375 5 -10 2 C-6.94783427 -1.63912068 -4.35383535 -1.23043173 0 0 Z M-5 2 C-5.66 3.32 -6.32 4.64 -7 6 C-5.02 6.99 -5.02 6.99 -3 8 C-2.34 7.01 -1.68 6.02 -1 5 C-1.66 4.01 -2.32 3.02 -3 2 C-3.66 2 -4.32 2 -5 2 Z " fill="#959595" transform="translate(101,123)"/>
<path d="M0 0 C4 1 4 1 6 3 C6.33 2.01 6.66 1.02 7 0 C7.99 0 8.98 0 10 0 C10 3.96 10 7.92 10 12 C9.01 12 8.02 12 7 12 C5.3125 10 5.3125 10 4 8 C3.67 9.32 3.34 10.64 3 12 C2.01 12 1.02 12 0 12 C0 8.04 0 4.08 0 0 Z " fill="#898989" transform="translate(240,122)"/>
<path d="M0 0 C1.8125 1.125 1.8125 1.125 3 3 C3.39310741 6.14485925 3.47555213 8.13281671 1.9375 10.9375 C-1.21566824 12.66665678 -3.62508255 11.8590699 -7 11 C-9 8 -9 8 -8.8125 4.9375 C-7.47741613 0.1106583 -4.61266905 -0.57658363 0 0 Z M-3 3 C-3.99 3.495 -3.99 3.495 -5 4 C-4.67 5.65 -4.34 7.3 -4 9 C-2.68 8.67 -1.36 8.34 0 8 C-0.34786708 6.02463255 -0.34786708 6.02463255 -1 4 C-1.66 3.67 -2.32 3.34 -3 3 Z " fill="#8D8D8C" transform="translate(225,122)"/>
<path d="M0 0 C6 0 6 0 8.375 1.125 C10 3 10 3 10.4375 6 C10 9 10 9 8.9375 10.875 C5.99772876 12.58196395 3.32129197 12.18799766 0 12 C0 8.04 0 4.08 0 0 Z M3 4 C3 5.65 3 7.3 3 9 C4.32 8.34 5.64 7.68 7 7 C6.67 6.01 6.34 5.02 6 4 C5.01 4 4.02 4 3 4 Z " fill="#888888" transform="translate(115,122)"/>
<path d="M0 0 C6.41868512 -0.3633218 6.41868512 -0.3633218 9 1.25 C10 3 10 3 10 5.0625 C9 7 9 7 6.4375 8.25 C5.633125 8.4975 4.82875 8.745 4 9 C4 9.99 4 10.98 4 12 C2.68 12 1.36 12 0 12 C0 8.04 0 4.08 0 0 Z " fill="#989898" transform="translate(49,122)"/>
<path d="M0 0 C2.33944736 0.28730055 4.6739143 0.61936779 7 1 C6.814375 1.639375 6.62875 2.27875 6.4375 2.9375 C6.293125 3.618125 6.14875 4.29875 6 5 C6.33 5.33 6.66 5.66 7 6 C7.04063832 7.66617115 7.042721 9.33388095 7 11 C0.25 12.125 0.25 12.125 -2 11 C-2 10.01 -2 9.02 -2 8 C-0.68 8 0.64 8 2 8 C0.68 7.34 -0.64 6.68 -2 6 C-1.125 1.125 -1.125 1.125 0 0 Z " fill="#A0A0A0" transform="translate(264,122)"/>
<path d="M0 0 C0.99 0 1.98 0 3 0 C3.33 2.64 3.66 5.28 4 8 C4.66 8 5.32 8 6 8 C6.33 5.36 6.66 2.72 7 0 C7.99 0 8.98 0 10 0 C10.05395478 1.62463842 10.09277195 3.24978541 10.125 4.875 C10.14820313 5.77992187 10.17140625 6.68484375 10.1953125 7.6171875 C10 10 10 10 8 12 C5 12.25 5 12.25 2 12 C0 10 0 10 -0.1953125 7.6171875 C-0.17210937 6.71226562 -0.14890625 5.80734375 -0.125 4.875 C-0.10695312 3.96492188 -0.08890625 3.05484375 -0.0703125 2.1171875 C-0.04710937 1.41851562 -0.02390625 0.71984375 0 0 Z " fill="#8D8D8D" transform="translate(137,122)"/>
<path d="M0 0 C0 0.99 0 1.98 0 3 C-2.31 3 -4.62 3 -7 3 C-6.67 4.32 -6.34 5.64 -6 7 C-4.02 7 -2.04 7 0 7 C0 7.99 0 8.98 0 10 C-6.625 11.25 -6.625 11.25 -10 9 C-10.3734761 5.57646906 -10.57873868 3.08939046 -8.9375 0 C-5.86664787 -1.58495594 -3.27813225 -0.68036707 0 0 Z " fill="#6F6F6E" transform="translate(169,123)"/>
<path d="M0 0 C3.3 0 6.6 0 10 0 C9.67 1.32 9.34 2.64 9 4 C8.34 4 7.68 4 7 4 C7 6.31 7 8.62 7 11 C5.68 11.33 4.36 11.66 3 12 C3 9.36 3 6.72 3 4 C2.01 3.67 1.02 3.34 0 3 C0 2.01 0 1.02 0 0 Z " fill="#A2A2A2" transform="translate(180,122)"/>
<path d="M0 0 C2.0625 0.4375 2.0625 0.4375 4 1 C3.360625 1.598125 2.72125 2.19625 2.0625 2.8125 C-0.20310389 4.90810337 -0.20310389 4.90810337 -1 8 C-2.65365406 9.02137457 -4.32376502 10.01612294 -6 11 C-8.39353499 12.932668 -10.70271978 14.95429514 -13 17 C-13 13.55262494 -12.66974196 13.27721902 -10.41015625 10.8984375 C-9.87326172 10.32609375 -9.33636719 9.75375 -8.78320312 9.1640625 C-8.21537109 8.57367188 -7.64753906 7.98328125 -7.0625 7.375 C-6.49853516 6.776875 -5.93457031 6.17875 -5.35351562 5.5625 C-1.79225128 1.79225128 -1.79225128 1.79225128 0 0 Z " fill="#6D6D6C" transform="translate(155,8)"/>
<path d="M0 0 C0.99 0.33 1.98 0.66 3 1 C2.25 2.9375 2.25 2.9375 1 5 C-1.125 5.75 -1.125 5.75 -3 6 C-3.33 7.32 -3.66 8.64 -4 10 C-4.99 10 -5.98 10 -7 10 C-7.2475 10.639375 -7.495 11.27875 -7.75 11.9375 C-9 14 -9 14 -11.125 14.75 C-12.053125 14.87375 -12.053125 14.87375 -13 15 C-12.68273079 11.81636758 -12.36529441 10.35656227 -10.0390625 8.0859375 C-9.24242187 7.52132813 -8.44578125 6.95671875 -7.625 6.375 C-4.86615279 4.38898947 -2.3309123 2.48129374 0 0 Z " fill="#30302F" transform="translate(151,16)"/>
<path d="M0 0 C0.66 0 1.32 0 2 0 C3.125 4.75 3.125 4.75 2 7 C2.39938767 9.09821215 2.39938767 9.09821215 3 11 C-1 11 -1 11 -2.75 9.3125 C-4.18991433 6.64865849 -4.24862931 4.98355176 -4 2 C-2.68 1.67 -1.36 1.34 0 1 C0 0.67 0 0.34 0 0 Z " fill="#B9B9B9" transform="translate(77,123)"/>
<path d="M0 0 C1.32 0.33 2.64 0.66 4 1 C4 4.63 4 8.26 4 12 C2.68 12 1.36 12 0 12 C0 8.04 0 4.08 0 0 Z " fill="#AAAAAA" transform="translate(201,122)"/>
<path d="M0 0 C1.99954746 -0.04254356 4.00041636 -0.04080783 6 0 C7 1 7 1 7.125 3.5 C7 6 7 6 6 7 C3.5 7.125 3.5 7.125 1 7 C0 6 0 6 -0.0625 2.9375 C-0.041875 1.968125 -0.02125 0.99875 0 0 Z " fill="#BEBEBE" transform="translate(278,55)"/>
<path d="M0 0 C0.33 0.66 0.66 1.32 1 2 C0.34 2 -0.32 2 -1 2 C-1.33 2.99 -1.66 3.98 -2 5 C-2.66 5 -3.32 5 -4 5 C-4.2475 5.53625 -4.495 6.0725 -4.75 6.625 C-6.30084957 9.57161419 -8.08305558 12.27917566 -10 15 C-10.33 15 -10.66 15 -11 15 C-11.2519555 11.97653399 -11.20421041 10.3597993 -9.6875 7.6875 C-9.130625 7.130625 -8.57375 6.57375 -8 6 C-7.01 6 -6.02 6 -5 6 C-4.67 4.35 -4.34 2.7 -4 1 C-2.68 0.67 -1.36 0.34 0 0 Z " fill="#8D8D8D" transform="translate(152,20)"/>
<path d="M0 0 C2.475 0.495 2.475 0.495 5 1 C5.33 3.31 5.66 5.62 6 8 C4.35 7.67 2.7 7.34 1 7 C0.67 4.69 0.34 2.38 0 0 Z " fill="#898888" transform="translate(99,61)"/>
<path d="M0 0 C1.32 0.33 2.64 0.66 4 1 C-0.57698402 5.81440682 -4.56566569 9.8552219 -11 12 C-11.33 12.66 -11.66 13.32 -12 14 C-11.67 12.68 -11.34 11.36 -11 10 C-10.34 10 -9.68 10 -9 10 C-9 9.01 -9 8.02 -9 7 C-8.236875 6.71125 -7.47375 6.4225 -6.6875 6.125 C-3.84970692 5.03730987 -3.84970692 5.03730987 -1 3 C-0.67 2.01 -0.34 1.02 0 0 Z " fill="#A0A0A0" transform="translate(41,95)"/>
<path d="M0 0 C1.38959604 4.17830589 0.46525481 6.89331431 -0.96484375 10.9375 C-2.38105943 13.75924295 -4.11475221 14.83030495 -7 16 C-5.35433477 10.31497465 -2.70967216 5.23318364 0 0 Z " fill="#A8A8A7" transform="translate(15,50)"/>
<path d="M0 0 C0.99 0 1.98 0 3 0 C3 4.29 3 8.58 3 13 C2.01 13 1.02 13 0 13 C0 8.71 0 4.42 0 0 Z " fill="#1C1C1B" transform="translate(222,92)"/>
<path d="M0 0 C0 0.99 0 1.98 0 3 C-1.32 3 -2.64 3 -4 3 C-5.70680947 4.62553283 -7.37660195 6.29115995 -9 8 C-9.66 8 -10.32 8 -11 8 C-11 8.99 -11 9.98 -11 11 C-11.66 11 -12.32 11 -13 11 C-10.57302334 3.92131808 -7.66314736 -0.20166177 0 0 Z " fill="#8D8D8D" transform="translate(161,70)"/>
<path d="M0 0 C1.32 0 2.64 0 4 0 C4 1.65 4 3.3 4 5 C-2.75 6.125 -2.75 6.125 -5 5 C-5 4.01 -5 3.02 -5 2 C-2.03 2.495 -2.03 2.495 1 3 C0.67 2.01 0.34 1.02 0 0 Z " fill="#8D8D8C" transform="translate(267,128)"/>
<path d="M0 0 C-0.66 1.32 -1.32 2.64 -2 4 C-2.66 4 -3.32 4 -4 4 C-4 4.66 -4 5.32 -4 6 C-6.375 7.6875 -6.375 7.6875 -9 9 C-9.66 8.67 -10.32 8.34 -11 8 C-10.01 7.67 -9.02 7.34 -8 7 C-8 6.34 -8 5.68 -8 5 C-8.66 4.67 -9.32 4.34 -10 4 C-3.375 0 -3.375 0 0 0 Z " fill="#A4A4A4" transform="translate(315,81)"/>
<path d="M0 0 C0.33 0.99 0.66 1.98 1 3 C1.66 3.33 2.32 3.66 3 4 C-0.44615385 9.78461538 -0.44615385 9.78461538 -3.25 10.875 C-3.8275 10.91625 -4.405 10.9575 -5 11 C-4.46884894 6.48521602 -2.63379708 3.65333143 0 0 Z " fill="#999998" transform="translate(169,8)"/>
<path d="M0 0 C0.33 0 0.66 0 1 0 C1 2.31 1 4.62 1 7 C-5.75 8.125 -5.75 8.125 -8 7 C-7.67 5.68 -7.34 4.36 -7 3 C-4.69 3.33 -2.38 3.66 0 4 C0 2.68 0 1.36 0 0 Z " fill="#777776" transform="translate(226,126)"/>
<path d="M0 0 C0 0.99 0 1.98 0 3 C-6.75 3.125 -6.75 3.125 -9 2 C-9 1.34 -9 0.68 -9 0 C-5.93109813 -1.53445094 -3.29905734 -0.54984289 0 0 Z " fill="#A6A6A6" transform="translate(169,123)"/>
<path d="M0 0 C1.31534494 3.65857532 0.65468309 6.08026481 -0.4375 9.75 C-0.86869141 11.22726563 -0.86869141 11.22726563 -1.30859375 12.734375 C-1.53675781 13.48203125 -1.76492188 14.2296875 -2 15 C-2.66 14.67 -3.32 14.34 -4 14 C-3.00956295 9.16371695 -2.04301154 4.52381127 0 0 Z " fill="#C1C1C1" transform="translate(7,67)"/>
<path d="M0 0 C0.36923077 5.41538462 0.36923077 5.41538462 -1.5 8.375 C-1.995 8.91125 -2.49 9.4475 -3 10 C-3.83241855 6.67032582 -4.2757381 4.24733335 -3 1 C-1 0 -1 0 0 0 Z " fill="#5C5C5B" transform="translate(25,44)"/>
<path d="M0 0 C1.32 0 2.64 0 4 0 C4.33 0.99 4.66 1.98 5 3 C5.66 3.33 6.32 3.66 7 4 C7 4.66 7 5.32 7 6 C5.68 6 4.36 6 3 6 C0 2.78571429 0 2.78571429 0 0 Z " fill="#808080" transform="translate(73,128)"/>
<path d="M0 0 C1.32 0 2.64 0 4 0 C4.33 1.65 4.66 3.3 5 5 C3.35 4.67 1.7 4.34 0 4 C0 2.68 0 1.36 0 0 Z " fill="#242423" transform="translate(279,56)"/>
<path d="M0 0 C0.66 0.33 1.32 0.66 2 1 C2 3.19959601 1.65562364 4.90200436 1 7 C0.34 7.66 -0.32 8.32 -1 9 C-1.625 6.1875 -1.625 6.1875 -2 3 C-1.34 2.01 -0.68 1.02 0 0 Z " fill="#B2B2B2" transform="translate(218,123)"/>
<path d="M0 0 C2.97 0.33 5.94 0.66 9 1 C7 5 7 5 5 6 C5 5.34 5 4.68 5 4 C2.525 3.01 2.525 3.01 0 2 C0 1.34 0 0.68 0 0 Z " fill="#AEAEAD" transform="translate(192,86)"/>
<path d="M0 0 C-1.07401108 2.91517292 -1.77810176 4.77810176 -4 7 C-4.33 6.01 -4.66 5.02 -5 4 C-5.66 4 -6.32 4 -7 4 C-7 3.34 -7 2.68 -7 2 C-4.35261084 0.5393715 -3.10551666 0 0 0 Z " fill="#6C6C6B" transform="translate(29,41)"/>
<path d="M0 0 C1.2065625 0.0309375 1.2065625 0.0309375 2.4375 0.0625 C1.4475 0.5575 1.4475 0.5575 0.4375 1.0625 C0.1075 1.7225 -0.2225 2.3825 -0.5625 3.0625 C-1.5625 5.0625 -1.5625 5.0625 -3.5625 6.0625 C-3.605221 4.39638095 -3.60313832 2.72867115 -3.5625 1.0625 C-2.5625 0.0625 -2.5625 0.0625 0 0 Z " fill="#727272" transform="translate(95.5625,122.9375)"/>
<path d="M0 0 C0 0.99 0 1.98 0 3 C-2.31 3.33 -4.62 3.66 -7 4 C-6.67 3.01 -6.34 2.02 -6 1 C-3 0 -3 0 0 0 Z " fill="#ACACAC" transform="translate(169,130)"/>
<path d="M0 0 C1.32 0.33 2.64 0.66 4 1 C2.35 2.65 0.7 4.3 -1 6 C-1.99 5.67 -2.98 5.34 -4 5 C-3.01 4.34 -2.02 3.68 -1 3 C-0.67 2.01 -0.34 1.02 0 0 Z " fill="#898988" transform="translate(41,95)"/>
<path d="M0 0 C1.875 0.25 1.875 0.25 4 1 C5.25 3.0625 5.25 3.0625 6 5 C5.236875 4.649375 4.47375 4.29875 3.6875 3.9375 C0.95240621 2.67639116 0.95240621 2.67639116 -2 4 C-1.34 2.68 -0.68 1.36 0 0 Z " fill="#939392" transform="translate(92,79)"/>
</svg>
