<svg fill="currentColor" xmlns="http://www.w3.org/2000/svg" viewBox="0 0 480 93"><title>Henry</title><path d="M434.817 93c.14 0 .14-33.1575.14-33.1575L480 .158936h-39.933L418.204 30.0356 395.573.158936H275.685c-.14 0-.14 0-.14.13961V46.7191L240.852.158936H64.0813c-.1396 0-.1396 0-.1396.13961V33.3165H30.7841V.298546c0-.13961 0-.13961-.1396-.13961H.139611C0 .158936 0 .158936 0 .298546V92.8604C0 93 0 93 .139611 93H30.6445c.1396 0 .1396 0 .1396-.1396V61.5876h33.1576v31.2728c0 .1396 0 .1396.1396.1396H240.154c.139 0 .139 0 .139-.1396V47.7662L275.056 93h56.896c.14 0 .14 0 .14-.1396V59.8425h9.284L366.855 93h67.962ZM125.37 28.4301h53.192v3.9789H125.37v-3.9789Zm0 32.1802h53.192v3.9789H125.37v-3.9789Zm206.722-32.4594h37.834c.14 0 .14 0 .14.1396l3.095 4.1185c0 .1396 0 .1396-.14.1396h-40.929v-4.3977Z"></path></svg>