<svg version="1.1" xmlns="http://www.w3.org/2000/svg" width="140" height="32.594" viewBox="0 0 140 32.594">
  <path d="M0 0.219h14v1.313l-0.378 0.037q-0.843 0.083 -1.687 0.168l-0.595 0.058 -0.566 0.058 -0.524 0.052C9.841 1.929 9.841 1.929 9.625 2.188a20.125 20.125 0 0 0 -0.035 1.131l-0.007 0.743 -0.004 0.822 -0.007 0.86q-0.009 1.171 -0.015 2.342 -0.008 1.222 -0.017 2.445 -0.016 2.316 -0.03 4.632 -0.017 2.636 -0.035 5.272Q9.44 25.857 9.406 31.281q1.572 -0.04 3.143 -0.083l1.066 -0.028c4.984 0.22 4.984 0.22 9.354 -1.42 0.021 -0.36 0.027 -0.721 0.026 -1.081l0.001 -0.709 -0.002 -0.785v-0.821q0 -1.118 -0.003 -2.236 -0.002 -1.167 -0.002 -2.334 -0.001 -2.212 -0.005 -4.423 -0.003 -2.517 -0.005 -5.034Q22.976 7.148 22.969 1.969L19.469 1.531V0.219h24.719v10.5h-1.313a61.906 61.906 0 0 1 -0.666 -2.074C41.422 6.095 40.466 3.815 38.063 2.406c-1.288 -0.66 -2.739 -0.681 -4.162 -0.725l-0.769 -0.025 -0.961 -0.028L29.094 1.531v12.25c3.619 0.055 3.619 0.055 6.754 -1.435 0.92 -1.275 1.173 -2.94 1.34 -4.471h1.313v13.563h-1.094c-0.414 -0.414 -0.402 -1.127 -0.506 -1.682 -0.331 -1.552 -0.676 -2.563 -2.009 -3.482 -1.065 -0.653 -2.029 -0.686 -3.255 -0.688q-0.584 -0.011 -1.167 -0.024l-0.515 -0.003C29.531 15.531 29.531 15.531 29.094 15.313v15.75l3.773 -0.041 1.173 -0.004c2.491 -0.035 4.85 -0.379 6.739 -2.177C42.496 26.836 43.633 24.301 44.625 21.875h1.094v10.719H0v-1.313l0.71 -0.08 0.917 -0.111 0.469 -0.052c0.397 -0.049 0.792 -0.12 1.186 -0.194 0.276 -0.552 0.246 -0.932 0.247 -1.55l0.002 -0.714 -0.002 -0.786 0.001 -0.826q0.001 -1.122 0 -2.245c-0.001 -0.782 0 -1.565 0 -2.347q0.001 -1.971 -0.001 -3.941 -0.001 -2.28 0 -4.56 0.002 -1.956 0.001 -3.911 -0.001 -1.169 0 -2.338c0.001 -0.868 0 -1.737 -0.002 -2.605l0.002 -0.786 -0.002 -0.714 0 -0.623c0.004 -0.498 0.004 -0.498 -0.246 -0.927 -0.556 -0.104 -1.094 -0.184 -1.654 -0.246l-0.471 -0.057Q0.578 1.596 0 1.531z" fill="#000000"/>
  <path d="M64.531 0.219q3.107 -0.031 6.213 -0.045c0.962 -0.005 1.924 -0.011 2.886 -0.021 0.932 -0.01 1.864 -0.015 2.796 -0.017q0.528 -0.002 1.056 -0.009c4.325 -0.056 8.496 0.639 11.739 3.731 1.971 2.192 2.173 4.646 2.039 7.463 -0.2 2.355 -1.611 4.112 -3.268 5.688 -1.008 0.841 -2.117 1.337 -3.336 1.805l-0.486 0.197c-1.239 0.439 -2.507 0.581 -3.807 0.719l-0.517 0.056c-1.766 0.165 -3.454 0.122 -5.252 0.122l0.219 10.719c1.431 0.286 2.726 0.518 4.156 0.656v1.313h-14.438v-1.313l0.654 -0.088 0.849 -0.117 0.846 -0.115c0.686 -0.077 0.686 -0.077 1.15 -0.336V2.188c-0.863 -0.288 -1.611 -0.518 -2.488 -0.684l-0.579 -0.111L64.531 1.313zm10.063 1.313v16.844c4.448 0.24 4.448 0.24 8.313 -1.531 1.777 -1.853 1.867 -4.429 1.846 -6.863l-0.005 -0.788c-0.038 -2.094 -0.201 -4.029 -1.431 -5.801C80.691 1.108 78.12 1.531 74.594 1.531" fill="#000000"/>
  <path d="m134.159 0.865 0.616 0.182 0.546 0.17c0.601 0.11 1.031 0.031 1.617 -0.123l0.219 -0.656h1.531v10.719h-1.531l-0.185 -0.761c-0.812 -3.198 -1.866 -6.377 -4.811 -8.19 -1.596 -0.796 -3.435 -1.026 -5.164 -0.515 -1.854 0.871 -3.04 2.523 -3.779 4.398C122.548 7.954 122.083 9.842 121.844 11.813l-0.074 0.55c-0.613 5.403 -0.084 11.622 2.917 16.293l0.396 0.629c1.1 1.069 2.201 1.626 3.746 1.695 2.017 -0.097 3.551 -1.08 4.996 -2.438C136.021 26.094 137.401 22.892 138.688 19.906h1.313v12.688h-1.531l-0.205 -0.533c-0.18 -0.537 -0.18 -0.537 -0.451 -0.779 -1.502 0.077 -2.847 0.446 -4.281 0.889 -4.173 1.141 -8.538 0.449 -12.304 -1.565 -3.535 -2.121 -5.945 -5.274 -7.15 -9.195 -1.213 -4.947 -0.551 -10.505 2.039 -14.882 2.171 -3.388 5.754 -5.418 9.596 -6.377 2.974 -0.481 5.576 -0.142 8.446 0.714" fill="#000000"/>
  <path d="m100.079 0.197 0.669 0.008 0.671 0.006L101.938 0.219l0.176 0.441a11616.5 11616.5 0 0 0 4.264 10.662q1.043 2.603 2.082 5.206 0.915 2.292 1.833 4.581 0.488 1.215 0.972 2.432a757.313 757.313 0 0 0 0.917 2.292q0.169 0.42 0.335 0.84c0.846 2.431 0.846 2.431 2.627 4.129 0.709 0.232 1.367 0.389 2.105 0.479v1.313h-14.219v-1.313l3.5 -0.438c-0.269 -1.137 -0.585 -2.215 -0.998 -3.311l-0.165 -0.441q-0.269 -0.715 -0.54 -1.43l-0.381 -1.014q-0.502 -1.335 -1.006 -2.67 -0.502 -1.33 -1.002 -2.66 -0.77 -2.047 -1.542 -4.093C100.001 12.849 99.109 10.472 98.219 8.094c-0.461 0.691 -0.768 1.395 -1.083 2.158l-0.192 0.461q-0.314 0.755 -0.626 1.51l-0.436 1.053q-0.575 1.389 -1.148 2.78l-0.469 1.139a1078.656 1078.656 0 0 0 -1.367 3.331 525.656 525.656 0 0 1 -0.431 1.052q-0.303 0.738 -0.603 1.478l-0.179 0.433c-0.742 1.84 -1.284 3.714 -0.685 5.661 0.981 1.349 2.35 1.821 3.938 2.133v1.313h-11.813v-1.313l0.488 -0.161 0.647 -0.222 0.638 -0.215c3.913 -1.711 5.607 -8.67 7.086 -12.336q0.287 -0.708 0.575 -1.416 0.581 -1.432 1.162 -2.864c0.823 -2.03 1.655 -4.057 2.488 -6.083l0.415 -1.012q0.387 -0.942 0.774 -1.883a604.406 604.406 0 0 0 0.813 -1.989l0.213 -0.522q0.203 -0.497 0.404 -0.994c0.556 -1.36 0.556 -1.36 1.25 -1.387" fill="#000000"/>
  <path d="M47.25 0.219h1.313c1.226 2.546 2.275 5.161 3.336 7.779q0.291 0.715 0.582 1.43l1.19 2.928c0.784 1.928 1.572 3.855 2.36 5.781l0.724 1.77c0.73 1.787 1.462 3.572 2.201 5.355q0.496 1.199 0.992 2.399 0.347 0.838 0.696 1.675l0.417 1.009 0.194 0.462c0.26 0.633 0.433 1.094 0.433 1.786h-1.313c-0.628 -1.222 -1.184 -2.453 -1.699 -3.726l-0.232 -0.569q-0.375 -0.921 -0.749 -1.843l-0.529 -1.298q-0.541 -1.327 -1.081 -2.655a1833.344 1833.344 0 0 0 -2.087 -5.097l-0.64 -1.56q-1.003 -2.443 -2.006 -4.886l-1.395 -3.397a1189.781 1189.781 0 0 1 -1.204 -2.94q-0.193 -0.471 -0.387 -0.943 -0.281 -0.683 -0.56 -1.368c-0.107 -0.261 -0.214 -0.523 -0.325 -0.792C47.25 0.875 47.25 0.875 47.25 0.219" fill="#000000"/>
</svg>
