<svg xmlns="http://www.w3.org/2000/svg" viewBox="0 0 2000.8 424.726" width="2000.8" height="424.726"><title>Logo Soldats</title><path d="M106.182 0.37c68.814 0 104.332 37.737 104.332 104.332v12.949H143.549v-17.019c0 -29.598 -12.949 -40.697 -35.517 -40.697s-35.517 11.099 -35.517 40.697c0 85.093 138.369 101.372 138.369 219.762 0 66.225 -35.887 104.332 -105.442 104.332S0 386.249 0 320.024v-25.528h66.965v29.598c0 29.598 14.059 40.327 36.627 40.327s36.627 -10.729 36.627 -40.327C140.219 239.001 1.85 222.722 1.85 104.332 1.85 38.107 37.367 0.37 106.182 0.37m197.564 103.962c0 -66.225 38.107 -104.332 107.291 -104.332s107.291 37.737 107.291 104.332v215.323c0 66.225 -38.107 104.332 -107.291 104.332s-107.291 -37.737 -107.291 -104.332Zm70.664 219.762c0 29.598 14.059 40.697 36.627 40.697s36.627 -11.099 36.627 -40.697V100.262c0 -29.598 -14.059 -40.697 -36.627 -40.697s-36.627 11.099 -36.627 40.697Zm247.88 -318.914h70.664v355.172h116.541v59.195h-187.205Zm275.998 0h112.101c70.664 0 105.442 36.257 105.442 102.482v209.403c0 66.225 -34.777 102.482 -105.442 102.482h-112.101Zm71.034 59.195v295.976h39.957c22.568 0 35.887 -10.729 35.887 -40.327V104.702c0 -29.598 -13.689 -40.327 -35.887 -40.327Zm478.002 355.172h-71.404l-12.209 -75.104h-86.943l-12.209 75.104h-65.115l72.144 -414.367h103.592Zm-161.307 -131.709H1354.092l-34.037 -209.403Zm207.183 -282.657h218.653v59.195h-73.994v355.172h-70.664v-355.172h-73.994ZM1896.098 0.37c68.814 0 104.332 37.737 104.332 104.332v12.949h-66.965v-17.019c0 -29.598 -12.949 -40.697 -35.517 -40.697s-35.517 11.099 -35.517 40.697c0 85.093 138.369 101.372 138.369 219.762 0 66.225 -35.887 104.332 -105.442 104.332s-105.442 -37.737 -105.442 -104.332v-25.528h66.965v29.598c0 29.598 14.059 40.327 36.627 40.327s36.627 -10.729 36.627 -40.327c0 -85.093 -138.369 -101.372 -138.369 -219.762 0 -66.595 35.147 -104.332 104.332 -104.332"/></svg>