<svg class="_desktop_6in2a_1" fill="currentColor" height="100%" viewBox="0 0 121 14" xmlns="http://www.w3.org/2000/svg">
  <path d="M107.176 13.8827V0H111.947V5.08381C113.003 4.30169 113.824 3.79331 116.131 3.79331H116.464C119.494 3.79331 120.667 5.04471 120.667 7.52796V13.8827H115.877V8.38829C115.877 7.01957 115.31 6.5503 114.176 6.5503H113.843C112.533 6.5503 111.947 7.39108 111.947 8.62293V13.8827H107.176Z" fill="currentColor"/>
  <path d="M99.4842 13.9999C94.7328 13.9999 92.6797 12.4357 92.6797 8.99435V8.79881C92.6797 5.35746 94.7328 3.79321 99.4842 3.79321H99.797C104.236 3.79321 106.191 5.31836 106.191 7.74294V7.84071H101.381V7.74294C101.381 6.99993 100.951 6.39378 99.797 6.39378H99.4842C98.2523 6.39378 97.6266 7.11724 97.6266 8.79881V8.99435C97.6266 10.6759 98.2523 11.3994 99.4842 11.3994H99.797C100.951 11.3994 101.381 10.7932 101.381 10.0502V9.95245H106.191V10.0502C106.191 12.4748 104.236 13.9999 99.797 13.9999H99.4842Z" fill="currentColor"/>
  <path d="M82.3483 13.9805C79.474 13.9805 78.2812 12.7487 78.2812 10.2654V3.91064H83.0522V9.38552C83.0522 10.7738 83.6388 11.2235 84.6947 11.2235H85.0271C86.298 11.2235 86.8846 10.3827 86.8846 9.17044V3.91064H91.6751V13.8827H87.1779V12.4945C85.8483 13.4721 85.1248 13.9805 82.6807 13.9805H82.3483Z" fill="currentColor"/>
  <path d="M70.8231 13.9999C66.1695 13.9999 64.8203 12.7681 64.8203 10.715V10.6173H69.298V10.715C69.298 11.4776 69.7281 11.8491 70.8622 11.8491H71.4684C72.6025 11.8491 72.9935 11.5363 72.9935 11.0865V10.9888C72.9935 10.5586 72.6807 10.3044 71.6053 10.2262L69.0633 10.0307C66.3846 9.81558 65.055 8.99435 65.055 7.05859V6.96082C65.055 4.634 67.2449 3.79321 70.8036 3.79321H71.4097C74.812 3.79321 77.1192 4.55579 77.1192 6.78484V6.88261H72.7393V6.78484C72.7393 6.19825 72.2701 5.94406 71.3511 5.94406H70.7645C69.8259 5.94406 69.3957 6.23735 69.3957 6.60886V6.70663C69.3957 7.07814 69.7282 7.31278 70.6471 7.39099L73.1891 7.58652C76.2785 7.82116 77.3734 8.77926 77.3734 10.6368V10.7346C77.3734 12.9245 75.555 13.9999 71.4293 13.9999H70.8231Z" fill="currentColor"/>
  <path d="M57.5993 13.9999C52.9261 13.9999 50.8535 12.4357 50.8535 8.99435V8.79881C50.8535 5.35746 52.9066 3.79321 57.5211 3.79321H57.834C62.6049 3.79321 64.2865 5.43568 64.2865 8.62284C64.2865 9.13122 64.2865 9.44407 64.2279 9.85468H55.5854C55.6636 11.0083 56.3871 11.4971 57.5993 11.4971H57.9122C59.1245 11.4971 59.5938 11.1452 59.5938 10.715V10.6173H64.1692V10.715C64.1692 12.4748 62.6245 13.9999 57.9122 13.9999H57.5993ZM55.6049 7.72339H59.6329C59.5547 6.60886 58.929 6.13959 57.8144 6.13959H57.5211C56.4457 6.13959 55.7027 6.60886 55.6049 7.72339Z" fill="currentColor"/>
  <path d="M28.3594 13.8826V3.91053H32.8566V5.27925C34.1667 4.28204 34.8901 3.79321 37.1778 3.79321H37.5102C39.2505 3.79321 40.4823 4.26249 41.0689 5.27925C42.4963 4.20383 43.2784 3.79321 45.3902 3.79321H45.7421C48.6946 3.79321 49.9069 5.02506 49.9069 7.54741V13.8826H45.1555V8.40775C45.1555 6.99993 44.5298 6.5502 43.6108 6.5502H43.2784C42.2617 6.5502 41.5186 7.27367 41.5186 8.60328V13.8826H36.7477V8.40775C36.7477 6.99993 36.122 6.5502 35.2225 6.5502H34.9097C33.8538 6.5502 33.1303 7.27367 33.1303 8.60328V13.8826H28.3594Z" fill="currentColor"/>
  <path d="M20.2107 13.9999C15.4593 13.9999 13.4062 12.4357 13.4062 8.99435V8.79881C13.4062 5.35746 15.4593 3.79321 20.2107 3.79321H20.5236C25.3141 3.79321 27.3476 5.35746 27.3476 8.79881V8.99435C27.3476 12.4357 25.3141 13.9999 20.5236 13.9999H20.2107ZM18.3336 8.99435C18.3336 10.6759 18.9789 11.3994 20.2107 11.3994H20.5236C21.775 11.3994 22.4202 10.6759 22.4202 8.99435V8.79881C22.4202 7.11724 21.775 6.39378 20.5236 6.39378H20.2107C18.9789 6.39378 18.3336 7.11724 18.3336 8.79881V8.99435Z" fill="currentColor"/>
  <path d="M6.3368 13.9999C1.68315 13.9999 0.333984 12.7681 0.333984 10.715V10.6173H4.81165V10.715C4.81165 11.4776 5.24182 11.8491 6.3759 11.8491H6.98205C8.11613 11.8491 8.50719 11.5363 8.50719 11.0865V10.9888C8.50719 10.5586 8.19434 10.3044 7.11892 10.2262L4.57701 10.0307C1.89823 9.81558 0.568622 8.99435 0.568622 7.05859V6.96082C0.568622 4.634 2.75857 3.79321 6.31724 3.79321H6.92339C10.3256 3.79321 12.6329 4.55579 12.6329 6.78484V6.88261H8.253V6.78484C8.253 6.19825 7.78373 5.94406 6.86473 5.94406H6.27814C5.33959 5.94406 4.90942 6.23735 4.90942 6.60886V6.70663C4.90942 7.07814 5.24182 7.31278 6.16082 7.39099L8.70272 7.58652C11.7921 7.82116 12.8871 8.77926 12.8871 10.6368V10.7346C12.8871 12.9245 11.0687 13.9999 6.94294 13.9999H6.3368Z" fill="currentColor"/>
</svg>
