<svg xmlns="http://www.w3.org/2000/svg" viewBox="0 0 158 47.767">
  <g id="Groupe_2684" data-name="Groupe 2684" transform="translate(-425.85 -380.794)">
    <g id="Groupe_2681" data-name="Groupe 2681" transform="translate(464.007 380.884)">
      <path id="Tracé_14885" data-name="Tracé 14885" d="M705.644,427.931,694.422,405.32v22.611H683.243V381.4h10.829l9.991,20.8V381.4h11.109v46.533Z" transform="translate(-683.243 -381.398)" fill="currentColor"/>
      <path id="Tracé_14886" data-name="Tracé 14886" d="M942.125,427.931V381.4h12.506v46.533Z" transform="translate(-903.747 -381.398)" fill="currentColor"/>
      <path id="Tracé_14887" data-name="Tracé 14887" d="M1089.707,391.739v36.192H1077.2V391.739h-8.734V381.4h30.044v10.341Z" transform="translate(-1011.359 -381.398)" fill="currentColor"/>
    </g>
    <g id="Groupe_2682" data-name="Groupe 2682" transform="translate(557.039 380.884)">
      <path id="Tracé_14888" data-name="Tracé 14888" d="M1310.793,381.4V427.93h26.62V417.17H1323.3v-8.814h10.811v-8.8H1323.3l.032-18.155Z" transform="translate(-1310.793 -381.398)" fill="currentColor"/>
      <path id="Tracé_14889" data-name="Tracé 14889" d="M1419.017,381.655l-12.641,10.131h12.641Z" transform="translate(-1392.206 -381.617)" fill="currentColor"/>
    </g>
    <g id="Groupe_2683" data-name="Groupe 2683" transform="translate(425.85 380.794)">
      <path id="Tracé_14890" data-name="Tracé 14890" d="M444.8,380.794v33.263c0,2.151-1,2.95-2.89,2.95-1.591,0-2.688-.8-2.688-2.937V380.794H425.85v33.26c0,7.987,7.846,14.507,16.006,14.507,8.342,0,15.908-6.178,15.908-14.6l.015-33.165Z" transform="translate(-425.85 -380.794)" fill="currentColor"/>
    </g>
  </g>
</svg>
