<?xml version="1.0" encoding="UTF-8"?>
<svg version="1.1" xmlns="http://www.w3.org/2000/svg" width="1000" height="813">
<path d="M0 0 C1.31984557 -0.00346153 1.31984557 -0.00346153 2.66635469 -0.006993 C5.60541573 -0.0122734 8.54425624 -0.00332519 11.48330593 0.00558662 C13.61534614 0.00471416 15.74738613 0.00296242 17.87942499 0.00040829 C23.73092886 -0.00406114 29.58235945 0.00393296 35.43385398 0.01396441 C41.74663818 0.02260239 48.05941825 0.01967851 54.37220669 0.01815987 C65.30718058 0.01711124 76.24212714 0.02331567 87.17709446 0.03463554 C98.64381492 0.04647542 110.11052586 0.05416861 121.57725239 0.05634117 C122.64727729 0.05654739 122.64727729 0.05654739 123.73891886 0.05675778 C127.36176135 0.05743445 130.98460385 0.05803722 134.60744637 0.05861153 C160.25840973 0.06281074 185.90936067 0.07628096 211.56031704 0.09521675 C236.47763408 0.11358971 261.39494771 0.12775493 286.31227016 0.13623238 C287.46465275 0.13662695 287.46465275 0.13662695 288.6403158 0.1370295 C296.35555016 0.13966658 304.07078454 0.1422182 311.78601895 0.14470722 C327.50240605 0.14977945 343.21879293 0.15542196 358.93517971 0.16140938 C360.01906649 0.16182125 360.01906649 0.16182125 361.12484997 0.16224144 C409.36644649 0.18063829 457.6080357 0.21236981 505.84962368 0.24609566 C505.13753035 4.87004678 503.97775728 9.02040001 502.28712368 13.37109566 C502.02418514 14.05826164 501.7612466 14.74542763 501.49034023 15.45341682 C500.61813806 17.7208486 499.73515005 19.98383634 498.84962368 22.24609566 C498.39127132 23.42276299 498.39127132 23.42276299 497.92365932 24.62320137 C490.84609948 42.73922637 482.97026965 60.47859372 474.82276821 78.13513374 C473.8920944 80.15396743 472.96596048 82.17482086 472.04102993 84.19629097 C470.45406945 87.65913256 468.84315636 91.1103832 467.22462368 94.55859566 C466.77651333 95.52950142 466.32840298 96.50040718 465.86671352 97.50073433 C461.77281066 106.06885216 456.45017624 115.0486916 447.61543161 119.32837093 C444.34229145 120.41443393 441.6708004 120.49443463 438.22169685 120.49219131 C437.56590376 120.494499 436.91011067 120.49680669 436.23444507 120.49918431 C434.03361523 120.50448454 431.83307712 120.49550018 429.63226223 120.48660469 C428.03989812 120.48747675 426.44753428 120.48922775 424.85517198 120.49178302 C420.47682614 120.49626041 416.09857793 120.48824748 411.72024453 120.4782269 C406.99977026 120.46960035 402.27930161 120.472512 397.55882168 120.47403145 C389.37938219 120.4750808 381.19997457 120.46879892 373.0205431 120.45755577 C361.19442166 120.44131059 349.36831566 120.43609377 337.54218427 120.43357979 C318.35567421 120.42920114 299.16918115 120.41588744 279.98268032 120.39697456 C261.34335827 120.37862015 242.70404083 120.3644615 224.06471157 120.35595894 C222.91603189 120.35543349 221.76735221 120.35490804 220.58386406 120.35436668 C214.82134982 120.35175662 209.05883556 120.3492292 203.29632127 120.34674287 C155.48074366 120.32600509 107.6651845 120.29077495 59.84962368 120.24609566 C59.65129059 120.91919651 59.4529575 121.59229736 59.24861431 122.28579521 C58.8522257 123.62107954 58.8522257 123.62107954 58.44782925 124.98333931 C58.18762115 125.86269016 57.92741306 126.74204102 57.65931988 127.64803886 C56.49216023 131.39308185 55.06580275 135.00708756 53.58399868 138.63672066 C53.11911289 139.79154442 53.11911289 139.79154442 52.64483547 140.96969795 C51.97978789 142.62055568 51.31280347 144.27063427 50.64402676 145.91998482 C48.83510552 150.38184606 47.04106333 154.84969895 45.24415493 159.31640816 C44.87577007 160.23086708 44.50738522 161.145326 44.12783718 162.0874958 C40.47270644 171.16569733 36.87366718 180.2656222 33.28712368 189.37109566 C32.66703171 190.94434779 32.04691445 192.51758995 31.42677212 194.09082222 C30.18697984 197.23650924 28.94762866 200.38236964 27.7085104 203.52832222 C24.90579179 210.64298646 22.09697857 217.75524511 19.28868008 224.86770821 C17.72283369 228.83359291 16.15732795 232.79961208 14.59181118 236.76562691 C14.28202831 237.55039909 13.97224545 238.33517128 13.65307522 239.14372444 C11.79797398 243.84331625 9.94311697 248.54300436 8.08845425 253.24276924 C1.54129359 269.83341966 -5.00951526 286.42261712 -11.56800938 303.00879097 C-14.42801836 310.24175021 -17.28756992 317.47489031 -20.14701939 324.70807076 C-20.79636738 326.35061822 -21.44573918 327.99315628 -22.0951395 329.63568306 C-30.9141431 351.9419497 -39.69499496 374.26303969 -48.46101475 396.59018135 C-54.83948307 412.83500567 -61.23677443 429.07216571 -67.66105747 445.29892159 C-73.85154265 460.93724947 -80.00456533 476.59016291 -86.15037632 492.24609566 C-92.63061751 508.75396102 -99.12246332 525.25702141 -105.65037632 541.74609566 C-114.91828338 565.15868631 -124.11834257 588.59785812 -133.31980991 612.036623 C-137.472445 622.61412341 -141.62802697 633.19046605 -145.78343296 643.76687813 C-148.05821556 649.55677677 -150.33280173 655.34675258 -152.60740757 661.13672066 C-153.52228292 663.46549707 -154.43715923 665.79427311 -155.35203648 668.12304878 C-155.80999607 669.28876411 -156.26795567 670.45447945 -156.73979282 671.65551949 C-161.98668003 685.01123238 -167.23356724 698.36694527 -172.48045444 711.72265816 C-173.11686359 713.34343269 -173.11686359 713.34343269 -173.76612949 714.99695015 C-174.6084279 717.1398793 -175.45222126 719.2822215 -176.2975626 721.4239521 C-178.31678499 726.54518315 -180.31897722 731.67138398 -182.27059174 736.81883049 C-182.99063877 738.7153774 -183.71572267 740.60992416 -184.44232273 742.50396919 C-185.35430291 744.88544908 -186.25719028 747.27044086 -187.14883518 749.65960884 C-191.10478538 759.93601243 -195.8838729 769.83585564 -205.15037632 776.24609566 C-206.44975132 777.17422066 -206.44975132 777.17422066 -207.77537632 778.12109566 C-214.2010189 780.26297652 -221.24163576 780.23298978 -227.65037632 778.05859566 C-237.13768868 771.1802942 -240.98238375 761.81587061 -244.90037632 751.12109566 C-245.36987302 749.85943496 -245.84011744 748.5980523 -246.31102085 747.33691597 C-247.64274036 743.76260105 -248.96255483 740.18398291 -250.28062534 736.60461617 C-251.49328056 733.31623562 -252.71274563 730.03039447 -253.93197727 726.74444771 C-257.8806944 716.10154499 -261.80987989 705.45148591 -265.73484898 694.79980659 C-267.82892783 689.11705732 -269.92571112 683.43530939 -272.02307224 677.75377083 C-294.43104502 617.04951966 -316.45587788 556.20899616 -338.15037632 495.24609566 C-338.5469846 494.13168098 -338.94359287 493.01726631 -339.35221958 491.8690815 C-348.17058282 467.08679905 -356.98298093 442.30233053 -365.68943882 417.48047066 C-365.91356512 416.84150415 -366.13769142 416.20253765 -366.36860943 415.54420853 C-368.70436967 408.88406507 -371.03690416 402.22279843 -373.36595249 395.56030464 C-374.13378564 393.36567142 -374.90176752 391.17109023 -375.66990757 388.97656441 C-376.03660053 387.92822929 -376.4032935 386.87989418 -376.78109837 385.79979134 C-378.73339002 380.233246 -380.71173685 374.67718712 -382.72215366 369.13134956 C-383.1410738 367.97540794 -383.55999393 366.81946632 -383.99160862 365.62849617 C-384.79740366 363.41033353 -385.60612812 361.19323228 -386.41815281 358.97734261 C-386.77668842 357.99135582 -387.13522404 357.00536903 -387.50462437 355.98950386 C-387.82319904 355.119291 -388.14177372 354.24907814 -388.47000217 353.35249519 C-389.15037632 351.24609566 -389.15037632 351.24609566 -389.15037632 349.24609566 C-407.96037632 349.24609566 -426.77037632 349.24609566 -446.15037632 349.24609566 C-453.19115683 329.69772806 -460.02159808 310.09294534 -466.67649937 290.41064644 C-467.97613252 286.56759383 -469.28229748 282.72679291 -470.5898838 278.88644028 C-471.61134714 275.88319001 -472.62861696 272.87853193 -473.64469814 269.87345695 C-474.12522251 268.45445052 -474.60722268 267.03594287 -475.09079266 265.61797142 C-475.75967554 263.65514051 -476.42265385 261.69040854 -477.08421421 259.72509956 C-477.46042408 258.61486427 -477.83663395 257.50462898 -478.22424412 256.3607502 C-479.15037632 253.24609566 -479.15037632 253.24609566 -480.15037632 247.24609566 C-420.75037632 247.24609566 -361.35037632 247.24609566 -300.15037632 247.24609566 C-295.22185519 256.48707278 -290.83351596 264.74284818 -287.40037632 274.43359566 C-286.96265903 275.64644234 -286.52494175 276.85928902 -286.0739603 278.10888863 C-276.35255872 305.2830653 -267.55074387 332.81245873 -258.5216074 360.2229023 C-246.79085912 395.82397604 -234.10368614 431.06161596 -220.82566929 466.11425972 C-220.45343739 467.09867546 -220.08120548 468.0830912 -219.69769382 469.09733772 C-219.00039796 470.94018329 -218.30112363 472.78228192 -217.59951878 474.62349129 C-217.29024952 475.44069145 -216.98098026 476.25789162 -216.66233921 477.09985542 C-216.39305103 477.8079586 -216.12376286 478.51606178 -215.84631443 479.24562263 C-215.15671783 481.22786699 -214.62627468 483.20301878 -214.15037632 485.24609566 C-213.49037632 485.24609566 -212.83037632 485.24609566 -212.15037632 485.24609566 C-212.01724537 484.72887947 -211.88411442 484.21166328 -211.7469492 483.67877388 C-209.48969362 475.55075896 -206.23870835 467.87217255 -202.99862957 460.10032082 C-201.18918763 455.7582391 -199.3970547 451.40901077 -197.60301304 447.06054878 C-197.2323034 446.16299999 -196.86159376 445.2654512 -196.4796505 444.34070396 C-192.65426996 435.06779876 -188.91059842 425.76279491 -185.18553257 416.44922066 C-184.86050817 415.63697092 -184.53548378 414.82472118 -184.20061016 413.98785782 C-182.20929568 409.01045403 -180.22079772 404.03192979 -178.23353291 399.05290794 C-177.19013574 396.43912899 -176.1461299 393.82559391 -175.10194492 391.21212959 C-170.4461047 379.55890346 -165.79529148 367.90368083 -161.15037632 356.24609566 C-160.89778553 355.61216141 -160.64519474 354.97822716 -160.38494968 354.32508278 C-149.28289666 326.45818379 -138.38500302 298.51355282 -127.57859898 270.53076363 C-125.97665472 266.3829626 -124.3721638 262.23616273 -122.76512241 258.09033394 C-104.00019414 209.67644378 -85.86390401 161.03093779 -68.08787632 112.24609566 C-67.60554718 110.92263571 -67.12320675 109.59917988 -66.64085484 108.27572823 C-65.92850699 106.3212027 -65.21616344 104.36667561 -64.50384617 102.41213894 C-42.15029402 41.07644761 -42.15029402 41.07644761 -35.58787632 25.68359566 C-35.23040318 24.83345894 -34.87293003 23.98332222 -34.50462437 23.10742378 C-30.97056848 15.11350985 -26.28322568 6.14986335 -18.15037632 2.24609566 C-12.09547945 0.46168793 -6.28147487 -0.04112043 0 0 Z " fill="#151515" transform="translate(487.15037631988525,20.753904342651367)"/>
</svg>
