<?xml version="1.0" standalone="no"?>
<!DOCTYPE svg PUBLIC "-//W3C//DTD SVG 20010904//EN"
 "http://www.w3.org/TR/2001/REC-SVG-20010904/DTD/svg10.dtd">
<svg version="1.0" xmlns="http://www.w3.org/2000/svg"
 width="24" height="24" viewBox="0 0 300.000000 300.000000"
 preserveAspectRatio="xMidYMid meet">

<g transform="translate(0.000000,300.000000) scale(0.100000,-0.100000)"
fill="#000000" stroke="none">
<path d="M1454 2286 c-51 -24 -84 -59 -104 -110 -10 -27 0 -105 21 -155 9 -23
10 -23 30 -5 11 10 29 37 38 59 56 127 72 174 69 203 l-3 32 -51 -24z"/>
<path d="M1515 2178 c-10 -29 -28 -74 -40 -100 -19 -39 -21 -49 -9 -59 19 -16
29 -6 49 48 10 26 26 68 37 91 11 24 17 50 14 58 -11 29 -33 12 -51 -38z"/>
<path d="M1582 2147 c-62 -143 -66 -158 -51 -168 35 -22 47 -9 90 98 24 59 45
110 47 114 2 4 -10 11 -26 17 -29 10 -29 10 -60 -61z"/>
<path d="M1713 2208 c-16 -21 -134 -310 -130 -321 3 -10 215 -107 235 -107 14
0 53 82 109 228 31 80 34 95 22 107 -11 11 -212 105 -224 105 -2 0 -7 -6 -12
-12z"/>
<path d="M690 2203 c0 -5 -2 -74 -4 -155 l-5 -148 30 0 30 0 -7 95 c-8 115 -3
125 68 125 45 0 48 1 34 16 -19 18 -19 20 -6 45 13 23 43 25 60 4 13 -16 5
-54 -13 -57 -23 -4 378 -13 406 -9 21 2 27 9 27 28 0 13 5 33 10 44 10 19 4
19 -310 19 -176 0 -320 -3 -320 -7z m581 -24 c9 -18 8 -25 -8 -41 -22 -22 -49
-16 -58 13 -14 43 44 67 66 28z"/>
<path d="M1976 2048 c-8 -18 -32 -75 -52 -127 -30 -76 -34 -95 -23 -102 8 -5
18 -8 22 -6 4 1 31 54 59 117 36 81 48 118 41 129 -17 27 -32 23 -47 -11z"/>
<path d="M1398 1973 c-13 -3 -18 -15 -18 -39 0 -27 4 -34 20 -34 17 0 20 7 20
40 0 22 -1 39 -2 39 -2 -1 -11 -3 -20 -6z"/>
<path d="M319 1853 c-10 -11 -15 -54 -17 -145 -3 -100 -7 -130 -18 -135 -20
-7 -19 -83 1 -83 12 0 15 -26 17 -152 3 -136 5 -153 21 -156 16 -3 17 17 17
311 l0 315 26 31 26 31 -30 0 c-16 0 -36 -7 -43 -17z"/>
<path d="M404 1836 l-34 -34 0 -324 0 -325 23 -21 c23 -22 26 -22 443 -22
l419 0 60 -49 c33 -27 71 -68 84 -90 23 -36 45 -51 79 -51 10 0 9 5 -2 22 -27
38 -20 95 13 129 50 50 121 31 151 -40 11 -26 10 -36 -8 -71 l-19 -40 81 0
c106 0 126 13 126 78 l0 48 -37 -4 -38 -4 0 102 0 102 33 -5 32 -6 0 188 c0
155 3 191 15 201 13 11 15 -11 15 -186 l0 -199 47 3 48 4 0 204 1 204 -39 0
-40 0 7 40 c5 33 3 40 -10 40 -11 0 -15 -8 -14 -27 4 -50 0 -63 -15 -63 -12 0
-14 7 -9 27 6 24 5 26 -17 20 -13 -4 -42 -7 -63 -7 l-39 0 7 -265 c7 -258 7
-264 -14 -285 -19 -19 -32 -20 -188 -20 -163 0 -169 1 -190 23 -20 21 -22 34
-22 124 0 98 1 102 27 123 25 19 38 21 187 19 l161 -1 3 205 2 204 -49 22
c-28 11 -53 26 -56 31 -4 6 -205 10 -567 10 l-560 0 -34 -34z m828 -56 c16
-20 18 -46 18 -275 0 -199 -3 -255 -13 -264 -8 -6 -17 -8 -20 -4 -4 3 -7 125
-7 270 l0 263 -257 -2 -258 -3 -3 -245 c-1 -135 0 -255 3 -267 5 -23 8 -23
150 -23 122 0 145 -2 145 -15 0 -23 -286 -22 -312 2 -17 15 -18 37 -18 283 0
245 2 268 18 283 15 14 51 17 228 20 293 5 304 4 326 -23z m193 -170 l0 -175
-42 -3 -43 -3 0 181 0 181 43 -3 42 -3 0 -175z m161 95 c30 -30 28 -51 -7 -77
-32 -24 -61 -17 -78 18 -12 28 -2 56 27 73 25 15 30 14 58 -14z m-1046 -55 c0
-11 -2 -12 -45 -14 l-30 -1 -3 -142 -3 -143 36 0 c19 0 35 -4 35 -9 0 -17 -18
-22 -59 -15 l-41 7 0 163 0 164 55 0 c30 0 55 -4 55 -10z m277 -72 c9 -7 13
-39 13 -94 0 -89 -9 -104 -59 -104 -40 0 -51 26 -51 120 0 76 3 89 18 93 22 6
63 -2 79 -15z"/>
<path d="M750 1491 c0 -80 0 -81 25 -81 26 0 26 0 23 78 -3 71 -5 77 -25 80
-22 3 -23 1 -23 -77z"/>
<path d="M2750 1445 c0 -362 2 -415 15 -415 13 0 15 53 15 415 0 362 -2 415
-15 415 -13 0 -15 -53 -15 -415z"/>
<path d="M2462 1808 c-9 -9 -12 -105 -12 -370 0 -343 1 -358 19 -368 11 -5 72
-10 135 -10 l116 0 0 380 0 380 -123 0 c-82 0 -127 -4 -135 -12z"/>
<path d="M2240 1440 l0 -340 90 0 90 0 0 340 0 340 -90 0 -90 0 0 -340z"/>
<path d="M2080 1440 l0 -320 65 0 65 0 0 320 0 320 -65 0 -65 0 0 -320z"/>
<path d="M2008 1711 l-37 -37 -1 -226 -1 -227 40 -40 41 -41 0 305 c0 168 -1
304 -2 304 -2 -1 -20 -18 -40 -38z"/>
<path d="M1327 1354 c-12 -13 -8 -189 5 -202 14 -14 315 -17 336 -4 9 6 12 35
10 108 l-3 99 -171 3 c-93 1 -173 -1 -177 -4z m281 -42 c2 -14 -2 -22 -12 -22
-19 0 -29 17 -22 36 8 22 30 12 34 -14z m-190 1 c-2 -12 -13 -18 -33 -18 -20
0 -31 6 -33 18 -3 14 4 17 33 17 29 0 36 -3 33 -17z m97 -3 c0 -18 -62 -27
-77 -12 -18 18 3 33 40 30 25 -2 37 -8 37 -18z m109 -59 c22 -24 14 -55 -20
-77 -22 -15 -26 -15 -49 0 -27 18 -34 63 -13 84 18 18 63 14 82 -7z m-206 -53
c3 -15 -4 -18 -32 -18 -34 0 -47 15 -29 34 13 13 58 1 61 -16z m90 0 c3 -14
-4 -18 -31 -18 -40 0 -51 8 -35 27 16 19 62 12 66 -9z"/>
<path d="M1780 1147 c0 -41 4 -55 20 -65 19 -12 20 -10 20 41 0 49 -12 77 -32
77 -4 0 -8 -24 -8 -53z"/>
<path d="M560 1030 c0 -26 5 -51 12 -58 7 -7 42 -12 87 -12 64 0 79 3 107 25
71 55 109 65 244 65 144 0 174 -7 254 -55 32 -19 70 -35 85 -35 24 0 23 4 -31
55 -44 43 -64 55 -90 56 -18 1 -176 2 -350 3 l-318 1 0 -45z"/>
<path d="M1530 1063 c-68 -24 -41 -145 28 -128 38 9 53 27 54 64 1 46 -41 78
-82 64z"/>
</g>
</svg>
