<svg preserveAspectRatio="xMidYMid meet" viewBox="0 36 297.6 197.4" xmlns="http://www.w3.org/2000/svg" version="1.1" style="max-height: 500px" width="297.6" height="197.4">
<path transform="translate(147.75,45.0625)" fill="#000000" d="M0 0 C8.79452908 6.05337716 15.19589971 14.34803888 17.25 24.9375 C18.66219003 37.16865104 17.5995207 48.53360063 10.1953125 58.78125 C3.31490298 66.87584944 -3.9424181 71.17683228 -14.125 73.875 C-15.02057617 74.12169434 -15.91615234 74.36838867 -16.83886719 74.62255859 C-27.41331197 77.48037008 -38.10171305 79.86654198 -48.78857422 82.26025391 C-51.44168948 82.86699271 -54.08307291 83.50522327 -56.72265625 84.16796875 C-70.11327816 87.52844769 -83.52278116 90.49340948 -96.32421875 83.5390625 C-98.54786765 82.09093413 -100.65103464 80.55942778 -102.75 78.9375 C-103.636875 78.339375 -104.52375 77.74125 -105.4375 77.125 C-114.2906107 68.75043582 -117.16425589 58.09628217 -117.8046875 46.234375 C-117.6235355 35.31349718 -113.3555288 26.16293433 -106.08984375 18.09375 C-97.56938658 10.1977235 -87.10793958 7.81437483 -76.10595703 5.46313477 C-72.44941189 4.64732734 -68.82253244 3.7184847 -65.18994141 2.80273438 C-59.08997655 1.2684352 -52.98291456 -0.2345504 -46.86767578 -1.70678711 C-45.3679414 -2.0700474 -43.8692379 -2.43758949 -42.37158203 -2.80932617 C-27.33824246 -6.53574836 -14.00067633 -8.21063176 0 0 Z M-28.16796875 19.21875 C-34.74407036 20.94909327 -41.35729669 22.42492963 -48 23.875 C-62.93494291 27.15867379 -62.93494291 27.15867379 -77.75 30.9375 C-78.595625 31.16824219 -79.44125 31.39898437 -80.3125 31.63671875 C-86.35130615 33.55714791 -88.62196296 36.79611199 -92.0625 41.875 C-93.43509908 45.99279724 -93.49938959 49.28167962 -91.6875 53.28515625 C-88.94049002 57.87594739 -86.340964 61.21884296 -81.01318359 62.56420898 C-71.14524423 64.1918335 -60.12937662 60.00584634 -50.625 57.625 C-49.02359204 57.22919193 -47.4220302 56.83400589 -45.8203125 56.43945312 C-42.66251684 55.66123682 -39.50789314 54.87149806 -36.35449219 54.07568359 C-33.31704247 53.3137158 -30.27419542 52.60111172 -27.21582031 51.92822266 C-26.13531906 51.68202934 -26.13531906 51.68202934 -25.0329895 51.43086243 C-23.0819541 50.98804421 -21.12726745 50.56139999 -19.17236328 50.13598633 C-14.53272526 48.51121938 -11.22418529 46.08292817 -8.39453125 41.96484375 C-6.76771896 36.84777963 -6.93843836 30.94504721 -8.9375 26 C-14.51355848 19.65483001 -19.82030323 16.94411219 -28.16796875 19.21875 Z"/>
<path transform="translate(69.19882202148438,139.75115966796875)" fill="#000000" d="M0 0 C0.72216705 0.00719055 1.44433411 0.0143811 2.18838501 0.02178955 C2.94945557 0.0214975 3.71052612 0.02120544 4.49465942 0.02090454 C7.01621814 0.02230052 9.53748323 0.03787415 12.05899048 0.05352783 C13.80490965 0.05725701 15.55083092 0.06010443 17.29675293 0.06210327 C21.89667518 0.06974722 26.49647155 0.0894022 31.09634399 0.11151123 C35.78830258 0.13195329 40.48028147 0.14110147 45.17227173 0.15118408 C54.38196252 0.17264741 63.59155979 0.20679251 72.80117798 0.24884033 C74.13992865 4.26509233 73.784994 8.05384483 73.65274048 12.22930908 C73.61572001 14.05153779 73.58062545 15.87380645 73.54727173 17.69610596 C73.49190194 20.56284023 73.42648413 23.4274291 73.32803345 26.29302979 C72.32441668 38.60492267 72.32441668 38.60492267 77.19961548 49.29962158 C77.82271606 49.80791504 78.44581665 50.3162085 79.08779907 50.83990479 C81.04489418 52.44925159 81.81570516 53.93977878 82.80117798 56.24884033 C83.46117798 56.24884033 84.12117798 56.24884033 84.80117798 56.24884033 C84.99783227 60.18593944 85.18193275 64.12352705 85.36367798 68.06134033 C85.44778931 69.7406665 85.44778931 69.7406665 85.53359985 71.45391846 C85.5819397 72.52706299 85.63027954 73.60020752 85.68008423 74.70587158 C85.75078125 76.19050903 85.75078125 76.19050903 85.82290649 77.70513916 C85.80117798 80.24884033 85.80117798 80.24884033 84.80117798 83.24884033 C82.34227317 84.47829274 80.69001683 84.39551151 77.94009399 84.42584229 C76.42325768 84.44509514 76.42325768 84.44509514 74.8757782 84.46473694 C73.77994919 84.47212387 72.68412018 84.4795108 71.55508423 84.48712158 C70.43303085 84.49519333 69.31097748 84.50326508 68.15492249 84.51158142 C65.77847849 84.52542755 63.40201455 84.53614733 61.02554321 84.54400635 C57.38201583 84.56125353 53.73938755 84.60514006 50.09609985 84.64923096 C47.790768 84.65935449 45.48542842 84.66787165 43.18008423 84.67462158 C42.08627945 84.69212967 40.99247467 84.70963776 39.86552429 84.72767639 C38.85114792 84.72475082 37.83677155 84.72182526 36.79165649 84.71881104 C35.89834122 84.72467728 35.00502594 84.73054352 34.0846405 84.73658752 C31.80117798 84.24884033 31.80117798 84.24884033 29.98927307 82.34446716 C28.80117798 80.24884033 28.80117798 80.24884033 28.80117798 78.24884033 C27.34711548 77.87759033 27.34711548 77.87759033 25.86367798 77.49884033 C24.85305298 77.08634033 23.84242798 76.67384033 22.80117798 76.24884033 C22.47117798 74.92884033 22.14117798 73.60884033 21.80117798 72.24884033 C33.68117798 71.91884033 45.56117798 71.58884033 57.80117798 71.24884033 C58.13117798 64.97884033 58.46117798 58.70884033 58.80117798 52.24884033 C61.11117798 51.25884033 63.42117798 50.26884033 65.80117798 49.24884033 C66.79117798 48.25884033 66.79117798 48.25884033 67.80117798 47.24884033 C67.80117798 45.92884033 67.80117798 44.60884033 67.80117798 43.24884033 C67.14117798 42.91884033 66.48117798 42.58884033 65.80117798 42.24884033 C65.47117798 43.89884033 65.14117798 45.54884033 64.80117798 47.24884033 C61.83117798 48.23884033 58.86117798 49.22884033 55.80117798 50.24884033 C55.47117798 56.51884033 55.14117798 62.78884033 54.80117798 69.24884033 C33.35117798 68.91884033 11.90117798 68.58884033 -10.19882202 68.24884033 C-10.85882202 66.92884033 -11.51882202 65.60884033 -12.19882202 64.24884033 C-12.95090942 64.25407715 -13.70299683 64.25931396 -14.47787476 64.26470947 C-17.86401545 64.2854126 -21.25014286 64.2984791 -24.63632202 64.31134033 C-26.41232788 64.32390869 -26.41232788 64.32390869 -28.22421265 64.33673096 C-29.34891968 64.33995361 -30.47362671 64.34317627 -31.63241577 64.34649658 C-33.19560547 64.35435181 -33.19560547 64.35435181 -34.79037476 64.36236572 C-37.19882202 64.24884033 -37.19882202 64.24884033 -38.19882202 63.24884033 C-38.4416699 59.04683621 -38.42737223 54.83892356 -38.4390564 50.63067627 C-38.44871951 48.52121918 -38.47970832 46.4127542 -38.51132202 44.30352783 C-38.51785633 42.95717945 -38.52310512 41.61082409 -38.52694702 40.26446533 C-38.53629272 39.04017822 -38.54563843 37.81589111 -38.55526733 36.55450439 C-38.13789427 32.683798 -36.97073893 30.02075724 -34.19882202 27.24884033 C-32.42012476 27.09119628 -30.63563726 26.99783356 -28.85116577 26.93243408 C-27.77157593 26.89053955 -26.69198608 26.84864502 -25.5796814 26.80548096 C-24.4433728 26.76616455 -23.30706421 26.72684814 -22.13632202 26.68634033 C-20.42605835 26.62156494 -20.42605835 26.62156494 -18.6812439 26.55548096 C-15.85390007 26.44901194 -13.02646464 26.34699826 -10.19882202 26.24884033 C-9.88944702 25.60946533 -9.58007202 24.97009033 -9.26132202 24.31134033 C-8.19882202 22.24884033 -8.19882202 22.24884033 -7.19882202 21.24884033 C-5.67951107 21.02968047 -4.15829578 20.823672 -2.63632202 20.62384033 C2.38248595 19.66583425 5.11644221 17.84149224 8.71914673 14.29571533 C9.40621704 13.62024658 10.09328735 12.94477783 10.80117798 12.24884033 C11.27175629 11.75654938 11.74233459 11.26425842 12.22717285 10.75704956 C16.12420777 6.99190566 18.80361346 5.5657358 24.23548889 5.56906128 C25.00868973 5.60002899 25.78189056 5.6309967 26.57852173 5.66290283 C27.79554527 5.67563736 27.79554527 5.67563736 29.03715515 5.68862915 C31.60573257 5.72197664 34.1710645 5.79720954 36.73867798 5.87384033 C38.48928338 5.90396454 40.23993845 5.93133604 41.9906311 5.95587158 C46.26204669 6.02170522 50.53106391 6.1250873 54.80117798 6.24884033 C54.81052368 6.95492432 54.81986938 7.6610083 54.82949829 8.38848877 C54.88323456 11.59264578 54.96687555 14.79534791 55.05117798 17.99884033 C55.06535767 19.11001221 55.07953735 20.22118408 55.09414673 21.36602783 C55.12637329 22.43594971 55.15859985 23.50587158 55.19180298 24.60821533 C55.22322388 26.08499756 55.22322388 26.08499756 55.25527954 27.59161377 C55.94421165 30.94507399 57.18790586 32.10372445 59.80117798 34.24884033 C60.66742798 34.76446533 61.53367798 35.28009033 62.42617798 35.81134033 C64.80117798 37.24884033 64.80117798 37.24884033 66.80117798 40.24884033 C68.28617798 40.74384033 68.28617798 40.74384033 69.80117798 41.24884033 C67.58133643 37.43071287 66.13773871 35.32787404 62.19961548 33.30352783 C59.64632898 31.53796801 58.90737887 30.69032145 58.17153931 27.63140869 C57.95876697 24.42442395 57.92997683 21.27475499 57.98867798 18.06134033 C57.9899497 15.8803414 57.98381979 13.69932152 57.96914673 11.51837158 C57.98227905 10.5552002 57.99541138 9.59202881 58.00894165 8.59967041 C58.03780541 6.05739399 58.03780541 6.05739399 55.80117798 4.24884033 C52.88184394 3.98713951 50.06162451 3.84797089 47.13711548 3.80743408 C46.27107697 3.79366226 45.40503845 3.77989044 44.51275635 3.76570129 C42.67520559 3.74239659 40.83756969 3.72514785 38.99990845 3.71343994 C36.20679677 3.68663418 33.41754568 3.61179378 30.62539673 3.53594971 C19.95375245 3.02112309 19.95375245 3.02112309 10.73477173 7.58087158 C9.71587891 8.76955357 8.7341624 9.99160228 7.80117798 11.24884033 C2.94770423 16.18089348 -1.00092741 18.12319825 -7.84335327 19.51055908 C-10.54403145 20.08625481 -10.54403145 20.08625481 -12.19882202 23.24884033 C-14.07821655 23.5894165 -14.07821655 23.5894165 -16.33163452 23.54180908 C-17.13729858 23.53214111 -17.94296265 23.52247314 -18.77304077 23.51251221 C-19.61479858 23.48737549 -20.4565564 23.46223877 -21.32382202 23.43634033 C-22.5980603 23.4160376 -22.5980603 23.4160376 -23.89804077 23.39532471 C-25.99857039 23.35992252 -28.09877495 23.30611434 -30.19882202 23.24884033 C-30.19882202 18.62884033 -30.19882202 14.00884033 -30.19882202 9.24884033 C-23.18076345 8.1479684 -16.29316435 8.15150942 -9.19882202 8.24884033 C-8.91007202 7.30009033 -8.62132202 6.35134033 -8.32382202 5.37384033 C-6.53759564 0.41210039 -5.06934859 0.02114746 0 0 Z M30.80117798 31.24884033 C29.37053125 35.21309049 29.35066865 38.18184456 30.98867798 42.06134033 C33.96684517 45.65568004 35.48816879 47.08173007 40.23867798 47.68634033 C44.42025129 47.17281378 45.92856038 46.28560751 48.80117798 43.24884033 C50.48718021 40.33665466 50.80885206 38.61719614 50.73867798 35.24884033 C49.56643052 31.49764847 47.72667017 29.808646 44.80117798 27.24884033 C44.47117798 26.91884033 44.14117798 26.58884033 43.80117798 26.24884033 C37.72700211 25.53423141 34.84131292 26.63154326 30.80117798 31.24884033 Z M6.80117798 33.24884033 C6.47117798 34.56884033 6.14117798 35.88884033 5.80117798 37.24884033 C8.27617798 37.74384033 8.27617798 37.74384033 10.80117798 38.24884033 C10.47117798 36.59884033 10.14117798 34.94884033 9.80117798 33.24884033 C8.81117798 33.24884033 7.82117798 33.24884033 6.80117798 33.24884033 Z M4.98867798 53.37384033 C3.23115384 56.14887844 3.33295052 58.03813778 3.80117798 61.24884033 C5.30117798 63.415507 5.30117798 63.415507 7.80117798 64.24884033 C11.02292342 63.53660186 11.02292342 63.53660186 13.80117798 62.24884033 C14.89644778 57.97738594 14.89644778 57.97738594 13.67617798 53.87384033 C11.88886194 52.04308994 11.88886194 52.04308994 9.30117798 51.81134033 C6.81035435 52.08705506 6.81035435 52.08705506 4.98867798 53.37384033 Z M64.80117798 53.24884033 C64.55086821 55.83264211 64.55086821 55.83264211 64.80117798 58.24884033 C65.46117798 58.24884033 66.12117798 58.24884033 66.80117798 58.24884033 C66.80117798 57.58884033 66.80117798 56.92884033 66.80117798 56.24884033 C68.12117798 56.24884033 69.44117798 56.24884033 70.80117798 56.24884033 C70.47117798 57.89884033 70.14117798 59.54884033 69.80117798 61.24884033 C65.34617798 62.73384033 65.34617798 62.73384033 60.80117798 64.24884033 C61.13117798 65.23884033 61.46117798 66.22884033 61.80117798 67.24884033 C65.32990942 68.42508414 66.77941851 67.81000276 70.07461548 66.26055908 C72.83938176 64.6404811 74.29348721 63.06756655 75.80117798 60.24884033 C75.53919532 57.04582737 75.53919532 57.04582737 73.80117798 54.24884033 C69.37281952 50.84329752 69.37281952 50.84329752 64.80117798 53.24884033 Z"/>
<path transform="translate(25.16015625,133.90234375)" fill="#000000" d="M0 0 C1.93166016 0.01740234 1.93166016 0.01740234 3.90234375 0.03515625 C5.19269531 0.04417969 6.48304687 0.05320313 7.8125 0.0625 C8.81152344 0.07410156 9.81054688 0.08570313 10.83984375 0.09765625 C11.01375476 4.2600539 11.14029751 8.42049418 11.22436523 12.58544922 C11.25942725 13.99988663 11.30709503 15.41407283 11.36791992 16.82763672 C11.87433303 28.90495096 11.87433303 28.90495096 9.28344727 31.89208984 C8.00954955 32.73680128 6.7300423 33.57311397 5.44506836 34.40087891 C1.68792446 38.37230858 2.85857969 45.33938978 2.90234375 50.47265625 C2.88623047 51.78105469 2.87011719 53.08945313 2.85351562 54.4375 C2.81824791 57.65861797 2.81474329 60.87653602 2.83984375 64.09765625 C-0.97264051 64.12652861 -4.78509695 64.14441117 -8.59765625 64.16015625 C-9.68626953 64.16853516 -10.77488281 64.17691406 -11.89648438 64.18554688 C-12.93095703 64.18876953 -13.96542969 64.19199219 -15.03125 64.1953125 C-15.9895874 64.20054932 -16.9479248 64.20578613 -17.93530273 64.21118164 C-20.16015625 64.09765625 -20.16015625 64.09765625 -21.16015625 63.09765625 C-21.26390077 61.51779874 -21.29867493 59.93334343 -21.30541992 58.35009766 C-21.31179977 57.33879791 -21.31817963 56.32749817 -21.32475281 55.28555298 C-21.32586563 54.18456268 -21.32697845 53.08357239 -21.328125 51.94921875 C-21.3314534 50.82575043 -21.3347818 49.7022821 -21.33821106 48.54476929 C-21.34328561 46.16233735 -21.34561922 43.77989827 -21.34545898 41.39746094 C-21.3476427 37.74532375 -21.36578544 34.0934898 -21.38476562 30.44140625 C-21.38769994 28.13151145 -21.38968448 25.82161522 -21.390625 23.51171875 C-21.39781052 22.41477692 -21.40499603 21.31783508 -21.41239929 20.18765259 C-21.40932266 19.17004852 -21.40624603 18.15244446 -21.40307617 17.10400391 C-21.40450119 16.20767242 -21.40592621 15.31134094 -21.40739441 14.3878479 C-21.16015625 12.09765625 -21.16015625 12.09765625 -19.16015625 9.09765625 C-16.58336396 8.3941051 -14.15526528 7.85248093 -11.53515625 7.41015625 C-10.47554687 7.21583008 -10.47554687 7.21583008 -9.39453125 7.01757812 C-7.65176271 6.69964062 -5.90618751 6.39715796 -4.16015625 6.09765625 C-4.18078125 5.29328125 -4.20140625 4.48890625 -4.22265625 3.66015625 C-4.13011871 -0.13388273 -3.86403378 0.11940772 0 0 Z"/>
<path transform="translate(268,126)" fill="#000000" d="M0 0 C6.6 0 13.2 0 20 0 C21.67062089 1.67062089 21.12569043 3.70553826 21.13552856 5.93637085 C21.13350433 6.64186066 21.1314801 7.34735046 21.12939453 8.07421875 C21.13114685 8.81402985 21.13289917 9.55384094 21.13470459 10.31607056 C21.1391231 12.77323723 21.13618513 15.23033253 21.1328125 17.6875 C21.13348554 19.38761407 21.13445557 21.08772805 21.13571167 22.7878418 C21.13718864 26.35564081 21.13503411 29.92341483 21.13037109 33.49121094 C21.1246738 38.07488494 21.12795281 42.65850039 21.13394356 47.24217224 C21.13754919 50.75419561 21.13641057 54.26620498 21.13381577 57.77822876 C21.1331465 59.46880093 21.13397489 61.15937436 21.13629532 62.84994507 C21.13882189 65.20859157 21.13498121 67.56714195 21.12939453 69.92578125 C21.13141876 70.63127106 21.13344299 71.33676086 21.13552856 72.06362915 C21.11426271 76.88573729 21.11426271 76.88573729 20 78 C13.4 78 6.8 78 0 78 C0 52.26 0 26.52 0 0 Z"/>
<path transform="translate(133.0625,69.75)" fill="#000000" d="M0 0 C2.90294516 3.37116213 3.81522695 5.14954253 4.3125 9.625 C3.84913114 14.10423236 2.97296775 15.91838906 -0.0625 19.25 C-6.06528803 22.68218975 -12.53952027 24.28605594 -19.25 25.6875 C-21.17713305 26.10784504 -23.1042148 26.52842535 -25.03125 26.94921875 C-26.01738281 27.1611084 -27.00351563 27.37299805 -28.01953125 27.59130859 C-33.10439851 28.69199632 -38.17676895 29.84708875 -43.25 31 C-44.18803467 31.21068115 -45.12606934 31.4213623 -46.0925293 31.63842773 C-46.96304932 31.83509033 -47.83356934 32.03175293 -48.73046875 32.234375 C-49.49641357 32.40678711 -50.2623584 32.57919922 -51.05151367 32.75683594 C-52.74426268 33.1719571 -54.40903325 33.69884442 -56.0625 34.25 C-61.0840488 34.80181855 -66.35813788 35.36657869 -70.6875 32.375 C-73.92002038 28.12168371 -74.43693827 24.52696728 -74.0625 19.25 C-72.39784723 14.99588736 -69.8591763 12.71831065 -66.0625 10.25 C-62.0398523 8.99956047 -57.9407702 8.19845199 -53.8125 7.375 C-51.37969977 6.86701285 -48.94741834 6.35653561 -46.515625 5.84375 C-45.27876953 5.58464844 -44.04191406 5.32554688 -42.76757812 5.05859375 C-39.19597643 4.2791298 -35.65370573 3.42593543 -32.109375 2.53125 C-31.00754883 2.25394043 -29.90572266 1.97663086 -28.77050781 1.69091797 C-26.69451833 1.16291516 -24.62075294 0.62605519 -22.54980469 0.07861328 C-6.79156029 -3.8808916 -6.79156029 -3.8808916 0 0 Z M-15.0625 3.25 C-16.74555813 6.1352425 -17.06827608 7.9669722 -17 11.3125 C-15.79202628 15.09748434 -14.48354997 16.27339335 -11.0625 18.25 C-7.2802434 18.8803761 -5.60638796 18.55215998 -2.25 16.6875 C0.65944213 13.44555019 1.08721147 11.59163268 0.9375 7.25 C-0.88918938 3.67462844 -0.88918938 3.67462844 -4.0625 1.25 C-8.16957559 0.67356834 -11.70117363 0.63563504 -15.0625 3.25 Z M-69.0625 16.25 C-70.67867807 19.48235615 -70.63599284 22.7556948 -70.0625 26.25 C-68.2491503 29.4801177 -68.2491503 29.4801177 -65.0625 31.25 C-62.14297707 31.62578018 -59.81338183 31.28158069 -57.0625 30.25 C-54.33574837 28.27928108 -54.33574837 28.27928108 -53.0625 25.25 C-53.0625 21.31342372 -53.4631382 19.09354624 -55.75 15.875 C-60.67177343 12.41645651 -64.35518748 12.61864463 -69.0625 16.25 Z"/>
<path transform="translate(174,140)" fill="#000000" d="M0 0 C7.59 0 15.18 0 23 0 C23.67815956 3.3907978 24.12553403 5.83915063 24.12939453 9.16015625 C24.13254669 9.94447021 24.13569885 10.72878418 24.13894653 11.53686523 C24.1369223 12.37032471 24.13489807 13.20378418 24.1328125 14.0625 C24.13424759 15.36586304 24.13424759 15.36586304 24.13571167 16.69555664 C24.13639044 18.52783277 24.1345573 20.36011134 24.13037109 22.19238281 C24.12501858 24.99028954 24.13032636 27.78803574 24.13671875 30.5859375 C24.13605791 32.36979202 24.13477664 34.15364644 24.1328125 35.9375 C24.13483673 36.77095947 24.13686096 37.60441895 24.13894653 38.46313477 C24.13579437 39.24744873 24.13264221 40.0317627 24.12939453 40.83984375 C24.12859894 41.52425537 24.12780334 42.20866699 24.12698364 42.91381836 C24 45 24 45 23 50 C15.41 50 7.82 50 0 50 C0 33.5 0 17 0 0 Z"/>
<path transform="translate(216,134)" fill="#000000" d="M0 0 C5.94 0 11.88 0 18 0 C18 20.79 18 41.58 18 63 C12.06 63 6.12 63 0 63 C0 42.21 0 21.42 0 0 Z"/>
<path transform="translate(237,134)" fill="#000000" d="M0 0 C4.62 0 9.24 0 14 0 C15.17485026 9.90230937 15.1522051 19.75072534 15.13037109 29.70703125 C15.1249999 32.62505254 15.13034753 35.54292082 15.13671875 38.4609375 C15.13605808 40.34114617 15.13477715 42.22135474 15.1328125 44.1015625 C15.13483673 44.96117584 15.13686096 45.82078918 15.13894653 46.70645142 C15.11791125 52.20996655 14.69180144 57.5390967 14 63 C9.38 63 4.76 63 0 63 C0 42.21 0 21.42 0 0 Z"/>
<path transform="translate(200,134)" fill="#000000" d="M0 0 C4.29 0 8.58 0 13 0 C13 20.79 13 41.58 13 63 C8.71 63 4.42 63 0 63 C0 42.21 0 21.42 0 0 Z"/>
<path transform="translate(264,127)" fill="#000000" d="M0 0 C0 25.08 0 50.16 0 76 C-9 71 -9 71 -10 69 C-10.13734624 67.03125462 -10.2115038 65.05798182 -10.25634766 63.08496094 C-10.28532135 61.84317078 -10.31429504 60.60138062 -10.34414673 59.32196045 C-10.43392505 54.38296671 -10.50146898 49.44365487 -10.54844093 44.50407028 C-10.58420262 40.7547486 -10.63749643 37.00757294 -10.73388672 33.25927734 C-10.8268732 29.63221133 -10.87538388 26.0070432 -10.89283371 22.37885284 C-10.90690144 20.99918345 -10.93648441 19.61957863 -10.98213577 18.24059296 C-11.32207904 7.44356137 -11.32207904 7.44356137 -7.96942139 3.78283691 C-2.40920479 0 -2.40920479 0 0 0 Z"/>
<path transform="translate(132,123)" fill="#000000" d="M0 0 C0.66 4.29 1.32 8.58 2 13 C-13.84 13 -29.68 13 -46 13 C-45.67 12.01 -45.34 11.02 -45 10 C-42.32299805 9.06445312 -42.32299805 9.06445312 -38.76171875 8.28125 C-38.12571243 8.13723755 -37.48970612 7.9932251 -36.83442688 7.84484863 C-34.78798753 7.38417695 -32.73811549 6.94167103 -30.6875 6.5 C-28.68402114 6.05585879 -26.68138803 5.60803307 -24.67874146 5.16015625 C-23.36123917 4.86637142 -22.04326449 4.57469698 -20.724823 4.28515625 C-15.57376502 3.15006123 -10.46679597 1.87634404 -5.36645508 0.53320312 C-3 0 -3 0 0 0 Z"/>
<path transform="translate(146,150)" fill="#000000" d="M0 0 C2.97 0 5.94 0 9 0 C9 10.23 9 20.46 9 31 C6.03 31 3.06 31 0 31 C0 20.77 0 10.54 0 0 Z"/>
<path transform="translate(292,123)" fill="#000000" d="M0 0 C0.99 0 1.98 0 3 0 C3 28.05 3 56.1 3 85 C2.01 85 1.02 85 0 85 C0 56.95 0 28.9 0 0 Z"/>
<path transform="translate(157,212)" fill="#000000" d="M0 0 C20.295 0.495 20.295 0.495 41 1 C41 3.31 41 5.62 41 8 C35.32169922 8.02464705 29.64342931 8.04283462 23.96508789 8.05493164 C22.03181415 8.05997256 20.09854424 8.06680519 18.1652832 8.07543945 C15.39273128 8.08751565 12.62022959 8.09323057 9.84765625 8.09765625 C8.54297142 8.10539818 8.54297142 8.10539818 7.21192932 8.11329651 C5.14094186 8.11349185 3.07005676 8.06208168 1 8 C0.67 7.67 0.34 7.34 0 7 C0 4.69 0 2.38 0 0 Z"/>
<path transform="translate(165,140)" fill="#000000" d="M0 0 C1.65 0 3.3 0 5 0 C5.33 16.5 5.66 33 6 50 C4.02 50 2.04 50 0 50 C0 33.5 0 17 0 0 Z"/>
<path transform="translate(201,200)" fill="#000000" d="M0 0 C2.97 0 5.94 0 9 0 C9 7.26 9 14.52 9 22 C6.03 22 3.06 22 0 22 C0 14.74 0 7.48 0 0 Z"/>
<path transform="translate(214,213)" fill="#000000" d="M0 0 C7.59 0 15.18 0 23 0 C23 1.98 23 3.96 23 6 C15.41 6 7.82 6 0 6 C0 4.02 0 2.04 0 0 Z"/>
<path transform="translate(158,145)" fill="#000000" d="M0 0 C0.99 0 1.98 0 3 0 C3 13.2 3 26.4 3 40 C2.01 40 1.02 40 0 40 C0 26.8 0 13.6 0 0 Z"/>
</svg>