<svg version="1.0" xmlns="http://www.w3.org/2000/svg"
 width="24" height="24" viewBox="0 0 300.000000 300.000000"
 preserveAspectRatio="xMidYMid meet">

<g transform="translate(0.000000,300.000000) scale(0.100000,-0.100000)"
fill="#000000" stroke="none">
<path d="M1348 2189 c-10 -5 -18 -20 -18 -32 l0 -21 16 22 c21 30 50 28 68 -5
14 -26 15 -26 16 -6 0 42 -43 65 -82 42z"/>
<path d="M336 2078 c-14 -20 -16 -86 -16 -523 0 -383 3 -506 13 -525 l13 -25
427 -3 427 -2 0 550 0 550 -424 0 -425 0 -15 -22z m112 -20 c18 -18 15 -46 -7
-57 -14 -8 -23 -6 -36 9 -17 19 -17 21 0 40 21 23 27 24 43 8z m690 0 c17 -17
15 -43 -4 -59 -31 -26 -70 25 -44 56 15 18 32 19 48 3z m3 -107 l29 -29 0
-370 0 -370 -26 -31 -26 -31 -228 0 -228 0 -31 26 -31 26 0 375 0 375 29 29
29 29 227 0 227 0 29 -29z m-686 -871 c12 -38 -30 -65 -54 -36 -9 11 -10 20
-1 35 14 27 47 27 55 1z m689 2 c15 -18 15 -20 -4 -37 -32 -29 -78 6 -50 40
17 20 33 19 54 -3z"/>
<path d="M674 1918 c1 -16 -4 -23 -17 -22 -16 2 -17 -20 -15 -365 l3 -366 234
-3 c164 -2 238 1 247 9 19 16 21 738 2 757 -9 9 -75 12 -233 12 l-222 0 1 -22z
m446 -1 c0 -8 -3 -17 -7 -20 -9 -9 -34 13 -27 24 8 14 34 11 34 -4z m-46 -43
c9 -3 16 -12 16 -20 0 -10 -39 -14 -196 -16 -108 -2 -201 0 -207 4 -7 4 -7 11
2 22 11 14 42 16 191 16 98 0 185 -3 194 -6z m14 -76 c3 -17 -11 -18 -197 -18
-195 0 -201 1 -201 20 0 20 5 20 197 18 179 -3 198 -5 201 -20z m-3 -58 c0
-13 -28 -15 -195 -15 -178 0 -195 1 -198 18 -3 16 10 17 195 15 168 -3 198 -5
198 -18z m5 -55 c0 -13 -29 -15 -205 -15 -176 0 -205 2 -205 15 0 13 29 15
205 15 176 0 205 -2 205 -15z m-5 -55 c0 -13 -30 -15 -197 -18 -194 -2 -198
-2 -198 18 0 20 4 20 198 18 167 -3 197 -5 197 -18z m5 -55 c0 -13 -29 -15
-200 -15 -171 0 -200 2 -200 15 0 13 29 15 200 15 171 0 200 -2 200 -15z m-2
-57 c3 -17 -12 -18 -202 -18 -171 0 -206 2 -206 14 0 8 6 17 13 19 6 3 97 5
202 4 172 -2 190 -4 193 -19z m2 -53 c0 -17 5 -16 -175 -17 -219 0 -225 0
-225 17 0 13 29 15 200 15 171 0 200 -2 200 -15z m-16 -41 c9 -3 16 -12 16
-20 0 -12 -36 -14 -200 -14 -160 0 -200 3 -200 13 0 8 3 17 7 20 8 9 356 9
377 1z m11 -74 c0 -13 -30 -15 -202 -18 -165 -2 -203 0 -203 11 0 8 3 17 7 21
4 3 95 5 202 4 166 -3 196 -5 196 -18z m3 -40 c1 0 2 -6 2 -14 0 -21 -47 -26
-224 -26 -113 0 -166 4 -174 12 -33 33 -3 37 218 32 96 -2 176 -4 178 -4z m0
-72 c3 -17 -11 -18 -197 -18 -122 0 -202 4 -206 10 -16 26 13 30 203 28 178
-3 197 -5 200 -20z m-408 -54 c0 -8 -7 -14 -15 -14 -15 0 -21 21 -9 33 10 9
24 -2 24 -19z m440 1 c0 -8 -9 -15 -20 -15 -20 0 -26 11 -13 23 12 13 33 7 33
-8z"/>
<path d="M1232 1550 l-2 -550 103 0 103 0 38 39 39 39 -1 472 0 472 -38 39
-38 39 -101 0 -100 0 -3 -550z m139 280 c18 -10 19 -23 19 -190 0 -153 -2
-180 -15 -180 -13 0 -15 26 -15 175 l0 175 -25 0 c-24 0 -32 10 -18 23 9 10
31 9 54 -3z m73 -441 c37 -44 35 -92 -5 -130 -43 -41 -91 -40 -130 2 -38 40
-39 86 -3 128 21 26 33 31 69 31 36 0 48 -5 69 -31z"/>
<path d="M257 1993 c-7 -7 -10 -153 -3 -153 2 0 11 -3 20 -6 14 -5 16 6 16 80
0 65 -3 86 -13 86 -8 0 -17 -3 -20 -7z"/>
<path d="M2752 1545 c2 -288 7 -445 13 -445 6 0 11 157 13 445 2 393 0 445
-13 445 -13 0 -15 -52 -13 -445z"/>
<path d="M2439 1931 c-18 -22 -19 -47 -19 -386 0 -451 -14 -415 166 -415 l124
0 0 413 0 414 -126 -1 c-121 -1 -127 -2 -145 -25z"/>
<path d="M1763 1918 c-11 -13 -28 -35 -38 -50 -9 -16 -25 -28 -35 -28 -14 0
-19 -12 -24 -56 -3 -30 -4 -59 -1 -64 3 -4 20 -10 39 -12 34 -4 34 -3 41 42 4
25 12 51 17 58 7 8 7 12 -1 12 -7 0 -19 -16 -27 -35 -14 -35 -28 -44 -39 -25
-9 14 37 80 62 86 11 3 32 17 44 30 18 19 21 29 13 41 -16 25 -28 26 -51 1z"/>
<path d="M2205 1907 c-3 -6 -4 -174 -3 -372 l3 -360 93 -3 92 -3 0 376 0 375
-90 0 c-64 0 -92 -4 -95 -13z"/>
<path d="M2025 1877 c-3 -6 -4 -161 -3 -342 l3 -330 69 0 68 0 3 343 2 342
-69 0 c-46 0 -70 -4 -73 -13z"/>
<path d="M1936 1825 l-49 -45 5 -233 c3 -127 9 -239 13 -247 4 -8 25 -30 46
-49 l39 -33 0 326 c0 179 -1 326 -2 326 -2 0 -25 -20 -52 -45z"/>
<path d="M1550 1550 l0 -310 40 0 40 0 0 310 0 310 -40 0 -40 0 0 -310z"/>
<path d="M1780 1548 l0 -228 40 0 40 0 -2 227 -3 228 -37 0 -38 0 0 -227z"/>
<path d="M1667 1648 c-7 -51 5 -368 14 -368 5 0 12 -1 15 -2 3 -2 6 69 7 157
3 218 20 216 27 -2 l6 -168 2 208 2 207 -34 0 c-30 0 -34 -3 -39 -32z"/>
<path d="M260 1330 c0 -38 4 -50 15 -50 11 0 15 12 15 50 0 38 -4 50 -15 50
-11 0 -15 -12 -15 -50z"/>
</g>
</svg>
