<svg version="1.1" xmlns="http://www.w3.org/2000/svg" width="24" height="24" viewBox="0 0 24 24">
  <path d="M2.246 9.708 2.301 9.756l0.051 0.045C2.67 10.098 2.871 10.512 3.083 10.884q0.045 0.078 0.09 0.157C3.789 12.111 3.789 12.111 4.05 12.633h0.115v-0.046h0.092v-0.046h0.115v-0.046h0.115v-0.046l0.207 -0.023v-0.046h0.115v-0.046h0.092v-0.046h0.115v-0.046h0.115v-0.046l0.051 -0.017c0.254 -0.087 0.499 -0.195 0.746 -0.303 0.135 -0.059 0.271 -0.118 0.406 -0.177l0.042 -0.018c0.312 -0.136 0.624 -0.269 0.937 -0.402l0.072 -0.03 0.07 -0.03 0.07 -0.03q0.073 -0.031 0.146 -0.061c0.134 -0.055 0.263 -0.113 0.391 -0.18 0.655 -0.341 1.239 -0.366 1.969 -0.344 0.137 0.004 0.275 0.005 0.412 0.007 0.256 0.003 0.512 0.007 0.768 0.013 0.389 0.008 0.778 0.012 1.167 0.015l0.09 0.001 0.36 0.002c0.208 0.001 0.415 0.003 0.623 0.006 0.554 0.006 1.107 0.009 1.661 0.003q0.128 -0.001 0.255 -0.002l0.084 -0.001 0.164 -0.001c0.156 -0.001 0.313 -0.004 0.469 -0.007 0.096 -0.002 0.192 -0.002 0.288 -0.003q0.065 -0.001 0.131 -0.002c0.318 -0.009 0.555 0.061 0.84 0.202 0.072 0.035 0.144 0.068 0.217 0.1 0.067 0.03 0.133 0.061 0.2 0.092 0.092 0.043 0.184 0.085 0.276 0.127l0.056 0.026c0.23 0.106 0.46 0.209 0.691 0.312 0.192 0.086 0.384 0.172 0.576 0.258l0.059 0.026c0.322 0.145 0.643 0.29 0.964 0.435a383.379 383.379 0 0 0 0.939 0.424 235.95 235.95 0 0 1 1.031 0.466c0.174 0.079 0.349 0.158 0.526 0.231l0.082 0.034q0.073 0.03 0.146 0.059l0.063 0.026 0.054 0.021c0.064 0.052 0.074 0.118 0.089 0.196 0.005 0.073 0.004 0.145 0.003 0.217l-0.001 0.058c-0.001 0.046 -0.001 0.093 -0.002 0.139l-0.047 0c-1.712 -0.005 -3.424 -0.011 -5.135 -0.013l-0.078 0q-0.842 -0.001 -1.684 -0.003l-0.826 -0.001 -0.083 0A1426.539 1426.539 0 0 1 12.817 14.058c-0.908 -0.003 -1.816 -0.005 -2.724 -0.006l-0.39 0 -0.077 0c-0.378 0 -0.755 -0.002 -1.133 -0.003a243.498 243.498 0 0 0 -1.714 -0.002l-0.069 0c-1.711 0.004 -3.401 0.118 -5.101 0.31l-0.087 0.01q-0.079 0.009 -0.159 0.018c-0.307 0.035 -0.307 0.035 -0.388 -0.023l-0.059 -0.059 -0.066 -0.063 -0.034 -0.033c-0.074 -0.069 -0.155 -0.132 -0.234 -0.195L0.529 13.967l-0.04 -0.03c-0.073 -0.099 -0.056 -0.259 -0.061 -0.379l-0.002 -0.052q-0.003 -0.085 -0.006 -0.17l-0.005 -0.12a200.629 200.629 0 0 1 -0.009 -0.251 167.563 167.563 0 0 0 -0.012 -0.317C0.362 11.81 0.362 11.81 0.368 11.413c0.089 -0.027 0.159 -0.046 0.253 -0.046l-0.005 -0.049c-0.022 -0.244 -0.022 -0.486 -0.021 -0.731l0 -0.066c0 -0.255 0.002 -0.509 0.011 -0.764l0.002 -0.062c0.004 -0.091 0.012 -0.159 0.058 -0.238 0.475 -0.332 1.183 -0.082 1.579 0.251M9.687 11.114c0.051 0.052 0.101 0.093 0.163 0.132l0.056 0.036 0.06 0.039 0.063 0.04q0.064 0.041 0.127 0.082c0.086 0.055 0.171 0.11 0.256 0.165l0.096 0.062c0.207 0.134 0.413 0.268 0.619 0.402 0.199 0.129 0.398 0.259 0.597 0.387q0.211 0.136 0.421 0.273l0.058 0.037a79.64 79.64 0 0 1 0.303 0.198l0.063 0.041q0.059 0.039 0.119 0.078l0.054 0.036 0.047 0.031c0.061 0.037 0.125 0.068 0.189 0.1l0.023 -2.117c-0.79 -0.018 -1.579 -0.025 -2.369 -0.024l-0.071 0q-0.437 0 -0.874 0.001m3.613 0.023v2.117c0.162 -0.103 0.32 -0.206 0.476 -0.316q0.061 -0.043 0.121 -0.085l0.06 -0.042c0.078 -0.055 0.157 -0.109 0.236 -0.163 0.15 -0.103 0.299 -0.207 0.449 -0.311q0.269 -0.188 0.54 -0.372c0.168 -0.115 0.335 -0.231 0.502 -0.348a34.907 34.907 0 0 1 0.451 -0.31c0.066 -0.045 0.124 -0.089 0.179 -0.146q-0.355 -0.005 -0.71 -0.009 -0.165 -0.002 -0.33 -0.004 -0.161 -0.002 -0.322 -0.004l-0.12 -0.002c-0.511 -0.007 -1.022 -0.004 -1.533 -0.004m-4.646 0.083 -0.054 0.024 -0.062 0.027 -0.068 0.03 -0.072 0.031q-0.077 0.034 -0.154 0.068c-0.125 0.055 -0.249 0.11 -0.374 0.164l-0.13 0.057c-0.299 0.131 -0.598 0.258 -0.898 0.386l-0.383 0.163q-0.359 0.153 -0.718 0.306l-0.128 0.055q-0.087 0.037 -0.174 0.074l-0.052 0.022c-0.076 0.029 -0.076 0.029 -0.141 0.075a5.384 5.384 0 0 0 -0.002 0.199l0 0.06c0 0.064 0 0.128 0.001 0.191q0 0.065 0 0.129 0 0.159 0.001 0.318c0.24 0.012 0.48 0.021 0.72 0.026 0.112 0.003 0.223 0.006 0.335 0.012 0.469 0.044 0.469 0.044 0.905 -0.086 0.114 -0.114 0.181 -0.244 0.242 -0.392 0.052 -0.115 0.127 -0.214 0.2 -0.316 0.14 -0.206 0.28 -0.412 0.42 -0.618q0.143 -0.211 0.287 -0.422c0.131 -0.191 0.261 -0.383 0.388 -0.576 -0.045 -0.029 -0.045 -0.029 -0.09 -0.009M16.913 11.206v2.393h5.292c-0.083 -0.062 -0.161 -0.104 -0.254 -0.146l-0.048 -0.022q-0.078 -0.036 -0.157 -0.071l-0.11 -0.05A128.514 128.514 0 0 0 21.308 13.162l-0.046 -0.021c-0.162 -0.073 -0.324 -0.146 -0.486 -0.218a268.004 268.004 0 0 1 -0.577 -0.259l-0.059 -0.026A445.231 445.231 0 0 1 19.237 12.23a456.023 456.023 0 0 0 -1.231 -0.555q-0.18 -0.081 -0.36 -0.162 -0.123 -0.055 -0.245 -0.11 -0.059 -0.026 -0.117 -0.053a72 72 0 0 0 -0.161 -0.072l-0.048 -0.022c-0.077 -0.037 -0.077 -0.037 -0.161 -0.049m-7.801 0.069a3.175 3.175 0 0 0 -0.082 0.109l-0.045 0.061c-0.066 0.094 -0.129 0.19 -0.193 0.285 -0.077 0.116 -0.156 0.231 -0.234 0.347l-0.051 0.075a676.993 676.993 0 0 1 -0.414 0.608q-0.09 0.132 -0.18 0.264l-0.047 0.069 -0.089 0.13c-0.06 0.088 -0.12 0.175 -0.183 0.261 -0.052 0.061 -0.052 0.061 -0.048 0.115h1.588V11.275zm0.322 0.092v2.232h3.406c-0.078 -0.078 -0.15 -0.131 -0.243 -0.187 -0.179 -0.109 -0.354 -0.225 -0.528 -0.342 -0.245 -0.164 -0.245 -0.164 -0.495 -0.322 -0.182 -0.112 -0.359 -0.231 -0.536 -0.35 -0.15 -0.1 -0.3 -0.2 -0.453 -0.294 -0.169 -0.103 -0.333 -0.213 -0.498 -0.324C9.776 11.523 9.776 11.523 9.434 11.367m6.988 0.141 -0.108 0.077 -0.057 0.041c-0.093 0.066 -0.186 0.131 -0.279 0.196l-0.058 0.04c-0.214 0.15 -0.428 0.299 -0.643 0.448Q15.111 12.425 14.945 12.541l-0.132 0.092 -0.066 0.046 -0.265 0.184 -0.131 0.091q-0.172 0.12 -0.345 0.24l-0.072 0.05 -0.136 0.095Q13.71 13.4 13.622 13.461l-0.051 0.035A5.131 5.131 0 0 0 13.461 13.576v0.023h3.152v-2.209c-0.061 0 -0.141 0.082 -0.191 0.118" fill="#000000"/>
  <path d="M2.246 9.708 2.301 9.756l0.051 0.045C2.67 10.098 2.871 10.512 3.083 10.884q0.045 0.078 0.09 0.157C3.789 12.111 3.789 12.111 4.05 12.633h0.115v-0.046h0.092v-0.046h0.115v-0.046h0.115v-0.046l0.207 -0.023v-0.046h0.115v-0.046h0.092v-0.046h0.115v-0.046h0.115v-0.046l0.115 0.023q0.001 0.259 0.001 0.519 0 0.12 0.001 0.241c0.001 0.346 0 0.69 -0.025 1.035 -0.512 0.061 -1.024 0.115 -1.538 0.162q-0.133 0.012 -0.265 0.024 -0.221 0.02 -0.442 0.041 -0.255 0.023 -0.51 0.047 -0.248 0.023 -0.496 0.046l-0.209 0.019q-0.122 0.011 -0.245 0.022 -0.066 0.006 -0.132 0.012l-0.08 0.007 -0.069 0.006c-0.192 0.013 -0.192 0.013 -0.263 -0.039l-0.059 -0.059 -0.066 -0.063 -0.034 -0.033c-0.074 -0.069 -0.155 -0.132 -0.234 -0.195L0.529 13.967l-0.04 -0.03c-0.073 -0.099 -0.056 -0.259 -0.061 -0.379l-0.002 -0.052q-0.003 -0.085 -0.006 -0.17l-0.005 -0.12a200.629 200.629 0 0 1 -0.009 -0.251 167.563 167.563 0 0 0 -0.012 -0.317C0.362 11.81 0.362 11.81 0.368 11.413c0.089 -0.027 0.159 -0.046 0.253 -0.046l-0.005 -0.049c-0.022 -0.244 -0.022 -0.486 -0.021 -0.731l0 -0.066c0 -0.255 0.002 -0.509 0.011 -0.764l0.002 -0.062c0.004 -0.091 0.012 -0.159 0.058 -0.238 0.475 -0.332 1.183 -0.082 1.579 0.251" fill="#151515"/>
</svg>
