<svg version="1.1" xmlns="http://www.w3.org/2000/svg" width="24" height="24" viewBox="0 0 24 24">
  <path d="M7.28 10.4c0.235 0.144 0.358 0.236 0.48 0.48 0.003 0.136 0.006 0.272 0.007 0.408 0.015 0.807 0.266 1.366 0.633 2.072a18.56 18.56 0 0 1 0.195 0.465c0.347 0.844 0.723 1.676 1.109 2.503l0.07 0.15q0.173 0.371 0.348 0.742c0.219 0.468 0.427 0.932 0.598 1.42l0.221 0.002q0.408 0.005 0.816 0.014 0.176 0.003 0.353 0.005c0.169 0.002 0.339 0.005 0.508 0.01l0.309 0.005c0.317 0.051 0.45 0.137 0.673 0.364 0.08 0.241 0.088 0.403 0.085 0.655l-0.002 0.218L13.68 20.08h0.48v1.36h-0.48l0.008 0.161c0.022 0.718 0.022 0.718 -0.248 1.039 -0.299 0.199 -0.532 0.184 -0.878 0.184l-0.197 0.002c-0.215 0.002 -0.43 0.003 -0.645 0.003l-0.448 0.002q-0.47 0.002 -0.94 0.002c-0.401 0 -0.803 0.003 -1.204 0.007 -0.309 0.002 -0.617 0.003 -0.926 0.003q-0.222 0 -0.444 0.003c-0.207 0.002 -0.414 0.002 -0.621 0.001l-0.185 0.004c-0.317 -0.004 -0.458 -0.04 -0.71 -0.24 -0.237 -0.307 -0.254 -0.526 -0.256 -0.903l-0.002 -0.284 -0.001 -0.312 -0.002 -0.329q-0.002 -0.54 -0.003 -1.08l-0.001 -0.372q-0.002 -0.874 -0.003 -1.747a553.2 553.2 0 0 0 -0.006 -2.016q-0.004 -0.78 -0.004 -1.559c0 -0.31 -0.001 -0.621 -0.003 -0.931q-0.003 -0.438 -0.001 -0.876c0 -0.158 -0.001 -0.316 -0.003 -0.474 0.005 -0.871 0.005 -0.871 0.361 -1.248 0.296 -0.148 0.637 -0.118 0.96 -0.08m0.48 4.16v4.16h1.84c-0.198 -0.671 -0.198 -0.671 -0.459 -1.299l-0.123 -0.263 -0.127 -0.267q-0.125 -0.265 -0.249 -0.529l-0.122 -0.261c-0.152 -0.334 -0.29 -0.674 -0.425 -1.016 -0.099 -0.235 -0.099 -0.235 -0.334 -0.524" fill="#000000"/>
  <path d="m12.814 0.787 0.418 -0.001q0.436 -0.001 0.872 -0.001c0.372 0 0.744 -0.001 1.116 -0.002q0.431 -0.001 0.862 -0.001 0.206 0 0.412 -0.001c0.191 -0.001 0.383 -0.001 0.574 0 0.084 -0.001 0.084 -0.001 0.171 -0.001 0.314 0.002 0.563 0.029 0.841 0.181 0.198 0.298 0.197 0.448 0.16 0.8 -0.149 0.189 -0.266 0.293 -0.48 0.4 -0.233 0.007 -0.465 0.009 -0.698 0.008l-0.209 0c-0.221 0 -0.442 -0.001 -0.663 -0.002l-0.449 -0.001Q15.191 2.163 14.64 2.16v0.32h0.56c-0.065 0.268 -0.117 0.439 -0.32 0.63 -0.35 0.131 -0.671 0.145 -1.04 0.09 -0.28 -0.154 -0.375 -0.234 -0.465 -0.54L13.36 2.48h0.48v-0.32q-0.565 0.008 -1.13 0.021 -0.191 0.004 -0.383 0.007c-1.804 0.027 -3.406 0.359 -4.782 1.607L7.36 4l-0.146 0.145c-1.508 1.562 -1.556 3.686 -1.584 5.72l-0.009 0.552Q5.609 11.089 5.6 11.76H4.32a323.44 323.44 0 0 1 -0.013 -1.741q-0.002 -0.295 -0.005 -0.591C4.277 6.986 4.684 4.816 6.4 2.96c1.791 -1.791 3.986 -2.172 6.414 -2.173" fill="#000000"/>
  <path d="M5.6 12.08v9.76c-1.84 0 -1.84 0 -2.32 -0.32 -0.152 -0.222 -0.18 -0.399 -0.184 -0.664 -0.001 -0.068 -0.002 -0.137 -0.004 -0.207l-0.002 -0.225 -0.004 -0.239c-0.004 -0.26 -0.006 -0.521 -0.009 -0.781l-0.006 -0.543q-0.006 -0.57 -0.011 -1.14c-0.004 -0.486 -0.011 -0.973 -0.017 -1.459 -0.005 -0.374 -0.009 -0.748 -0.012 -1.123q-0.003 -0.269 -0.007 -0.538c-0.004 -0.251 -0.005 -0.502 -0.007 -0.753l-0.004 -0.224c-0.001 -0.444 0.054 -0.752 0.267 -1.144 0.663 -0.646 1.344 -0.4 2.32 -0.4" fill="#000000"/>
</svg>
