<svg version="1.0" xmlns="http://www.w3.org/2000/svg" width="24.000000pt" height="24.000000pt" viewBox="0 0 324 324" preserveAspectRatio="xMidYMid meet">
  <g transform="matrix(.1 0 0 -.1 12 312)" fill="#000000" stroke="none">
    <path d="M1478.52 2921.4c-12.96 -14.04 -59.4 -19.44 -210.6 -27 -205.2 -9.72 -268.92 -22.68 -384.48 -74.52 -302.4 -135 -514.08 -419.04 -560.52 -749.52l-12.96 -93.96h-34.56c-48.6 0 -72.36 -21.6 -68.04 -59.4 3.24 -29.16 7.56 -32.4 51.84 -37.8l48.6 -5.4 3.24 -263.52c2.16 -253.8 2.16 -263.52 -19.44 -278.64 -29.16 -20.52 -31.32 -112.32 -2.16 -133.92 15.12 -10.8 25.92 -45.36 37.8 -119.88 57.24 -334.8 286.2 -615.6 605.88 -743.04 141.48 -56.16 183.6 -59.4 724.68 -59.4 550.8 1.08 562.68 2.16 727.92 74.52 208.44 90.72 382.32 254.88 487.08 460.08 43.2 84.24 86.4 223.56 92.88 303.48 5.4 55.08 11.88 77.76 24.84 83.16 25.92 9.72 33.48 24.84 33.48 75.6 0 38.88 -4.32 47.52 -27 58.32l-27 11.88v251.64c0 138.24 3.24 258.12 6.48 267.84 4.32 11.88 20.52 17.28 46.44 17.28 21.6 0 45.36 5.4 52.92 12.96 34.56 34.56 -6.48 84.24 -69.12 84.24h-33.48l-7.56 78.84c-7.56 88.56 -51.84 228.96 -103.68 331.56 -119.88 236.52 -346.68 417.96 -610.2 486 -60.48 16.2 -136.08 24.84 -253.8 29.16 -114.48 4.32 -173.88 10.8 -189 20.52 -32.4 22.68 -307.8 21.6 -330.48 -1.08m11.88 -224.64c0 -28.08 -6.48 -38.88 -27 -48.6 -15.12 -6.48 -27 -17.28 -27 -23.76s-49.68 -10.8 -133.92 -10.8c-74.52 0 -146.88 -4.32 -163.08 -10.8 -64.8 -24.84 -78.84 -173.88 -21.6 -223.56 25.92 -22.68 38.88 -24.84 170.64 -24.84 129.6 0 144.72 -2.16 162 -21.6 9.72 -11.88 28.08 -21.6 39.96 -21.6 20.52 0 21.6 -6.48 21.6 -232.2v-232.2h-162c-138.24 0 -162 2.16 -162 16.2 0 9.72 -11.88 22.68 -27 29.16 -51.84 23.76 -58.32 3.24 -66.96 -228.96l-8.64 -210.6 -30.24 -3.24c-16.2 -2.16 -36.72 4.32 -46.44 12.96 -21.6 22.68 -73.44 21.6 -95.04 0 -12.96 -11.88 -17.28 -37.8 -17.28 -96.12s4.32 -84.24 17.28 -96.12c21.6 -22.68 78.84 -21.6 102.6 0 12.96 11.88 29.16 15.12 45.36 10.8 34.56 -8.64 38.88 -36.72 32.4 -233.28 -3.24 -117.72 -1.08 -163.08 9.72 -183.6 18.36 -34.56 56.16 -39.96 76.68 -10.8 14.04 20.52 23.76 21.6 132.84 19.44l117.72 -3.24 3.24 -30.24c5.4 -43.2 35.64 -50.76 201.96 -50.76 167.4 0 197.64 7.56 206.28 54l7.56 32.4h114.48c101.52 0 117.72 -2.16 133.92 -21.6 9.72 -11.88 27 -21.6 38.88 -21.6 44.28 0 49.68 24.84 49.68 236.52v200.88l30.24 3.24c27 3.24 29.16 1.08 29.16 -34.56v-38.88h84.24c125.28 0 131.76 8.64 131.76 172.8 0 157.68 -3.24 162 -131.76 162h-84.24v-36.72c0 -44.28 -12.96 -55.08 -43.2 -38.88 -21.6 11.88 -21.6 17.28 -15.12 199.8 6.48 167.4 5.4 191.16 -10.8 216 -22.68 34.56 -60.48 32.4 -76.68 -2.16 -9.72 -23.76 -15.12 -24.84 -169.56 -24.84h-159.84v462.24l33.48 7.56c18.36 4.32 35.64 14.04 38.88 22.68 4.32 11.88 36.72 15.12 153.36 15.12 144.72 0 149.04 1.08 173.88 27 50.76 54 37.8 190.08 -20.52 221.4 -11.88 5.4 -83.16 10.8 -159.84 10.8 -126.36 0 -139.32 2.16 -152.28 21.6 -7.56 11.88 -22.68 21.6 -34.56 21.6 -17.28 0 -21.6 7.56 -21.6 37.8v37.8h176.04c139.32 0 194.4 -4.32 258.12 -20.52 227.88 -58.32 414.72 -216 516.24 -436.32 34.56 -73.44 75.6 -220.32 75.6 -268.92 0 -25.92 -4.32 -30.24 -30.24 -30.24 -36.72 0 -77.76 -27 -77.76 -52.92 0 -29.16 22.68 -44.28 66.96 -44.28h41.04v-264.6c0 -250.56 -1.08 -265.68 -21.6 -286.2 -30.24 -30.24 -29.16 -97.2 1.08 -125.28 28.08 -25.92 22.68 -79.92 -21.6 -214.92 -71.28 -212.76 -217.08 -378 -417.96 -475.2 -156.6 -75.6 -160.92 -75.6 -695.52 -75.6 -511.92 0 -534.6 2.16 -668.52 55.08 -145.8 58.32 -298.08 185.76 -382.32 319.68 -52.92 84.24 -103.68 213.84 -115.56 298.08 -8.64 64.8 -7.56 73.44 10.8 91.8 29.16 25.92 29.16 97.2 0 126.36 -20.52 20.52 -21.6 35.64 -21.6 286.2v264.6h43.2c54 0 75.6 30.24 48.6 71.28 -11.88 19.44 -25.92 25.92 -55.08 25.92h-37.8l7.56 57.24c7.56 62.64 22.68 131.76 35.64 164.16 90.72 219.24 218.16 365.04 403.92 459 114.48 58.32 195.48 73.44 399.6 74.52l169.56 1.08zm30.24 -968.76c11.88 -19.44 24.84 -21.6 120.96 -21.6 95.04 0 108 2.16 122.04 21.6 14.04 20.52 24.84 21.6 170.64 19.44l155.52 -3.24 3.24 -136.08c2.16 -111.24 0 -138.24 -14.04 -150.12 -22.68 -19.44 -22.68 -164.16 0 -183.6 12.96 -10.8 16.2 -43.2 16.2 -158.76V970.92l-126.36 3.24c-149.04 3.24 -167.4 17.28 -82.08 62.64 61.56 32.4 97.2 81 106.92 146.88 7.56 51.84 -6.48 79.92 -38.88 79.92 -22.68 0 -32.4 -20.52 -32.4 -69.12 0 -46.44 -34.56 -89.64 -84.24 -104.76 -24.84 -6.48 -112.32 -9.72 -226.8 -7.56l-187.92 3.24 -31.32 35.64c-20.52 22.68 -31.32 46.44 -31.32 68.04 0 44.28 -17.28 74.52 -43.2 74.52 -29.16 0 -37.8 -42.12 -21.6 -105.84 14.04 -57.24 54 -104.76 105.84 -126.36 22.68 -9.72 34.56 -22.68 34.56 -36.72 0 -21.6 -6.48 -22.68 -124.2 -22.68h-124.2v143.64c0 88.56 4.32 147.96 11.88 155.52s8.64 43.2 4.32 101.52c-3.24 49.68 -8.64 155.52 -11.88 234.36l-5.4 142.56h159.84c147.96 0 160.92 -1.08 173.88 -21.6"/>
  </g>
</svg>
