<svg version="1.1" xmlns="http://www.w3.org/2000/svg" width="24" height="24" viewBox="0 0 24 24">
  <path d="M14.736 5.153 14.88 5.28v0.16l0.24 0.08c0.102 0.125 0.102 0.125 0.2 0.285l0.098 0.155c0.279 0.545 0.387 1.012 0.382 1.625l-0.001 0.213c-0.023 0.857 -0.365 1.481 -0.919 2.122l-0.137 0.124c-0.24 0.227 -0.333 0.369 -0.381 0.703 -0.012 0.523 0.027 0.87 0.278 1.333 0.04 0.245 0.04 0.245 0 0.48 -0.19 0.23 -0.19 0.23 -0.4 0.4h-0.16a1.916 1.916 0 0 0 0 1.2c0.02 0.411 0 0.661 -0.16 1.04 -0.028 0.328 -0.028 0.328 0.08 0.63 0.156 0.332 0.114 0.707 0 1.05 -0.04 0.493 -0.003 0.724 0.32 1.12l0.14 0.115C14.56 18.24 14.56 18.24 14.6 18.51c-0.05 0.363 -0.154 0.469 -0.44 0.69 -0.448 0.162 -0.97 0.098 -1.441 0.099a56.96 56.96 0 0 0 -0.547 0.006q-0.175 0.001 -0.351 0.001l-0.163 0.003c-0.443 -0.002 -0.837 -0.094 -1.163 -0.409 -0.896 -1.698 -0.513 -4.441 -0.129 -6.236 0.103 -0.56 0.089 -1.104 -0.168 -1.618 -0.221 -0.311 -0.523 -0.517 -0.838 -0.726 -0.24 -0.16 -0.24 -0.16 -0.292 -0.316 -0.064 -0.511 -0.064 -0.511 0.132 -0.799 0.204 -0.313 0.162 -0.456 0.11 -0.813 -0.129 -1.003 -0.04 -1.876 0.558 -2.705 1.264 -1.605 3.274 -1.67 4.868 -0.534m-3.607 1.162c-0.422 0.538 -0.562 1.002 -0.489 1.685a6.48 6.48 0 0 0 0.135 0.39c0.068 0.178 0.068 0.178 0.105 0.33 -0.115 0.18 -0.115 0.18 -0.24 0.32 0.027 0.221 0.027 0.221 0.16 0.4 0.192 0.093 0.192 0.093 0.4 0.08 0.133 -0.116 0.133 -0.116 0.24 -0.24l0.155 0.052c0.701 0.226 1.245 0.256 1.925 -0.052 0.464 -0.28 0.712 -0.695 0.88 -1.2 0.01 -0.156 0.014 -0.313 0.015 -0.47l0.003 -0.249c-0.019 -0.246 -0.083 -0.416 -0.178 -0.641 0.025 -0.2 0.025 -0.2 0.08 -0.4 0.058 -0.208 0.058 -0.208 0.08 -0.4 -0.15 -0.184 -0.15 -0.184 -0.39 -0.18 -0.245 0.002 -0.245 0.002 -0.415 0.11L13.44 5.92l-0.181 -0.073c-0.736 -0.291 -1.582 -0.095 -2.129 0.468" fill="#000000"/>
  <path d="M13.09 6.255C13.542 6.498 13.82 6.797 14 7.28c0.063 0.478 -0.018 0.785 -0.272 1.196 -0.268 0.344 -0.551 0.526 -0.983 0.602 -0.458 0.025 -0.801 -0.04 -1.173 -0.315 -0.38 -0.351 -0.474 -0.654 -0.503 -1.158 0.016 -0.421 0.104 -0.68 0.383 -0.995 0.5 -0.442 0.992 -0.566 1.637 -0.355" fill="#000000"/>
</svg>
