<?xml version="1.0" standalone="no"?>
<!DOCTYPE svg PUBLIC "-//W3C//DTD SVG 20010904//EN"
 "http://www.w3.org/TR/2001/REC-SVG-20010904/DTD/svg10.dtd">
<svg version="1.0" xmlns="http://www.w3.org/2000/svg"
 width="24" height="24" viewBox="0 0 300.000000 300.000000"
 preserveAspectRatio="xMidYMid meet">

<g transform="translate(0.000000,300.000000) scale(0.100000,-0.100000)"
fill="#000000" stroke="none">
<path d="M2060 1983 c-4 -70 1 -847 6 -854 3 -6 49 -9 109 -8 l102 1 7 67 c8
86 8 647 -1 734 l-6 67 -108 0 c-60 0 -109 -3 -109 -7z"/>
<path d="M2308 1923 c9 -91 9 -617 -1 -720 -7 -77 -6 -81 12 -76 29 7 36 88
36 433 0 343 -7 430 -35 430 -18 0 -19 -6 -12 -67z"/>
<path d="M688 1949 c-16 -9 -18 -30 -18 -208 0 -164 3 -201 15 -211 13 -11 15
9 15 172 0 166 2 187 18 201 16 15 54 17 331 17 298 0 314 1 338 20 l26 20
-354 0 c-222 0 -361 -4 -371 -11z"/>
<path d="M1424 1939 c-43 -47 -54 -49 -378 -48 -168 0 -311 -3 -316 -6 -11 -7
-15 -622 -4 -649 5 -14 43 -16 323 -16 l317 0 41 -35 c23 -19 44 -35 47 -35 3
0 6 14 6 30 0 17 -4 30 -8 30 -4 0 -25 15 -45 34 l-37 34 0 275 0 275 45 40
c32 28 45 47 45 66 0 31 -11 33 -36 5z m-631 -71 c6 -18 -3 -38 -17 -38 -18 0
-35 21 -29 36 6 17 40 18 46 2z m555 -11 c4 -20 -25 -34 -40 -19 -15 15 -1 44
19 40 10 -2 19 -11 21 -21z m-120 -40 c9 -7 12 -72 12 -263 l0 -254 -25 -16
c-20 -13 -47 -15 -150 -12 -112 3 -128 5 -141 22 -19 27 -21 493 -1 519 9 12
32 17 92 20 102 4 196 -3 213 -16z m-435 -549 c6 -19 -3 -38 -18 -38 -18 0
-28 17 -21 35 7 18 33 20 39 3z m554 1 c16 -16 5 -39 -17 -39 -25 0 -35 18
-20 35 15 18 22 19 37 4z"/>
<path d="M945 1798 c-3 -8 -4 -121 -3 -253 l3 -240 135 0 135 0 0 250 0 250
-133 3 c-101 2 -134 0 -137 -10z"/>
<path d="M1830 1560 l0 -400 100 0 100 0 0 400 0 400 -100 0 -100 0 0 -400z
m135 330 c0 -20 -6 -26 -28 -28 -29 -4 -44 16 -33 44 4 10 15 14 33 12 22 -2
28 -8 28 -28z m-25 -336 c0 -50 -3 -64 -15 -64 -12 0 -15 14 -15 63 0 35 3 67
6 70 16 15 24 -9 24 -69z"/>
<path d="M2375 1560 l0 -400 26 0 c32 0 35 9 50 203 12 151 6 388 -12 520 -11
74 -12 77 -38 77 l-26 0 0 -400z"/>
<path d="M1660 1560 l0 -380 70 0 70 0 0 380 0 380 -70 0 -70 0 0 -380z"/>
<path d="M1596 1876 l-36 -43 0 -277 0 -277 40 -42 39 -42 1 363 c0 199 -2
362 -4 362 -3 0 -21 -20 -40 -44z"/>
<path d="M617 1874 c-4 -4 -7 -148 -7 -321 0 -306 0 -313 20 -313 15 0 20 7
20 29 0 16 7 34 16 41 8 8 20 22 25 32 10 18 8 18 -11 8 -39 -21 -50 -6 -50
65 0 71 11 86 49 65 29 -15 26 1 -4 30 -24 23 -25 27 -27 193 -3 160 -9 193
-31 171z"/>
<path d="M1406 1828 c-14 -19 -16 -63 -16 -279 0 -243 1 -257 20 -274 20 -18
20 -17 20 278 0 164 -2 297 -4 297 -3 0 -12 -10 -20 -22z"/>
<path d="M1450 1555 l0 -265 45 0 45 0 0 265 0 265 -45 0 -45 0 0 -265z"/>
<path d="M683 1299 c-8 -8 -13 -38 -13 -71 0 -46 4 -59 19 -68 13 -6 148 -10
372 -10 l352 0 -26 20 c-24 19 -40 20 -334 20 -351 0 -343 -2 -352 74 -5 38
-8 45 -18 35z"/>
</g>
</svg>
