<svg version="1.1" xmlns="http://www.w3.org/2000/svg" width="24" height="24" viewBox="0 0 24 24">
  <path d="M2 9.84h0.4l0.32 0.96 0.257 0.012 0.333 0.018c0.056 0.002 0.112 0.005 0.169 0.008 0.422 0.024 0.422 0.024 0.601 0.202 0.05 0.21 0.05 0.21 0.08 0.4l0.202 -0.207 0.263 -0.268 0.133 -0.137c0.412 -0.417 0.412 -0.417 0.773 -0.438l0.201 0 0.231 0 0.254 0.001h0.267c0.292 0 0.584 0.001 0.877 0.001l0.607 0q0.718 0 1.436 0.002 0.817 0.001 1.634 0.002 1.681 0.001 3.362 0.004l0.08 -0.32h1.04l0.16 0.32h0.56l0.08 0.24 0.24 -0.08a5.6 5.6 0 0 1 0.347 -0.01l0.211 -0.001 0.227 0 0.234 0q0.245 0 0.49 0c0.25 0 0.5 0 0.751 -0.001q0.238 0 0.476 0l0.227 0 0.211 0.001 0.186 0C20.08 10.56 20.08 10.56 20.32 10.64l0.08 -0.24c0.349 -0.045 0.665 -0.08 0.976 0.105 0.164 0.144 0.314 0.295 0.464 0.455l0.315 0.305c0.225 0.224 0.322 0.329 0.333 0.658l-0.003 0.287 -0.002 0.288L22.48 12.72l0.32 0.08 -0.045 0.22c-0.032 0.24 -0.025 0.356 0.045 0.58 0 0.213 -0.007 0.362 -0.08 0.56l-0.24 0.08v0.16h0.88l0.08 0.4c-0.245 0.123 -0.501 0.088 -0.77 0.085l-0.171 -0.001q-0.209 -0.002 -0.419 -0.004l-0.08 0.48 0.4 0.08 -0.08 0.32h-1.44v-0.4h0.4v-0.56l-1.36 0.08 -0.08 -0.4c0.08 -0.08 0.08 -0.08 0.28 -0.088l0.245 0.003 0.245 0.002L20.8 14.4v-0.16l-0.155 -0.025L20.48 14.16c-0.08 -0.24 -0.08 -0.24 0 -0.48a7.44 7.44 0 0 0 -0.08 -0.32c0 -0.301 0.019 -0.393 0.16 -0.64h0.24v-0.24h-0.48v-1.52h-0.16l-0.08 1.44h-3.52c-0.092 -0.184 -0.089 -0.287 -0.088 -0.491l0.001 -0.195 0.002 -0.204 0.001 -0.206q0.002 -0.252 0.004 -0.504h-0.16l0.008 0.149c0.01 0.224 0.016 0.447 0.022 0.671l0.012 0.235c0.005 0.218 0.003 0.412 -0.042 0.625 -0.224 0.193 -0.224 0.193 -0.48 0.32 -0.159 0.158 -0.159 0.158 -0.29 0.325 -0.241 0.295 -0.436 0.532 -0.825 0.59 -0.303 -0.043 -0.43 -0.14 -0.645 -0.355 -0.103 -0.308 -0.085 -0.556 -0.08 -0.88a386.96 386.96 0 0 0 -3.401 -0.01c-0.526 0.001 -1.053 0 -1.579 -0.004 -0.508 -0.004 -1.017 -0.004 -1.525 -0.002q-0.29 0 -0.581 -0.003c-1.052 -0.067 -1.052 -0.067 -2.005 0.281 -0.216 0.21 -0.216 0.21 -0.374 0.439C4.4 13.36 4.4 13.36 4.222 13.425L4.08 13.44l-0.03 0.275L4 14c-0.245 0.123 -0.501 0.088 -0.77 0.085l-0.171 -0.001q-0.209 -0.002 -0.419 -0.004l-0.032 0.167 -0.043 0.218 -0.042 0.217C2.48 14.88 2.48 14.88 2.4 15.12h-0.4zm0.72 1.76v1.76h0.32v-1.76zm11.84 1.2v0.32h0.32v-0.32z" fill="#000000"/>
  <path d="M20.4 10.4c0.349 -0.045 0.665 -0.08 0.976 0.105 0.164 0.144 0.314 0.295 0.464 0.455l0.315 0.305c0.225 0.224 0.322 0.329 0.333 0.658l-0.003 0.287 -0.002 0.288L22.48 12.72l0.32 0.08 -0.045 0.22c-0.032 0.24 -0.025 0.356 0.045 0.58 0 0.213 -0.007 0.362 -0.08 0.56l-0.24 0.08v0.16h0.88l0.08 0.4c-0.245 0.123 -0.501 0.088 -0.77 0.085l-0.171 -0.001q-0.209 -0.002 -0.419 -0.004l-0.08 0.48 0.4 0.08 -0.08 0.32h-1.44v-0.4h0.4v-0.56l-1.36 0.08 -0.08 -0.4c0.08 -0.08 0.08 -0.08 0.28 -0.088l0.245 0.003 0.245 0.002L20.8 14.4v-0.16l-0.155 -0.025L20.48 14.16c-0.08 -0.24 -0.08 -0.24 0 -0.48a7.44 7.44 0 0 0 -0.08 -0.32c0 -0.301 0.019 -0.393 0.16 -0.64h0.24v-0.24h-0.48v-1.52h-0.16l-0.08 1.44h-3.52c-0.092 -0.184 -0.089 -0.287 -0.088 -0.491l0.001 -0.195 0.002 -0.204 0.001 -0.206q0.002 -0.252 0.004 -0.504h-0.16v1.68h-0.08v-2l0.08 0.16 0.24 -0.08a5.6 5.6 0 0 1 0.347 -0.01l0.211 -0.001 0.227 0 0.234 0q0.245 0 0.49 0c0.25 0 0.5 0 0.751 -0.001q0.238 0 0.476 0l0.227 0 0.211 0.001 0.186 0C20.08 10.56 20.08 10.56 20.32 10.64z" fill="#000000"/>
  <path d="m5.634 12.691 0.219 -0.001 0.24 0.003h0.253c0.277 0 0.553 0.002 0.83 0.004q0.287 0.001 0.575 0.001c0.505 0.001 1.009 0.003 1.514 0.006 0.515 0.002 1.03 0.004 1.544 0.005q1.516 0.004 3.031 0.012l0.032 0.149 0.043 0.196 0.042 0.194c0.043 0.193 0.043 0.193 0.123 0.421H4.4v-0.16c0.132 -0.13 0.132 -0.13 0.305 -0.275 0.234 -0.194 0.234 -0.194 0.443 -0.412 0.171 -0.147 0.262 -0.143 0.486 -0.142" fill="#000000"/>
  <path d="M1.76 9.84c0.075 1.008 0.092 2.011 0.09 3.022q0 0.378 0.001 0.756 0 0.241 0 0.482l0 0.227 -0.001 0.21 0 0.184C1.84 14.88 1.84 14.88 1.76 15.12c-0.167 0.009 -0.333 0.015 -0.5 0.02l-0.281 0.011C0.72 15.12 0.72 15.12 0.526 14.979 0.4 14.8 0.4 14.8 0.4 14.48h0.96v-4H0.48c-0.08 -0.4 -0.08 -0.4 -0.001 -0.544 0.364 -0.217 0.87 -0.107 1.281 -0.096" fill="#000000"/>
  <path d="M20.32 10.48h0.08v2h-0.08v-1.52h-0.16v0.56h-0.08v-0.88h0.24z" fill="#000000"/>
  <path d="m0.901 9.824 0.309 0.006 0.311 0.004L1.76 9.84v0.08l-0.196 0.003c-0.563 0.003 -0.563 0.003 -1.024 0.282L0.4 10.4c0.087 -0.551 0.087 -0.551 0.501 -0.576" fill="#000000"/>
  <path d="M20.08 10.64h0.24v0.32h-0.16v0.56h-0.08z" fill="#000000"/>
</svg>
