<?xml version="1.0" standalone="no"?>
<!DOCTYPE svg PUBLIC "-//W3C//DTD SVG 20010904//EN"
 "http://www.w3.org/TR/2001/REC-SVG-20010904/DTD/svg10.dtd">
<svg version="1.0" xmlns="http://www.w3.org/2000/svg"
 width="24" height="24" viewBox="0 0 300.000000 300.000000"
 preserveAspectRatio="xMidYMid meet">

<g transform="translate(0.000000,300.000000) scale(0.100000,-0.100000)"
fill="#000000" stroke="none">
<path d="M1980 1515 l0 -285 75 0 c71 0 75 1 75 23 0 14 -17 37 -46 62 l-45
40 25 55 c34 73 34 137 0 210 l-25 55 45 39 c31 26 46 46 46 62 0 23 -3 24
-75 24 l-75 0 0 -285z"/>
<path d="M1955 1780 c-3 -5 -33 -10 -66 -10 l-59 0 0 -255 0 -255 55 0 55 0 3
253 2 252 3 -257 c1 -158 6 -259 12 -263 7 -4 10 88 10 269 0 152 -2 276 -4
276 -3 0 -8 -4 -11 -10z"/>
<path d="M1256 1773 c-13 -13 -5 -20 33 -31 47 -15 71 -15 71 -2 0 16 -91 45
-104 33z"/>
<path d="M1010 1726 l0 -36 48 -1 c26 0 112 0 191 0 133 0 174 5 140 15 -8 2
-48 14 -89 27 -52 15 -109 24 -182 26 l-108 4 0 -35z"/>
<path d="M1670 1515 l0 -245 75 0 75 0 0 245 0 245 -75 0 -75 0 0 -245z"/>
<path d="M1520 1515 l0 -235 70 0 70 0 0 235 0 235 -70 0 -70 0 0 -235z"/>
<path d="M952 1714 c-48 -42 -54 -101 -18 -172 23 -46 26 -63 26 -162 0 -145
3 -150 85 -150 l65 0 0 220 0 219 -57 3 c-58 3 -58 3 -63 38 l-5 34 -33 -30z"/>
<path d="M1481 1723 c-21 -17 -22 -24 -19 -212 3 -188 4 -194 26 -209 l22 -14
0 226 c0 124 -2 226 -4 226 -2 0 -13 -8 -25 -17z"/>
<path d="M1416 1701 c-4 -6 -4 -21 -1 -33 5 -18 -2 -32 -24 -56 -36 -37 -35
-33 -16 -96 8 -27 15 -80 15 -118 l0 -68 30 0 30 0 -2 187 c-2 130 -6 188 -15
190 -6 2 -14 0 -17 -6z"/>
<path d="M1120 1450 l0 -220 120 0 c108 0 120 2 130 19 16 30 12 212 -5 261
-21 59 -19 77 10 102 14 12 25 30 25 40 0 17 -11 18 -140 18 l-140 0 0 -220z"/>
</g>
</svg>
