<svg version="1.1" xmlns="http://www.w3.org/2000/svg" width="24" height="24" viewBox="0 0 24 24">
  <path d="m8.251 1.5 0.21 -0.001 0.231 0.001 0.243 -0.001c0.266 -0.001 0.532 0 0.798 0l0.552 0q0.58 0 1.159 0.001c0.496 0.001 0.992 0 1.488 -0.001q0.57 -0.001 1.141 0 0.274 0 0.549 0c0.255 0 0.511 0 0.766 0.001l0.231 -0.001 0.21 0.001 0.183 0C16.16 1.52 16.16 1.52 16.32 1.68c0.02 0.2 0.02 0.2 0 0.4 -0.16 0.16 -0.16 0.16 -0.31 0.178 -0.059 -0.001 -0.119 -0.002 -0.18 -0.003l-0.195 -0.002 -0.204 -0.004 -0.206 -0.002c-0.168 -0.002 -0.336 -0.005 -0.504 -0.008l0.003 0.277 0.002 0.358 0.002 0.183A14.64 14.64 0 0 1 14.72 3.52c-0.08 0.08 -0.08 0.08 -0.265 0.089l-0.242 -0.001 -0.236 -0.001 -0.302 -0.002L12.72 3.6v2.48h0.96l0.16 0.08q0.003 0.238 0.005 0.475l0.003 0.267C13.84 7.12 13.84 7.12 13.76 7.2h-0.56v4.8l0.32 0.08c0.01 0.23 0.01 0.23 0 0.48l-0.16 0.16h-0.64v4.8h1.92l0.48 0.24c0.199 0.039 0.199 0.039 0.397 0.041l0.214 0.009 0.219 0.006 0.225 0.008q0.273 0.01 0.545 0.017l0.043 -0.167a25.92 25.92 0 0 1 0.392 -1.343l0.095 -0.299c0.116 -0.285 0.195 -0.47 0.43 -0.671 0.521 -0.002 1.009 0.178 1.5 0.34l0.226 0.07c0.709 0.233 0.709 0.233 0.914 0.63 -0.004 0.161 -0.004 0.161 -0.07 0.33l-0.077 0.216L20.08 17.2q-0.071 0.228 -0.141 0.457c-0.261 0.852 -0.551 1.695 -0.839 2.538l-0.065 0.191q-0.093 0.272 -0.186 0.544l-0.056 0.166c-0.191 0.554 -0.191 0.554 -0.312 0.744 -0.541 0.186 -1.021 -0.038 -1.54 -0.22l-0.264 -0.088c-0.719 -0.246 -0.719 -0.246 -0.916 -0.492 -0.107 -0.707 0.315 -1.513 0.56 -2.16h-1.12l0.006 0.236c0.007 0.29 0.012 0.58 0.016 0.87q0.003 0.188 0.008 0.376c0.005 0.18 0.007 0.361 0.009 0.542l0.006 0.169c0 0.311 -0.037 0.438 -0.234 0.684 -0.24 0.186 -0.338 0.209 -0.636 0.189l-0.214 -0.011L14 21.92v0.64h-5.2l-0.08 -0.56 -0.279 -0.001c-0.343 -0.002 -0.685 -0.006 -1.028 -0.011q-0.222 -0.003 -0.444 -0.004a45.2 45.2 0 0 1 -0.64 -0.008l-0.199 0.001c-0.325 -0.008 -0.544 -0.035 -0.804 -0.24 -0.18 -0.19 -0.29 -0.325 -0.391 -0.562 -0.028 -0.064 -0.056 -0.129 -0.085 -0.195l-0.085 -0.206 -0.092 -0.213a71.04 71.04 0 0 1 -0.184 -0.433c-0.083 -0.195 -0.169 -0.389 -0.257 -0.582l-0.078 -0.173q-0.072 -0.159 -0.145 -0.318C3.878 18.759 3.788 18.485 3.76 18.16c0.131 -0.296 0.279 -0.48 0.56 -0.64a6.24 6.24 0 0 1 0.683 -0.027l0.208 0c0.227 0 0.454 0.002 0.68 0.004q0.236 0.001 0.472 0.001c0.414 0.001 0.828 0.003 1.242 0.006 0.497 0.003 0.994 0.004 1.491 0.005 0.755 0.002 1.509 0.007 2.264 0.011v-4.8h-0.64c-0.16 -0.16 -0.16 -0.16 -0.17 -0.37L10.56 12.16l0.32 -0.16v-3.2h-1.28l-0.16 0.4 -0.16 0.24 0.125 0.13C9.52 9.76 9.52 9.76 9.52 10.005c-0.08 0.235 -0.08 0.235 -0.27 0.385C9.04 10.48 9.04 10.48 8.8 10.48l-0.044 0.149 -0.061 0.196 -0.059 0.194c-0.115 0.274 -0.273 0.392 -0.516 0.556 -0.203 0.188 -0.234 0.249 -0.31 0.5 -0.087 0.273 -0.17 0.376 -0.415 0.525 -0.178 0.11 -0.26 0.162 -0.338 0.358A26.72 26.72 0 0 0 6.96 13.44c-0.095 0.165 -0.095 0.165 -0.24 0.24 -0.463 0.009 -0.728 -0.171 -1.08 -0.442L5.52 13.12v-0.16h-0.16c-0.114 -0.413 -0.018 -0.6 0.178 -0.966 0.349 -0.577 0.746 -1.128 1.183 -1.641C7.21 9.777 7.501 9.349 7.52 8.56c0.372 -0.094 0.372 -0.094 0.625 0.035L8.32 8.72l0.114 -0.149 0.151 -0.196 0.149 -0.194c0.308 -0.382 0.308 -0.382 0.546 -0.501a6 6 0 0 1 0.366 -0.008l0.217 0.001 0.227 0.002 0.229 0.001q0.281 0.001 0.561 0.004v-0.48l-0.23 0.005C10.4 7.2 10.4 7.2 10.24 7.12V6.16c0.335 -0.167 0.746 -0.08 1.12 -0.08V3.6h-2V2.24l-0.309 0.006q-0.2 0.002 -0.401 0.004l-0.204 0.004 -0.195 0.002 -0.18 0.003C7.92 2.24 7.92 2.24 7.76 2.08c-0.02 -0.2 -0.02 -0.2 0 -0.4 0.191 -0.191 0.231 -0.18 0.491 -0.18" fill="#000000"/>
</svg>
