<svg version="1.0" xmlns="http://www.w3.org/2000/svg"
 width="24" height="24" viewBox="0 0 300.000000 300.000000"
 preserveAspectRatio="xMidYMid meet">

<g transform="translate(0.000000,300.000000) scale(0.100000,-0.100000)"
fill="#000000" stroke="none">
<path d="M417 2916 c-63 -23 -116 -64 -147 -113 -121 -190 7 -443 225 -443
154 0 270 123 269 286 0 152 -106 270 -253 280 -34 3 -71 -1 -94 -10z"/>
<path d="M1410 2910 c-40 -13 -67 -32 -101 -69 -86 -92 -104 -218 -48 -329 49
-100 131 -151 239 -151 108 0 190 51 239 151 58 115 37 241 -53 334 -79 80
-168 101 -276 64z"/>
<path d="M2427 2916 c-63 -23 -116 -64 -147 -113 -121 -190 8 -443 225 -443
228 1 355 276 212 461 -66 86 -198 129 -290 95z"/>
<path d="M173 2185 c-57 -29 -91 -64 -126 -129 -22 -40 -22 -50 -25 -478 l-3
-438 101 0 100 0 0 -535 0 -535 275 0 275 0 0 535 0 535 100 0 100 0 0 418 c0
253 -4 431 -10 454 -17 59 -71 130 -124 163 l-49 30 -281 3 -281 3 -52 -26z"/>
<path d="M1202 2197 c-51 -16 -126 -89 -153 -149 -24 -53 -24 -54 -27 -480
l-3 -428 106 0 105 0 0 -535 0 -535 270 0 270 0 0 535 0 535 105 0 106 0 -3
428 c-3 426 -3 427 -27 480 -28 63 -103 133 -159 150 -50 15 -542 15 -590 -1z"/>
<path d="M2182 2184 c-56 -28 -90 -63 -125 -128 -22 -40 -22 -50 -25 -478 l-3
-438 101 0 100 0 0 -535 0 -535 275 0 275 0 0 535 0 535 100 0 100 0 0 428 c0
426 0 427 -24 477 -32 71 -68 109 -128 139 l-52 26 -271 0 -271 0 -52 -26z"/>
</g>
</svg>
