<svg version="1.0" xmlns="http://www.w3.org/2000/svg"
 width="24" height="24" viewBox="0 0 300.000000 300.000000"
 preserveAspectRatio="xMidYMid meet">

<g transform="translate(0.000000,300.000000) scale(0.100000,-0.100000)"
fill="#000000" stroke="none">
<path d="M906 2914 c-68 -22 -147 -102 -171 -173 -23 -69 -17 -169 14 -228 47
-94 126 -145 234 -151 116 -7 200 48 255 167 21 46 24 64 20 130 -3 45 -12 90
-22 111 -25 48 -83 108 -128 131 -52 27 -141 33 -202 13z"/>
<path d="M1927 2916 c-63 -23 -116 -64 -147 -113 -121 -190 8 -443 225 -443
228 1 355 276 212 461 -66 86 -198 129 -290 95z"/>
<path d="M675 2186 c-62 -28 -116 -87 -141 -152 -18 -45 -19 -81 -19 -469 l0
-420 103 -3 102 -3 0 -534 0 -535 270 0 270 0 0 535 0 535 105 0 106 0 -3 433
c-3 431 -3 432 -27 480 -29 59 -106 129 -159 145 -26 8 -127 12 -298 12 -250
0 -261 -1 -309 -24z"/>
<path d="M1682 2184 c-56 -28 -90 -63 -125 -128 -22 -40 -22 -50 -25 -478 l-3
-438 101 0 100 0 0 -535 0 -535 275 0 275 0 0 535 0 535 100 0 100 0 0 428 c0
426 0 427 -24 477 -32 71 -68 109 -128 139 l-52 26 -271 0 -271 0 -52 -26z"/>
</g>
</svg>
